<svg width="432" height="311" viewBox="0 0 432 311" fill="none" xmlns="http://www.w3.org/2000/svg">
<g filter="url(#filter0_f_7_9078)">
<path d="M108.148 214.763C162.548 214.763 206.648 170.439 206.648 115.763C206.648 61.087 162.548 16.7632 108.148 16.7632C53.748 16.7632 9.64801 61.087 9.64801 115.763C9.64801 170.439 53.748 214.763 108.148 214.763Z" fill="#FA9E42"/>
<g filter="url(#filter1_f_7_9078)">
<path d="M101.03 101.684C133.767 84.2962 152.077 54.7094 141.928 35.6002C131.778 16.4909 97.0115 15.0954 64.2749 32.4833C31.5383 49.8712 13.228 79.4579 23.3778 98.5672C33.5275 117.676 68.2938 119.072 101.03 101.684Z" fill="#F8E36F"/>
</g>
<g filter="url(#filter2_d_7_9078)">
<path d="M301.993 278.763H110.561C91.9906 278.749 74.1455 271.552 60.7616 258.678C47.3777 245.804 39.4927 228.252 38.7572 209.696C38.0217 191.141 44.4927 173.02 56.8156 159.127C69.1386 145.234 86.358 136.647 104.869 135.163C107.509 116.523 115.926 99.1798 128.937 85.5731C141.947 71.9664 158.896 62.7811 177.4 59.3095C195.903 55.8379 215.029 58.2547 232.087 66.2199C249.145 74.185 263.276 87.2977 272.493 103.713C289.398 97.8611 307.663 97.1774 324.959 101.749C342.254 106.321 357.796 115.941 369.601 129.382C381.406 142.823 388.941 159.476 391.242 177.216C393.544 194.957 390.509 212.981 382.525 228.99C377.839 243.454 368.692 256.061 356.397 265.003C344.101 273.945 329.289 278.762 314.085 278.763H301.993Z" fill="url(#paint0_linear_7_9078)"/>
<path d="M314.085 277.763C321.804 277.763 329.394 276.53 336.644 274.099C343.654 271.748 350.236 268.318 356.205 263.903C362.106 259.539 367.279 254.311 371.58 248.365C375.935 242.346 379.297 235.723 381.573 228.682L381.597 228.61L381.631 228.542C384.658 222.494 386.989 216.096 388.559 209.526C390.174 202.766 390.993 195.78 390.993 188.763C390.993 182.724 390.385 176.688 389.185 170.825C388.016 165.111 386.271 159.491 384 154.12C381.769 148.847 379.008 143.761 375.794 139.003C372.61 134.29 368.953 129.858 364.926 125.83C360.898 121.803 356.466 118.146 351.753 114.962C346.995 111.748 341.909 108.987 336.636 106.756C331.265 104.485 325.645 102.74 319.931 101.571C314.068 100.371 308.033 99.7627 301.993 99.7627C291.994 99.7627 282.179 101.408 272.82 104.654L272.031 104.928L271.621 104.199C264.005 90.6574 252.927 79.2848 239.585 71.311C232.837 67.2784 225.588 64.1622 218.039 62.0489C210.25 59.8686 202.16 58.7632 193.993 58.7632C183.009 58.7632 172.286 60.7402 162.123 64.6392C152.305 68.4059 143.298 73.8469 135.353 80.8112C127.454 87.7354 120.899 95.9054 115.869 105.094C110.717 114.508 107.349 124.67 105.859 135.298L105.748 136.094L104.947 136.156C95.9888 136.857 87.37 139.216 79.3298 143.166C71.5174 147.005 64.5412 152.197 58.595 158.598C46.3769 171.75 39.648 188.886 39.648 206.85C39.648 216.424 41.5228 225.71 45.2203 234.452C46.9975 238.654 49.1972 242.706 51.7583 246.497C54.2952 250.252 57.2088 253.784 60.4179 256.993C63.6271 260.202 67.1584 263.116 70.9135 265.652C74.7045 268.214 78.757 270.413 82.9587 272.19C91.7005 275.888 100.987 277.763 110.561 277.763H301.993H314.085ZM314.085 278.763H301.993H110.561C70.8446 278.763 38.648 246.566 38.648 206.85C38.648 169.049 67.8127 138.06 104.869 135.159C110.998 91.4205 148.565 57.7632 193.993 57.7632C227.696 57.7632 257.07 76.2863 272.493 103.709C281.735 100.504 291.66 98.7627 301.993 98.7627C351.699 98.7627 391.993 139.058 391.993 188.763C391.993 203.222 388.584 216.884 382.525 228.99C373.188 257.872 346.075 278.763 314.085 278.763Z" fill="white" fill-opacity="0.5"/>
</g>
</g>
<defs>
<filter id="filter0_f_7_9078" x="5.64801" y="12.7632" width="390.345" height="270" filterUnits="userSpaceOnUse" color-interpolation-filters="sRGB">
<feFlood flood-opacity="0" result="BackgroundImageFix"/>
<feBlend mode="normal" in="SourceGraphic" in2="BackgroundImageFix" result="shape"/>
<feGaussianBlur stdDeviation="2" result="effect1_foregroundBlur_7_9078"/>
</filter>
<filter id="filter1_f_7_9078" x="0.577637" y="0.303223" width="164.15" height="133.561" filterUnits="userSpaceOnUse" color-interpolation-filters="sRGB">
<feFlood flood-opacity="0" result="BackgroundImageFix"/>
<feBlend mode="normal" in="SourceGraphic" in2="BackgroundImageFix" result="shape"/>
<feGaussianBlur stdDeviation="10" result="effect1_foregroundBlur_7_9078"/>
</filter>
<filter id="filter2_d_7_9078" x="18.648" y="29.7632" width="413.345" height="281" filterUnits="userSpaceOnUse" color-interpolation-filters="sRGB">
<feFlood flood-opacity="0" result="BackgroundImageFix"/>
<feColorMatrix in="SourceAlpha" type="matrix" values="0 0 0 0 0 0 0 0 0 0 0 0 0 0 0 0 0 0 127 0" result="hardAlpha"/>
<feOffset dx="10" dy="2"/>
<feGaussianBlur stdDeviation="15"/>
<feColorMatrix type="matrix" values="0 0 0 0 0.501961 0 0 0 0 0.501961 0 0 0 0 0.501961 0 0 0 0.302 0"/>
<feBlend mode="normal" in2="BackgroundImageFix" result="effect1_dropShadow_7_9078"/>
<feBlend mode="normal" in="SourceGraphic" in2="effect1_dropShadow_7_9078" result="shape"/>
</filter>
<linearGradient id="paint0_linear_7_9078" x1="215.346" y1="57.7656" x2="317.989" y2="305.929" gradientUnits="userSpaceOnUse">
<stop stop-color="white" stop-opacity="0.604"/>
<stop offset="1" stop-color="white" stop-opacity="0.2"/>
</linearGradient>
</defs>
</svg>
