<svg width="442" height="311" viewBox="0 0 442 311" fill="none" xmlns="http://www.w3.org/2000/svg">
<g filter="url(#filter0_f_7_9088)">
<path d="M107.268 6.72311C114.278 6.72136 121.27 7.42963 128.137 8.83711C141.39 11.5668 153.974 16.8888 165.164 24.4971C180.667 35.0048 193.053 49.4945 201.021 66.4436C208.989 83.3926 212.244 102.175 210.444 120.817C208.645 139.458 201.856 157.271 190.793 172.383C179.73 187.495 164.801 199.347 147.574 206.695C141.312 209.356 134.8 211.388 128.136 212.76C113.685 215.69 98.7755 215.508 84.4006 212.224C70.0257 208.941 56.5155 202.632 44.77 193.718C33.0245 184.804 23.3133 173.489 16.2833 160.528C9.25325 147.566 5.06584 133.256 3.99998 118.549C15.3315 121.201 27.1024 121.372 38.506 119.049C48.739 116.953 58.4592 112.863 67.112 107.012C79.9743 98.3288 90.0423 86.1017 96.096 71.8121C98.1415 66.9726 99.7028 61.9424 100.757 56.7951C103.004 45.7664 102.921 34.3898 100.513 23.3951C99.3017 17.8974 97.5103 12.5437 95.169 7.42412C99.1851 6.95677 103.225 6.7227 107.268 6.72311Z" fill="#713FFD"/>
<g filter="url(#filter1_f_7_9088)">
<path d="M177.339 38.8964C154.095 17.9669 123.644 13.8916 109.325 29.7941C95.0065 45.6965 102.242 75.5547 125.487 96.4842C148.732 117.414 179.183 121.489 193.501 105.586C207.82 89.6841 200.584 59.8259 177.339 38.8964Z" fill="#A586FC"/>
</g>
<g filter="url(#filter2_d_7_9088)">
<path d="M311.999 278.875H120.567C101.997 278.861 84.1515 271.664 70.7676 258.79C57.3837 245.916 49.4987 228.364 48.7632 209.808C48.0276 191.252 54.4987 173.131 66.8216 159.239C79.1446 145.346 96.364 136.759 114.875 135.275C117.515 116.635 125.932 99.2916 138.943 85.6849C151.953 72.0782 168.902 62.8929 187.406 59.4213C205.909 55.9497 225.035 58.3665 242.093 66.3317C259.151 74.2968 273.282 87.4095 282.499 103.825C299.404 97.973 317.669 97.2892 334.965 101.861C352.26 106.433 367.802 116.053 379.607 129.494C391.412 142.935 398.947 159.588 401.248 177.328C403.55 195.069 400.515 213.093 392.531 229.102C387.845 243.565 378.698 256.173 366.403 265.115C354.107 274.057 339.295 278.874 324.091 278.875H311.999Z" fill="url(#paint0_linear_7_9088)"/>
<path d="M324.091 277.875C331.81 277.875 339.4 276.642 346.65 274.211C353.66 271.86 360.242 268.43 366.211 264.015C372.112 259.651 377.285 254.423 381.586 248.477C385.941 242.457 389.303 235.835 391.579 228.794L391.603 228.722L391.637 228.654C394.664 222.606 396.995 216.208 398.565 209.638C400.18 202.878 400.999 195.892 400.999 188.874C400.999 182.835 400.391 176.8 399.191 170.937C398.022 165.223 396.277 159.603 394.006 154.232C391.775 148.959 389.014 143.872 385.8 139.115C382.616 134.402 378.959 129.97 374.932 125.942C370.904 121.914 366.472 118.258 361.759 115.074C357.001 111.859 351.915 109.099 346.642 106.868C341.271 104.597 335.651 102.852 329.937 101.683C324.074 100.483 318.038 99.8745 311.999 99.8745C302 99.8745 292.185 101.52 282.826 104.766L282.037 105.04L281.627 104.311C274.011 90.7692 262.933 79.3966 249.591 71.4228C242.843 67.3902 235.594 64.274 228.045 62.1607C220.256 59.9805 212.166 58.875 203.999 58.875C193.015 58.875 182.292 60.852 172.129 64.751C162.311 68.5177 153.304 73.9587 145.359 80.923C137.46 87.8472 130.905 96.0172 125.875 105.206C120.723 114.62 117.355 124.782 115.865 135.41L115.754 136.205L114.953 136.268C105.995 136.969 97.3759 139.328 89.3358 143.278C81.5234 147.117 74.5472 152.309 68.601 158.709C56.3829 171.862 49.654 188.998 49.654 206.962C49.654 216.535 51.5288 225.822 55.2263 234.564C57.0035 238.766 59.2031 242.818 61.7642 246.609C64.3012 250.364 67.2147 253.895 70.4239 257.105C73.6331 260.314 77.1644 263.227 80.9195 265.764C84.7105 268.325 88.763 270.525 92.9646 272.302C101.706 276 110.993 277.875 120.567 277.875H311.999H324.091ZM324.091 278.875H311.999H120.567C80.8506 278.875 48.654 246.678 48.654 206.962C48.654 169.161 77.8186 138.172 114.875 135.271C121.004 91.5324 158.571 57.875 203.999 57.875C237.702 57.875 267.076 76.3981 282.499 103.821C291.741 100.616 301.666 98.8745 311.999 98.8745C361.705 98.8745 401.999 139.169 401.999 188.874C401.999 203.334 398.59 216.996 392.531 229.102C383.194 257.984 356.081 278.875 324.091 278.875Z" fill="white" fill-opacity="0.5"/>
</g>
</g>
<defs>
<filter id="filter0_f_7_9088" x="-1.52588e-05" y="2.72314" width="405.999" height="280.152" filterUnits="userSpaceOnUse" color-interpolation-filters="sRGB">
<feFlood flood-opacity="0" result="BackgroundImageFix"/>
<feBlend mode="normal" in="SourceGraphic" in2="BackgroundImageFix" result="shape"/>
<feGaussianBlur stdDeviation="2" result="effect1_foregroundBlur_7_9088"/>
</filter>
<filter id="filter1_f_7_9088" x="81.9738" y="0.0932617" width="138.879" height="135.194" filterUnits="userSpaceOnUse" color-interpolation-filters="sRGB">
<feFlood flood-opacity="0" result="BackgroundImageFix"/>
<feBlend mode="normal" in="SourceGraphic" in2="BackgroundImageFix" result="shape"/>
<feGaussianBlur stdDeviation="10" result="effect1_foregroundBlur_7_9088"/>
</filter>
<filter id="filter2_d_7_9088" x="28.654" y="29.875" width="413.345" height="281" filterUnits="userSpaceOnUse" color-interpolation-filters="sRGB">
<feFlood flood-opacity="0" result="BackgroundImageFix"/>
<feColorMatrix in="SourceAlpha" type="matrix" values="0 0 0 0 0 0 0 0 0 0 0 0 0 0 0 0 0 0 127 0" result="hardAlpha"/>
<feOffset dx="10" dy="2"/>
<feGaussianBlur stdDeviation="15"/>
<feColorMatrix type="matrix" values="0 0 0 0 0.501961 0 0 0 0 0.501961 0 0 0 0 0.501961 0 0 0 0.302 0"/>
<feBlend mode="normal" in2="BackgroundImageFix" result="effect1_dropShadow_7_9088"/>
<feBlend mode="normal" in="SourceGraphic" in2="effect1_dropShadow_7_9088" result="shape"/>
</filter>
<linearGradient id="paint0_linear_7_9088" x1="225.352" y1="57.8774" x2="327.995" y2="306.041" gradientUnits="userSpaceOnUse">
<stop stop-color="white" stop-opacity="0.604"/>
<stop offset="1" stop-color="white" stop-opacity="0.2"/>
</linearGradient>
</defs>
</svg>
