<svg width="437" height="382" viewBox="0 0 437 382" fill="none" xmlns="http://www.w3.org/2000/svg">
<g filter="url(#filter0_f_7_9918)">
<path d="M139.979 204.359C140.695 204.377 147.961 229.607 147.961 239.411C147.961 249.215 144.387 257.164 139.979 257.164C135.571 257.164 131.997 249.216 131.997 239.412C131.997 229.608 139.263 204.342 139.979 204.359Z" fill="#42A0F0"/>
<path d="M136.122 242.412C137.288 242.769 138.824 241.126 139.553 238.743C140.281 236.36 139.927 234.139 138.76 233.782C137.594 233.426 136.058 235.069 135.33 237.452C134.601 239.835 134.956 242.055 136.122 242.412Z" fill="white"/>
<path d="M195.37 204.359C196.086 204.377 203.352 229.607 203.352 239.411C203.352 249.215 199.778 257.164 195.37 257.164C190.962 257.164 187.388 249.216 187.388 239.412C187.388 229.608 194.654 204.342 195.37 204.359Z" fill="#42A0F0"/>
<path d="M191.513 242.412C192.679 242.769 194.215 241.126 194.944 238.743C195.672 236.36 195.318 234.139 194.152 233.782C192.985 233.426 191.449 235.069 190.721 237.452C189.992 239.835 190.347 242.055 191.513 242.412Z" fill="white"/>
<path d="M254.797 204.359C255.513 204.377 262.779 229.607 262.779 239.411C262.779 249.215 259.205 257.164 254.797 257.164C250.389 257.164 246.815 249.216 246.815 239.412C246.815 229.608 254.081 204.342 254.797 204.359Z" fill="#42A0F0"/>
<path d="M250.94 242.412C252.106 242.769 253.642 241.126 254.371 238.743C255.099 236.36 254.744 234.139 253.578 233.782C252.412 233.426 250.876 235.069 250.148 237.452C249.419 239.835 249.774 242.055 250.94 242.412Z" fill="white"/>
<path d="M309.684 201.359C310.4 201.377 317.666 226.607 317.666 236.411C317.666 246.215 314.092 254.164 309.684 254.164C305.276 254.164 301.702 246.216 301.702 236.412C301.702 226.608 308.968 201.342 309.684 201.359Z" fill="#42A0F0"/>
<path d="M305.827 239.412C306.993 239.769 308.529 238.126 309.258 235.743C309.986 233.36 309.632 231.139 308.466 230.782C307.299 230.426 305.763 232.069 305.035 234.452C304.306 236.835 304.661 239.055 305.827 239.412Z" fill="white"/>
<path d="M223.336 271.359C224.052 271.377 231.318 296.607 231.318 306.411C231.318 316.215 227.744 324.164 223.336 324.164C218.928 324.164 215.354 316.216 215.354 306.412C215.354 296.608 222.62 271.342 223.336 271.359Z" fill="#42A0F0"/>
<path d="M219.479 309.412C220.645 309.769 222.181 308.126 222.91 305.743C223.638 303.36 223.284 301.139 222.117 300.782C220.951 300.426 219.415 302.069 218.687 304.452C217.958 306.835 218.313 309.055 219.479 309.412Z" fill="white"/>
<path d="M282.762 271.359C283.478 271.377 290.744 296.607 290.744 306.411C290.744 316.215 287.17 324.164 282.762 324.164C278.354 324.164 274.78 316.216 274.78 306.412C274.78 296.608 282.046 271.342 282.762 271.359Z" fill="#42A0F0"/>
<path d="M278.905 309.412C280.071 309.769 281.607 308.126 282.336 305.743C283.065 303.36 282.71 301.139 281.544 300.782C280.377 300.426 278.842 302.069 278.113 304.452C277.384 306.835 277.739 309.055 278.905 309.412Z" fill="white"/>
<path d="M345.684 271.359C346.4 271.377 353.666 296.607 353.666 306.411C353.666 316.215 350.092 324.164 345.684 324.164C341.276 324.164 337.702 316.216 337.702 306.412C337.702 296.608 344.968 271.342 345.684 271.359Z" fill="#42A0F0"/>
<path d="M341.827 309.412C342.993 309.769 344.529 308.126 345.258 305.743C345.986 303.36 345.632 301.139 344.466 300.782C343.299 300.426 341.763 302.069 341.035 304.452C340.306 306.835 340.661 309.055 341.827 309.412Z" fill="white"/>
<path d="M163.91 274.359C164.626 274.377 171.892 299.607 171.892 309.411C171.892 319.215 168.318 327.164 163.91 327.164C159.502 327.164 155.928 319.216 155.928 309.412C155.928 299.608 163.194 274.342 163.91 274.359Z" fill="#42A0F0"/>
<path d="M160.053 312.412C161.219 312.769 162.755 311.126 163.484 308.743C164.213 306.36 163.858 304.139 162.692 303.782C161.525 303.426 159.989 305.069 159.261 307.452C158.532 309.835 158.887 312.055 160.053 312.412Z" fill="white"/>
<path d="M107.979 271.359C108.695 271.377 115.961 296.607 115.961 306.411C115.961 316.215 112.387 324.164 107.979 324.164C103.571 324.164 99.9971 316.216 99.9971 306.412C99.9971 296.608 107.263 271.342 107.979 271.359Z" fill="#42A0F0"/>
<path d="M104.122 309.412C105.288 309.769 106.824 308.126 107.553 305.743C108.281 303.36 107.927 301.139 106.76 300.782C105.594 300.426 104.058 302.069 103.33 304.452C102.601 306.835 102.956 309.055 104.122 309.412Z" fill="white"/>
<path d="M139.979 324.359C140.695 324.377 147.961 349.607 147.961 359.411C147.961 369.215 144.387 377.164 139.979 377.164C135.571 377.164 131.997 369.216 131.997 359.412C131.997 349.608 139.263 324.342 139.979 324.359Z" fill="#42A0F0"/>
<path d="M136.122 362.412C137.288 362.769 138.824 361.126 139.553 358.743C140.281 356.36 139.927 354.139 138.76 353.782C137.594 353.426 136.058 355.069 135.33 357.452C134.601 359.835 134.956 362.055 136.122 362.412Z" fill="white"/>
<path d="M195.37 324.359C196.086 324.377 203.352 349.607 203.352 359.411C203.352 369.215 199.778 377.164 195.37 377.164C190.962 377.164 187.388 369.216 187.388 359.412C187.388 349.608 194.654 324.342 195.37 324.359Z" fill="#42A0F0"/>
<path d="M191.513 362.412C192.679 362.769 194.215 361.126 194.944 358.743C195.672 356.36 195.318 354.139 194.152 353.782C192.985 353.426 191.449 355.069 190.721 357.452C189.992 359.835 190.347 362.055 191.513 362.412Z" fill="white"/>
<path d="M254.797 324.359C255.513 324.377 262.779 349.607 262.779 359.411C262.779 369.215 259.205 377.164 254.797 377.164C250.389 377.164 246.815 369.216 246.815 359.412C246.815 349.608 254.081 324.342 254.797 324.359Z" fill="#42A0F0"/>
<path d="M250.94 362.412C252.106 362.769 253.642 361.126 254.371 358.743C255.099 356.36 254.744 354.139 253.578 353.782C252.412 353.426 250.876 355.069 250.148 357.452C249.419 359.835 249.774 362.055 250.94 362.412Z" fill="white"/>
<path d="M309.684 324.359C310.4 324.377 317.666 349.607 317.666 359.411C317.666 369.215 314.092 377.164 309.684 377.164C305.276 377.164 301.702 369.216 301.702 359.412C301.702 349.608 308.968 324.342 309.684 324.359Z" fill="#42A0F0"/>
<path d="M305.827 362.412C306.993 362.769 308.529 361.126 309.258 358.743C309.986 356.36 309.632 354.139 308.466 353.782C307.299 353.426 305.763 355.069 305.035 357.452C304.306 359.835 304.661 362.055 305.827 362.412Z" fill="white"/>
<path d="M107.268 6.72311C114.278 6.72136 121.27 7.42963 128.137 8.83711C141.39 11.5668 153.974 16.8888 165.164 24.4971C180.667 35.0048 193.053 49.4945 201.021 66.4436C208.989 83.3926 212.244 102.175 210.444 120.817C208.644 139.458 201.856 157.271 190.793 172.383C179.73 187.495 164.801 199.347 147.574 206.695C141.312 209.356 134.8 211.388 128.136 212.76C113.685 215.69 98.7754 215.508 84.4005 212.224C70.0257 208.941 56.5155 202.632 44.77 193.718C33.0244 184.804 23.3132 173.489 16.2832 160.528C9.25319 147.566 5.06578 133.256 3.99992 118.549C15.3314 121.201 27.1023 121.372 38.5059 119.049C48.7389 116.953 58.4592 112.863 67.1119 107.012C79.9742 98.3288 90.0422 86.1017 96.0959 71.8121C98.1414 66.9726 99.7027 61.9424 100.757 56.7951C103.004 45.7664 102.921 34.3898 100.513 23.3951C99.3016 17.8974 97.5102 12.5437 95.1689 7.42412C99.185 6.95677 103.225 6.7227 107.268 6.72311Z" fill="#713FFD"/>
<g filter="url(#filter1_f_7_9918)">
<path d="M177.339 38.8959C154.095 17.9664 123.644 13.8911 109.325 29.7936C95.0067 45.696 102.243 75.5542 125.487 96.4837C148.732 117.413 179.183 121.488 193.501 105.586C207.82 89.6836 200.584 59.8254 177.339 38.8959Z" fill="#A586FC"/>
</g>
<g filter="url(#filter2_d_7_9918)">
<path d="M306.346 282.002H114.914C96.3436 281.988 78.4986 274.791 65.1147 261.917C51.7308 249.044 43.8457 231.492 43.1102 212.936C42.3747 194.38 48.8457 176.259 61.1687 162.366C73.4916 148.473 90.711 139.886 109.222 138.402C111.862 119.762 120.279 102.419 133.29 88.8123C146.3 75.2056 163.249 66.0204 181.753 62.5488C200.256 59.0772 219.382 61.4939 236.44 69.4591C253.498 77.4243 267.629 90.537 276.846 106.952C293.751 101.101 312.016 100.417 329.311 104.988C346.606 109.559 362.147 119.179 373.953 132.619C385.758 146.06 393.293 162.712 395.595 180.452C397.897 198.193 394.863 216.217 386.88 232.225C382.195 246.69 373.048 259.299 360.752 268.242C348.456 277.185 333.642 282.002 318.438 282.002H306.346Z" fill="url(#paint0_linear_7_9918)"/>
<path d="M318.438 281.001C326.158 281.001 333.749 279.769 340.999 277.338C348.01 274.987 354.591 271.556 360.561 267.141C366.463 262.777 371.636 257.549 375.937 251.602C380.291 245.582 383.653 238.959 385.928 231.917L385.952 231.845L385.986 231.777C389.012 225.73 391.342 219.332 392.912 212.763C394.527 206.002 395.346 199.017 395.346 192.001C395.346 185.962 394.738 179.927 393.538 174.064C392.369 168.35 390.624 162.73 388.353 157.359C386.122 152.086 383.362 146.999 380.147 142.242C376.963 137.529 373.307 133.097 369.279 129.069C365.251 125.041 360.82 121.385 356.107 118.201C351.349 114.986 346.262 112.226 340.989 109.995C335.618 107.724 329.998 105.979 324.284 104.81C318.421 103.61 312.386 103.001 306.346 103.001C296.347 103.001 286.532 104.647 277.173 107.893L276.384 108.167L275.974 107.438C268.358 93.8963 257.28 82.5236 243.938 74.5498C237.19 70.5172 229.941 67.401 222.392 65.2877C214.603 63.1074 206.513 62.002 198.346 62.002C187.362 62.002 176.639 63.979 166.476 67.878C156.658 71.6446 147.651 77.0857 139.706 84.05C131.807 90.9742 125.252 99.1441 120.222 108.333C115.069 117.747 111.702 127.909 110.212 138.537L110.101 139.332L109.3 139.395C100.342 140.096 91.7229 142.455 83.6828 146.405C75.8703 150.244 68.8942 155.435 62.948 161.836C50.7298 174.989 44.001 192.125 44.001 210.089C44.001 219.662 45.8757 228.949 49.5732 237.691C51.3504 241.892 53.5501 245.945 56.1112 249.736C58.6482 253.491 61.5617 257.022 64.7709 260.232C67.9801 263.441 71.5113 266.354 75.2665 268.891C79.0574 271.452 83.11 273.652 87.3116 275.429C96.0534 279.127 105.34 281.001 114.914 281.001H306.346H318.438ZM318.438 282.001H306.346H114.914C75.1976 282.001 43.001 249.805 43.001 210.089C43.001 172.288 72.1656 141.299 109.222 138.398C115.351 94.6593 152.918 61.002 198.346 61.002C232.048 61.002 261.423 79.5252 276.846 106.948C286.088 103.743 296.013 102.001 306.346 102.001C356.052 102.001 396.346 142.296 396.346 192.001C396.346 206.458 392.937 220.12 386.88 232.225C377.545 261.11 350.432 282.001 318.438 282.001Z" fill="white" fill-opacity="0.5"/>
</g>
</g>
<defs>
<filter id="filter0_f_7_9918" x="0" y="2.72266" width="400.346" height="378.441" filterUnits="userSpaceOnUse" color-interpolation-filters="sRGB">
<feFlood flood-opacity="0" result="BackgroundImageFix"/>
<feBlend mode="normal" in="SourceGraphic" in2="BackgroundImageFix" result="shape"/>
<feGaussianBlur stdDeviation="2" result="effect1_foregroundBlur_7_9918"/>
</filter>
<filter id="filter1_f_7_9918" x="81.9741" y="0.0927734" width="138.878" height="135.193" filterUnits="userSpaceOnUse" color-interpolation-filters="sRGB">
<feFlood flood-opacity="0" result="BackgroundImageFix"/>
<feBlend mode="normal" in="SourceGraphic" in2="BackgroundImageFix" result="shape"/>
<feGaussianBlur stdDeviation="10" result="effect1_foregroundBlur_7_9918"/>
</filter>
<filter id="filter2_d_7_9918" x="23.001" y="33.002" width="413.345" height="281" filterUnits="userSpaceOnUse" color-interpolation-filters="sRGB">
<feFlood flood-opacity="0" result="BackgroundImageFix"/>
<feColorMatrix in="SourceAlpha" type="matrix" values="0 0 0 0 0 0 0 0 0 0 0 0 0 0 0 0 0 0 127 0" result="hardAlpha"/>
<feOffset dx="10" dy="2"/>
<feGaussianBlur stdDeviation="15"/>
<feColorMatrix type="matrix" values="0 0 0 0 0.501961 0 0 0 0 0.501961 0 0 0 0 0.501961 0 0 0 0.302 0"/>
<feBlend mode="normal" in2="BackgroundImageFix" result="effect1_dropShadow_7_9918"/>
<feBlend mode="normal" in="SourceGraphic" in2="effect1_dropShadow_7_9918" result="shape"/>
</filter>
<linearGradient id="paint0_linear_7_9918" x1="219.699" y1="61.0049" x2="322.342" y2="309.169" gradientUnits="userSpaceOnUse">
<stop stop-color="white" stop-opacity="0.604"/>
<stop offset="1" stop-color="white" stop-opacity="0.2"/>
</linearGradient>
</defs>
</svg>
