<svg width="424" height="379" viewBox="0 0 424 379" fill="none" xmlns="http://www.w3.org/2000/svg">
<g filter="url(#filter0_f_7_9464)">
<path d="M108.148 214.763C162.548 214.763 206.648 170.439 206.648 115.763C206.648 61.087 162.548 16.7632 108.148 16.7632C53.7479 16.7632 9.64795 61.087 9.64795 115.763C9.64795 170.439 53.7479 214.763 108.148 214.763Z" fill="#FA9E42"/>
<g filter="url(#filter1_f_7_9464)">
<path d="M101.03 101.684C133.767 84.2962 152.077 54.7094 141.928 35.6002C131.778 16.4909 97.0115 15.0954 64.2749 32.4833C31.5383 49.8712 13.228 79.4579 23.3778 98.5672C33.5275 117.676 68.2938 119.072 101.03 101.684Z" fill="#F8E36F"/>
</g>
<path d="M163.613 211.403C167.526 211.447 207.226 273.432 207.226 297.519C207.226 309.086 202.631 320.179 194.452 328.358C186.273 336.537 175.18 341.132 163.613 341.132C152.046 341.132 140.953 336.537 132.774 328.358C124.595 320.179 120 309.086 120 297.519C120 273.432 159.7 211.36 163.613 211.403Z" fill="#42A0F0"/>
<path d="M130.36 313.822C134.718 315.154 140.256 309.673 142.731 301.58C145.205 293.486 143.678 285.845 139.321 284.513C134.963 283.181 129.424 288.662 126.95 296.755C124.475 304.848 126.002 312.489 130.36 313.822Z" fill="white"/>
<path d="M266.359 293.145C268.824 293.174 293.839 332.229 293.839 347.406C293.795 354.666 290.881 361.613 285.732 366.731C280.583 371.849 273.618 374.721 266.358 374.721C259.099 374.721 252.134 371.849 246.985 366.731C241.836 361.613 238.922 354.666 238.878 347.406C238.878 332.229 263.893 293.118 266.359 293.145Z" fill="#42A0F0"/>
<path d="M245.406 357.678C248.152 358.518 251.642 355.064 253.201 349.965C254.76 344.866 253.798 340.051 251.052 339.212C248.306 338.372 244.816 341.826 243.257 346.925C241.698 352.024 242.66 356.839 245.406 357.678Z" fill="white"/>
<g filter="url(#filter2_d_7_9464)">
<path d="M293.345 283.937H101.913C83.3426 283.923 65.4976 276.726 52.1137 263.852C38.7298 250.978 30.8447 233.426 30.1092 214.87C29.3737 196.314 35.8448 178.193 48.1677 164.301C60.4906 150.408 77.71 141.821 96.221 140.337C98.8608 121.697 107.278 104.354 120.289 90.7469C133.299 77.1402 150.248 67.9549 168.752 64.4833C187.255 61.0117 206.381 63.4285 223.439 71.3937C240.497 79.3589 254.628 92.4715 263.845 108.887C280.75 103.035 299.015 102.351 316.31 106.923C333.605 111.494 349.146 121.113 360.952 134.554C372.757 147.994 380.292 164.647 382.594 182.387C384.896 200.127 381.862 218.151 373.879 234.16C369.194 248.625 360.047 261.233 347.751 270.176C335.455 279.119 320.641 283.937 305.437 283.937H293.345Z" fill="url(#paint0_linear_7_9464)"/>
<path d="M305.437 282.937C313.157 282.937 320.748 281.704 327.998 279.273C335.009 276.922 341.59 273.491 347.56 269.076C353.462 264.712 358.635 259.484 362.936 253.537C367.29 247.517 370.652 240.894 372.928 233.852L372.951 233.78L372.985 233.712C376.011 227.665 378.341 221.267 379.911 214.698C381.526 207.937 382.345 200.952 382.345 193.937C382.345 187.897 381.737 181.862 380.537 175.999C379.368 170.285 377.623 164.665 375.352 159.294C373.121 154.021 370.361 148.935 367.146 144.177C363.962 139.464 360.306 135.032 356.278 131.004C352.25 126.976 347.819 123.32 343.106 120.136C338.348 116.921 333.261 114.161 327.988 111.93C322.617 109.659 316.997 107.914 311.283 106.745C305.42 105.545 299.385 104.937 293.345 104.937C283.346 104.937 273.531 106.582 264.172 109.828L263.383 110.102L262.973 109.373C255.357 95.8313 244.279 84.4587 230.937 76.4849C224.189 72.4523 216.94 69.3361 209.391 67.2227C201.602 65.0425 193.512 63.937 185.345 63.937C174.361 63.937 163.638 65.914 153.475 69.8131C143.657 73.5797 134.65 79.0207 126.705 85.985C118.806 92.9092 112.251 101.079 107.221 110.268C102.069 119.682 98.7006 129.844 97.2113 140.472L97.0998 141.267L96.299 141.33C87.3408 142.031 78.7219 144.39 70.6818 148.34C62.8694 152.179 55.8932 157.371 49.947 163.771C37.7289 176.924 31 194.06 31 212.024C31 221.597 32.8748 230.884 36.5723 239.626C38.3495 243.828 40.5491 247.88 43.1102 251.671C45.6472 255.426 48.5607 258.957 51.7699 262.167C54.9791 265.376 58.5104 268.289 62.2655 270.826C66.0565 273.387 70.109 275.587 74.3106 277.364C83.0525 281.062 92.3391 282.937 101.913 282.937H293.345H305.437ZM305.437 283.937H293.345H101.913C62.1966 283.937 30 251.74 30 212.024C30 174.223 59.1646 143.234 96.221 140.333C102.35 96.5944 139.917 62.937 185.345 62.937C219.048 62.937 248.422 81.4602 263.845 108.883C273.087 105.678 283.012 103.937 293.345 103.937C343.051 103.937 383.345 144.231 383.345 193.937C383.345 208.393 379.936 222.055 373.879 234.16C364.544 263.045 337.431 283.937 305.437 283.937Z" fill="white" fill-opacity="0.5"/>
</g>
</g>
<defs>
<filter id="filter0_f_7_9464" x="5.64795" y="12.7632" width="381.697" height="365.958" filterUnits="userSpaceOnUse" color-interpolation-filters="sRGB">
<feFlood flood-opacity="0" result="BackgroundImageFix"/>
<feBlend mode="normal" in="SourceGraphic" in2="BackgroundImageFix" result="shape"/>
<feGaussianBlur stdDeviation="2" result="effect1_foregroundBlur_7_9464"/>
</filter>
<filter id="filter1_f_7_9464" x="0.577637" y="0.303223" width="164.15" height="133.561" filterUnits="userSpaceOnUse" color-interpolation-filters="sRGB">
<feFlood flood-opacity="0" result="BackgroundImageFix"/>
<feBlend mode="normal" in="SourceGraphic" in2="BackgroundImageFix" result="shape"/>
<feGaussianBlur stdDeviation="10" result="effect1_foregroundBlur_7_9464"/>
</filter>
<filter id="filter2_d_7_9464" x="10" y="34.937" width="413.345" height="281" filterUnits="userSpaceOnUse" color-interpolation-filters="sRGB">
<feFlood flood-opacity="0" result="BackgroundImageFix"/>
<feColorMatrix in="SourceAlpha" type="matrix" values="0 0 0 0 0 0 0 0 0 0 0 0 0 0 0 0 0 0 127 0" result="hardAlpha"/>
<feOffset dx="10" dy="2"/>
<feGaussianBlur stdDeviation="15"/>
<feColorMatrix type="matrix" values="0 0 0 0 0.501961 0 0 0 0 0.501961 0 0 0 0 0.501961 0 0 0 0.302 0"/>
<feBlend mode="normal" in2="BackgroundImageFix" result="effect1_dropShadow_7_9464"/>
<feBlend mode="normal" in="SourceGraphic" in2="effect1_dropShadow_7_9464" result="shape"/>
</filter>
<linearGradient id="paint0_linear_7_9464" x1="206.698" y1="62.9395" x2="309.341" y2="311.103" gradientUnits="userSpaceOnUse">
<stop stop-color="white" stop-opacity="0.604"/>
<stop offset="1" stop-color="white" stop-opacity="0.2"/>
</linearGradient>
</defs>
</svg>
