<svg width="424" height="350" viewBox="0 0 424 350" fill="none" xmlns="http://www.w3.org/2000/svg">
<g filter="url(#filter0_f_7_9854)">
<path d="M108.819 293.001C110.419 293.019 126.637 318.342 126.637 328.183C126.637 332.909 124.76 337.441 121.418 340.782C118.077 344.124 113.545 346.001 108.819 346.001C104.093 346.001 99.5613 344.124 96.2197 340.782C92.8782 337.441 91.001 332.909 91.001 328.183C91.001 318.343 107.22 292.983 108.819 293.001Z" fill="#42A0F0"/>
<path d="M95.2341 334.842C97.0145 335.387 99.2772 333.148 100.288 329.841C101.299 326.535 100.675 323.414 98.8946 322.869C97.1142 322.325 94.8515 324.564 93.8407 327.87C92.8298 331.176 93.4537 334.298 95.2341 334.842Z" fill="white"/>
<path d="M201.819 293.001C203.419 293.019 219.637 318.342 219.637 328.183C219.637 332.909 217.76 337.441 214.418 340.782C211.077 344.124 206.545 346.001 201.819 346.001C197.093 346.001 192.561 344.124 189.22 340.782C185.878 337.441 184.001 332.909 184.001 328.183C184.001 318.343 200.22 292.983 201.819 293.001Z" fill="#42A0F0"/>
<path d="M188.234 334.842C190.015 335.387 192.277 333.148 193.288 329.841C194.299 326.535 193.675 323.414 191.895 322.869C190.114 322.325 187.851 324.564 186.841 327.87C185.83 331.176 186.454 334.298 188.234 334.842Z" fill="white"/>
<path d="M294.819 293.001C296.419 293.019 312.637 318.342 312.637 328.183C312.637 332.909 310.76 337.441 307.418 340.782C304.077 344.124 299.545 346.001 294.819 346.001C290.093 346.001 285.561 344.124 282.22 340.782C278.878 337.441 277.001 332.909 277.001 328.183C277.001 318.343 293.22 292.983 294.819 293.001Z" fill="#42A0F0"/>
<path d="M281.234 334.842C283.015 335.387 285.277 333.148 286.288 329.841C287.299 326.535 286.675 323.414 284.895 322.869C283.114 322.325 280.851 324.564 279.841 327.87C278.83 331.176 279.454 334.298 281.234 334.842Z" fill="white"/>
<path d="M155.819 215.001C157.419 215.019 173.637 240.342 173.637 250.183C173.637 254.909 171.76 259.441 168.418 262.782C165.077 266.124 160.545 268.001 155.819 268.001C151.093 268.001 146.561 266.124 143.22 262.782C139.878 259.441 138.001 254.909 138.001 250.183C138.001 240.343 154.22 214.983 155.819 215.001Z" fill="#42A0F0"/>
<path d="M142.234 256.842C144.015 257.387 146.277 255.148 147.288 251.841C148.299 248.535 147.675 245.414 145.895 244.869C144.114 244.325 141.851 246.564 140.841 249.87C139.83 253.176 140.454 256.298 142.234 256.842Z" fill="white"/>
<path d="M253.819 215.001C255.419 215.019 271.637 240.342 271.637 250.183C271.637 254.909 269.76 259.441 266.418 262.782C263.077 266.124 258.545 268.001 253.819 268.001C249.093 268.001 244.561 266.124 241.22 262.782C237.878 259.441 236.001 254.909 236.001 250.183C236.001 240.343 252.22 214.983 253.819 215.001Z" fill="#42A0F0"/>
<path d="M240.234 256.842C242.015 257.387 244.277 255.148 245.288 251.841C246.299 248.535 245.675 245.414 243.895 244.869C242.114 244.325 239.851 246.564 238.841 249.87C237.83 253.176 238.454 256.298 240.234 256.842Z" fill="white"/>
<path d="M107.268 6.72311C114.278 6.72136 121.27 7.42963 128.137 8.83711C141.39 11.5668 153.974 16.8888 165.164 24.4971C180.667 35.0048 193.053 49.4945 201.021 66.4436C208.989 83.3926 212.244 102.175 210.444 120.817C208.644 139.458 201.856 157.271 190.793 172.383C179.73 187.495 164.801 199.347 147.574 206.695C141.312 209.356 134.8 211.388 128.136 212.76C113.685 215.69 98.7754 215.508 84.4005 212.224C70.0257 208.941 56.5155 202.632 44.77 193.718C33.0244 184.804 23.3132 173.489 16.2832 160.528C9.25319 147.566 5.06578 133.256 3.99992 118.549C15.3314 121.201 27.1023 121.372 38.5059 119.049C48.7389 116.953 58.4592 112.863 67.1119 107.012C79.9742 98.3288 90.0422 86.1017 96.0959 71.8121C98.1414 66.9726 99.7027 61.9424 100.757 56.7951C103.004 45.7664 102.921 34.3898 100.513 23.3951C99.3016 17.8974 97.5102 12.5437 95.1689 7.42412C99.185 6.95677 103.225 6.7227 107.268 6.72311Z" fill="#713FFD"/>
<g filter="url(#filter1_f_7_9854)">
<path d="M177.339 38.8964C154.095 17.9669 123.644 13.8916 109.325 29.7941C95.0067 45.6965 102.243 75.5547 125.487 96.4842C148.732 117.414 179.183 121.489 193.501 105.586C207.82 89.6841 200.584 59.8259 177.339 38.8964Z" fill="#A586FC"/>
</g>
<g filter="url(#filter2_d_7_9854)">
<path d="M293.999 282.002H102.567C83.9964 281.988 66.1514 274.791 52.7675 261.917C39.3836 249.044 31.4985 231.492 30.763 212.936C30.0275 194.38 36.4986 176.259 48.8215 162.366C61.1444 148.473 78.3638 139.886 96.8749 138.402C99.5146 119.762 107.932 102.419 120.943 88.8123C133.953 75.2056 150.902 66.0204 169.405 62.5488C187.909 59.0772 207.034 61.4939 224.092 69.4591C241.15 77.4243 255.282 90.537 264.499 106.952C281.404 101.1 299.669 100.417 316.965 104.988C334.26 109.56 349.802 119.18 361.607 132.621C373.412 146.062 380.946 162.715 383.248 180.456C385.55 198.196 382.515 216.221 374.531 232.229C369.845 246.693 360.698 259.3 348.403 268.242C336.107 277.184 321.294 282.002 306.091 282.002H293.999Z" fill="url(#paint0_linear_7_9854)"/>
<path d="M306.091 281.002C313.81 281.002 321.4 279.769 328.65 277.338C335.66 274.988 342.241 271.557 348.211 267.142C354.112 262.778 359.285 257.551 363.586 251.605C367.941 245.585 371.303 238.962 373.579 231.922L373.602 231.849L373.636 231.782C376.664 225.734 378.994 219.336 380.565 212.766C382.18 206.005 382.999 199.019 382.999 192.002C382.999 185.963 382.391 179.928 381.191 174.064C380.022 168.351 378.277 162.73 376.005 157.36C373.775 152.086 371.014 147 367.8 142.242C364.616 137.529 360.959 133.097 356.932 129.07C352.904 125.042 348.472 121.385 343.759 118.201C339.001 114.987 333.915 112.226 328.642 109.996C323.271 107.724 317.651 105.979 311.937 104.81C306.073 103.61 300.038 103.002 293.999 103.002C284 103.002 274.184 104.648 264.826 107.893L264.036 108.167L263.627 107.439C256.011 93.8967 244.933 82.5241 231.591 74.5503C224.843 70.5177 217.594 67.4014 210.044 65.2881C202.256 63.1079 194.166 62.0024 185.999 62.0024C175.014 62.0024 164.292 63.9794 154.129 67.8785C144.31 71.6451 135.304 77.0862 127.359 84.0504C119.46 90.9747 112.904 99.1446 107.875 108.333C102.722 117.748 99.3544 127.91 97.8651 138.537L97.7536 139.333L96.9528 139.396C87.9946 140.097 79.3757 142.455 71.3356 146.406C63.5232 150.244 56.547 155.436 50.6008 161.837C38.3827 174.989 31.6538 192.126 31.6538 210.089C31.6538 219.663 33.5286 228.949 37.2261 237.691C39.0033 241.893 41.2029 245.946 43.764 249.736C46.301 253.492 49.2145 257.023 52.4237 260.232C55.6329 263.441 59.1642 266.355 62.9193 268.892C66.7103 271.453 70.7628 273.653 74.9644 275.43C83.7063 279.127 92.9929 281.002 102.566 281.002H293.999H306.091ZM306.091 282.002H293.999H102.566C62.8504 282.002 30.6538 249.805 30.6538 210.089C30.6538 172.288 59.8184 141.299 96.8748 138.399C103.004 94.6598 140.571 61.0024 185.999 61.0024C219.701 61.0024 249.076 79.5256 264.498 106.948C273.741 103.743 283.666 102.002 293.999 102.002C343.704 102.002 383.999 142.297 383.999 192.002C383.999 206.461 380.59 220.123 374.531 232.229C365.194 261.111 338.081 282.002 306.091 282.002Z" fill="white" fill-opacity="0.5"/>
</g>
</g>
<defs>
<filter id="filter0_f_7_9854" x="0" y="2.72314" width="387.999" height="347.278" filterUnits="userSpaceOnUse" color-interpolation-filters="sRGB">
<feFlood flood-opacity="0" result="BackgroundImageFix"/>
<feBlend mode="normal" in="SourceGraphic" in2="BackgroundImageFix" result="shape"/>
<feGaussianBlur stdDeviation="2" result="effect1_foregroundBlur_7_9854"/>
</filter>
<filter id="filter1_f_7_9854" x="81.9741" y="0.0932617" width="138.878" height="135.194" filterUnits="userSpaceOnUse" color-interpolation-filters="sRGB">
<feFlood flood-opacity="0" result="BackgroundImageFix"/>
<feBlend mode="normal" in="SourceGraphic" in2="BackgroundImageFix" result="shape"/>
<feGaussianBlur stdDeviation="10" result="effect1_foregroundBlur_7_9854"/>
</filter>
<filter id="filter2_d_7_9854" x="10.6538" y="33.0024" width="413.345" height="281" filterUnits="userSpaceOnUse" color-interpolation-filters="sRGB">
<feFlood flood-opacity="0" result="BackgroundImageFix"/>
<feColorMatrix in="SourceAlpha" type="matrix" values="0 0 0 0 0 0 0 0 0 0 0 0 0 0 0 0 0 0 127 0" result="hardAlpha"/>
<feOffset dx="10" dy="2"/>
<feGaussianBlur stdDeviation="15"/>
<feColorMatrix type="matrix" values="0 0 0 0 0.501961 0 0 0 0 0.501961 0 0 0 0 0.501961 0 0 0 0.302 0"/>
<feBlend mode="normal" in2="BackgroundImageFix" result="effect1_dropShadow_7_9854"/>
<feBlend mode="normal" in="SourceGraphic" in2="effect1_dropShadow_7_9854" result="shape"/>
</filter>
<linearGradient id="paint0_linear_7_9854" x1="207.352" y1="61.0049" x2="309.994" y2="309.169" gradientUnits="userSpaceOnUse">
<stop stop-color="white" stop-opacity="0.604"/>
<stop offset="1" stop-color="white" stop-opacity="0.2"/>
</linearGradient>
</defs>
</svg>
