<svg width="424" height="382" viewBox="0 0 424 382" fill="none" xmlns="http://www.w3.org/2000/svg">
<g filter="url(#filter0_f_7_9545)">
<path d="M108.148 214.763C162.548 214.763 206.648 170.439 206.648 115.763C206.648 61.0865 162.548 16.7627 108.148 16.7627C53.7479 16.7627 9.64795 61.0865 9.64795 115.763C9.64795 170.439 53.7479 214.763 108.148 214.763Z" fill="#FA9E42"/>
<g filter="url(#filter1_f_7_9545)">
<path d="M101.03 101.684C133.767 84.2962 152.077 54.7094 141.928 35.6002C131.778 16.4909 97.0115 15.0954 64.2749 32.4833C31.5383 49.8712 13.228 79.4579 23.3778 98.5672C33.5275 117.676 68.2938 119.072 101.03 101.684Z" fill="#F8E36F"/>
</g>
<path d="M126.978 204.294C127.694 204.312 134.96 229.542 134.96 239.346C134.96 249.15 131.386 257.099 126.978 257.099C122.57 257.099 118.996 249.151 118.996 239.347C118.996 229.543 126.262 204.277 126.978 204.294Z" fill="#42A0F0"/>
<path d="M123.121 242.347C124.287 242.703 125.823 241.06 126.552 238.677C127.28 236.294 126.926 234.073 125.759 233.717C124.593 233.36 123.057 235.003 122.329 237.386C121.6 239.769 121.955 241.99 123.121 242.347Z" fill="white"/>
<path d="M182.369 204.294C183.085 204.312 190.351 229.542 190.351 239.346C190.351 249.15 186.777 257.099 182.369 257.099C177.961 257.099 174.387 249.151 174.387 239.347C174.387 229.543 181.653 204.277 182.369 204.294Z" fill="#42A0F0"/>
<path d="M178.512 242.347C179.678 242.703 181.214 241.06 181.943 238.677C182.671 236.294 182.317 234.073 181.151 233.717C179.984 233.36 178.448 235.003 177.72 237.386C176.991 239.769 177.346 241.99 178.512 242.347Z" fill="white"/>
<path d="M241.796 204.294C242.512 204.312 249.778 229.542 249.778 239.346C249.778 249.15 246.204 257.099 241.796 257.099C237.388 257.099 233.814 249.151 233.814 239.347C233.814 229.543 241.08 204.277 241.796 204.294Z" fill="#42A0F0"/>
<path d="M237.939 242.347C239.105 242.703 240.641 241.06 241.37 238.677C242.098 236.294 241.744 234.073 240.577 233.717C239.411 233.36 237.875 235.003 237.147 237.386C236.418 239.769 236.773 241.99 237.939 242.347Z" fill="white"/>
<path d="M296.683 201.294C297.399 201.312 304.665 226.542 304.665 236.346C304.665 246.15 301.091 254.099 296.683 254.099C292.275 254.099 288.701 246.151 288.701 236.347C288.701 226.543 295.967 201.277 296.683 201.294Z" fill="#42A0F0"/>
<path d="M292.826 239.347C293.992 239.703 295.528 238.06 296.257 235.677C296.985 233.294 296.631 231.073 295.465 230.717C294.298 230.36 292.762 232.003 292.034 234.386C291.305 236.769 291.66 238.99 292.826 239.347Z" fill="white"/>
<path d="M210.335 271.294C211.051 271.312 218.317 296.542 218.317 306.346C218.317 316.15 214.743 324.099 210.335 324.099C205.927 324.099 202.353 316.151 202.353 306.347C202.353 296.543 209.619 271.277 210.335 271.294Z" fill="#42A0F0"/>
<path d="M206.478 309.347C207.644 309.703 209.18 308.06 209.909 305.677C210.637 303.294 210.283 301.073 209.116 300.717C207.95 300.36 206.414 302.003 205.686 304.386C204.957 306.769 205.312 308.99 206.478 309.347Z" fill="white"/>
<path d="M269.761 271.294C270.477 271.312 277.743 296.542 277.743 306.346C277.743 316.15 274.169 324.099 269.761 324.099C265.353 324.099 261.779 316.151 261.779 306.347C261.779 296.543 269.045 271.277 269.761 271.294Z" fill="#42A0F0"/>
<path d="M265.904 309.347C267.07 309.703 268.606 308.06 269.335 305.677C270.064 303.294 269.709 301.073 268.543 300.717C267.377 300.36 265.841 302.003 265.112 304.386C264.383 306.769 264.738 308.99 265.904 309.347Z" fill="white"/>
<path d="M332.683 271.294C333.399 271.312 340.665 296.542 340.665 306.346C340.665 316.15 337.091 324.099 332.683 324.099C328.275 324.099 324.701 316.151 324.701 306.347C324.701 296.543 331.967 271.277 332.683 271.294Z" fill="#42A0F0"/>
<path d="M328.826 309.347C329.992 309.703 331.528 308.06 332.257 305.677C332.985 303.294 332.631 301.073 331.465 300.717C330.298 300.36 328.762 302.003 328.034 304.386C327.305 306.769 327.66 308.99 328.826 309.347Z" fill="white"/>
<path d="M150.909 274.294C151.625 274.312 158.891 299.542 158.891 309.346C158.891 319.15 155.317 327.099 150.909 327.099C146.501 327.099 142.927 319.151 142.927 309.347C142.927 299.543 150.193 274.277 150.909 274.294Z" fill="#42A0F0"/>
<path d="M147.052 312.347C148.218 312.703 149.754 311.06 150.483 308.677C151.212 306.294 150.857 304.073 149.691 303.717C148.524 303.36 146.988 305.003 146.26 307.386C145.531 309.769 145.886 311.99 147.052 312.347Z" fill="white"/>
<path d="M94.9781 271.294C95.6941 271.312 102.96 296.542 102.96 306.346C102.96 316.15 99.3861 324.099 94.9781 324.099C90.5701 324.099 86.9961 316.151 86.9961 306.347C86.9961 296.543 94.2621 271.277 94.9781 271.294Z" fill="#42A0F0"/>
<path d="M91.1211 309.347C92.2873 309.703 93.8232 308.06 94.5518 305.677C95.2804 303.294 94.9256 301.073 93.7595 300.717C92.5933 300.36 91.0573 302.003 90.3288 304.386C89.6002 306.769 89.9549 308.99 91.1211 309.347Z" fill="white"/>
<path d="M126.978 324.294C127.694 324.312 134.96 349.542 134.96 359.346C134.96 369.15 131.386 377.099 126.978 377.099C122.57 377.099 118.996 369.151 118.996 359.347C118.996 349.543 126.262 324.277 126.978 324.294Z" fill="#42A0F0"/>
<path d="M123.121 362.347C124.287 362.703 125.823 361.06 126.552 358.677C127.28 356.294 126.926 354.073 125.759 353.717C124.593 353.36 123.057 355.003 122.329 357.386C121.6 359.769 121.955 361.99 123.121 362.347Z" fill="white"/>
<path d="M182.369 324.294C183.085 324.312 190.351 349.542 190.351 359.346C190.351 369.15 186.777 377.099 182.369 377.099C177.961 377.099 174.387 369.151 174.387 359.347C174.387 349.543 181.653 324.277 182.369 324.294Z" fill="#42A0F0"/>
<path d="M178.512 362.347C179.678 362.703 181.214 361.06 181.943 358.677C182.671 356.294 182.317 354.073 181.151 353.717C179.984 353.36 178.448 355.003 177.72 357.386C176.991 359.769 177.346 361.99 178.512 362.347Z" fill="white"/>
<path d="M241.796 324.294C242.512 324.312 249.778 349.542 249.778 359.346C249.778 369.15 246.204 377.099 241.796 377.099C237.388 377.099 233.814 369.151 233.814 359.347C233.814 349.543 241.08 324.277 241.796 324.294Z" fill="#42A0F0"/>
<path d="M237.939 362.347C239.105 362.703 240.641 361.06 241.37 358.677C242.098 356.294 241.744 354.073 240.577 353.717C239.411 353.36 237.875 355.003 237.147 357.386C236.418 359.769 236.773 361.99 237.939 362.347Z" fill="white"/>
<path d="M296.683 324.294C297.399 324.312 304.665 349.542 304.665 359.346C304.665 369.15 301.091 377.099 296.683 377.099C292.275 377.099 288.701 369.151 288.701 359.347C288.701 349.543 295.967 324.277 296.683 324.294Z" fill="#42A0F0"/>
<path d="M292.826 362.347C293.992 362.703 295.528 361.06 296.257 358.677C296.985 356.294 296.631 354.073 295.465 353.717C294.298 353.36 292.762 355.003 292.034 357.386C291.305 359.769 291.66 361.99 292.826 362.347Z" fill="white"/>
<g filter="url(#filter2_d_7_9545)">
<path d="M293.345 281.937H101.913C83.3426 281.923 65.4976 274.726 52.1137 261.852C38.7298 248.978 30.8447 231.426 30.1092 212.87C29.3737 194.314 35.8448 176.193 48.1677 162.301C60.4906 148.408 77.71 139.821 96.221 138.337C98.8608 119.697 107.278 102.354 120.289 88.7469C133.299 75.1402 150.248 65.9549 168.752 62.4833C187.255 59.0117 206.381 61.4285 223.439 69.3937C240.497 77.3589 254.628 90.4715 263.845 106.887C280.75 101.035 299.015 100.351 316.31 104.923C333.605 109.494 349.146 119.113 360.952 132.554C372.757 145.994 380.292 162.647 382.594 180.387C384.896 198.127 381.862 216.151 373.879 232.16C369.194 246.625 360.047 259.233 347.751 268.176C335.455 277.119 320.641 281.937 305.437 281.937H293.345Z" fill="url(#paint0_linear_7_9545)"/>
<path d="M305.437 280.936C313.157 280.936 320.748 279.703 327.998 277.272C335.009 274.921 341.59 271.491 347.56 267.076C353.462 262.711 358.635 257.483 362.936 251.537C367.29 245.516 370.652 238.893 372.928 231.852L372.951 231.779L372.985 231.712C376.011 225.664 378.341 219.267 379.911 212.697C381.526 205.937 382.345 198.952 382.345 191.936C382.345 185.897 381.737 179.862 380.537 173.998C379.368 168.285 377.623 162.664 375.352 157.294C373.121 152.02 370.361 146.934 367.146 142.176C363.962 137.463 360.306 133.031 356.278 129.004C352.25 124.976 347.819 121.319 343.106 118.135C338.348 114.921 333.261 112.16 327.988 109.93C322.617 107.658 316.997 105.913 311.283 104.744C305.42 103.544 299.385 102.936 293.345 102.936C283.346 102.936 273.531 104.582 264.172 107.827L263.383 108.101L262.973 107.373C255.357 93.8308 244.279 82.4582 230.937 74.4844C224.189 70.4518 216.94 67.3356 209.391 65.2223C201.602 63.042 193.512 61.9365 185.345 61.9365C174.361 61.9365 163.638 63.9135 153.475 67.8126C143.657 71.5792 134.65 77.0203 126.705 83.9845C118.806 90.9088 112.251 99.0787 107.221 108.267C102.069 117.682 98.7006 127.844 97.2113 138.471L97.0998 139.267L96.299 139.33C87.3408 140.031 78.7219 142.389 70.6818 146.34C62.8694 150.178 55.8932 155.37 49.947 161.771C37.7289 174.923 31 192.06 31 210.023C31 219.597 32.8748 228.884 36.5723 237.625C38.3495 241.827 40.5491 245.88 43.1102 249.671C45.6472 253.426 48.5607 256.957 51.7699 260.166C54.9791 263.375 58.5104 266.289 62.2655 268.826C66.0565 271.387 70.109 273.587 74.3106 275.364C83.0525 279.061 92.3391 280.936 101.913 280.936H293.345H305.437ZM305.437 281.936H293.345H101.913C62.1966 281.936 30 249.739 30 210.023C30 172.222 59.1646 141.233 96.221 138.333C102.35 94.5939 139.917 60.9365 185.345 60.9365C219.048 60.9365 248.422 79.4597 263.845 106.883C273.087 103.677 283.012 101.936 293.345 101.936C343.051 101.936 383.345 142.231 383.345 191.936C383.345 206.392 379.936 220.055 373.879 232.159C364.544 261.045 337.431 281.936 305.437 281.936Z" fill="white" fill-opacity="0.5"/>
</g>
</g>
<defs>
<filter id="filter0_f_7_9545" x="5.64795" y="12.7627" width="381.697" height="368.336" filterUnits="userSpaceOnUse" color-interpolation-filters="sRGB">
<feFlood flood-opacity="0" result="BackgroundImageFix"/>
<feBlend mode="normal" in="SourceGraphic" in2="BackgroundImageFix" result="shape"/>
<feGaussianBlur stdDeviation="2" result="effect1_foregroundBlur_7_9545"/>
</filter>
<filter id="filter1_f_7_9545" x="0.577637" y="0.302734" width="164.15" height="133.562" filterUnits="userSpaceOnUse" color-interpolation-filters="sRGB">
<feFlood flood-opacity="0" result="BackgroundImageFix"/>
<feBlend mode="normal" in="SourceGraphic" in2="BackgroundImageFix" result="shape"/>
<feGaussianBlur stdDeviation="10" result="effect1_foregroundBlur_7_9545"/>
</filter>
<filter id="filter2_d_7_9545" x="10" y="32.9365" width="413.345" height="281" filterUnits="userSpaceOnUse" color-interpolation-filters="sRGB">
<feFlood flood-opacity="0" result="BackgroundImageFix"/>
<feColorMatrix in="SourceAlpha" type="matrix" values="0 0 0 0 0 0 0 0 0 0 0 0 0 0 0 0 0 0 127 0" result="hardAlpha"/>
<feOffset dx="10" dy="2"/>
<feGaussianBlur stdDeviation="15"/>
<feColorMatrix type="matrix" values="0 0 0 0 0.501961 0 0 0 0 0.501961 0 0 0 0 0.501961 0 0 0 0.302 0"/>
<feBlend mode="normal" in2="BackgroundImageFix" result="effect1_dropShadow_7_9545"/>
<feBlend mode="normal" in="SourceGraphic" in2="effect1_dropShadow_7_9545" result="shape"/>
</filter>
<linearGradient id="paint0_linear_7_9545" x1="206.698" y1="60.9395" x2="309.341" y2="309.103" gradientUnits="userSpaceOnUse">
<stop stop-color="white" stop-opacity="0.604"/>
<stop offset="1" stop-color="white" stop-opacity="0.2"/>
</linearGradient>
</defs>
</svg>
