<svg width="424" height="348" viewBox="0 0 424 348" fill="none" xmlns="http://www.w3.org/2000/svg">
<g filter="url(#filter0_f_7_9507)">
<path d="M108.148 214.763C162.548 214.763 206.648 170.439 206.648 115.763C206.648 61.0865 162.548 16.7627 108.148 16.7627C53.7479 16.7627 9.64795 61.0865 9.64795 115.763C9.64795 170.439 53.7479 214.763 108.148 214.763Z" fill="#FA9E42"/>
<g filter="url(#filter1_f_7_9507)">
<path d="M101.03 101.684C133.767 84.2962 152.077 54.7094 141.928 35.6002C131.778 16.4909 97.0115 15.0954 64.2749 32.4833C31.5383 49.8712 13.228 79.4579 23.3778 98.5672C33.5275 117.676 68.2938 119.072 101.03 101.684Z" fill="#F8E36F"/>
</g>
<path d="M114.701 220.294C115.332 220.312 121.736 245.542 121.736 255.346C121.736 265.15 118.586 273.099 114.701 273.099C110.816 273.099 107.666 265.151 107.666 255.347C107.666 245.543 114.066 220.277 114.701 220.294Z" fill="#42A0F0"/>
<path d="M113.628 249.716C114.656 250.073 114.968 252.293 114.326 254.677C113.684 257.06 112.33 258.702 111.302 258.346C110.274 257.99 109.961 255.768 110.604 253.385C111.247 251.002 112.599 249.359 113.628 249.716Z" fill="white"/>
<path d="M174.632 220.294C175.263 220.312 181.667 245.542 181.667 255.346C181.667 265.15 178.517 273.099 174.632 273.099C170.747 273.099 167.597 265.151 167.597 255.347C167.597 245.543 173.997 220.277 174.632 220.294Z" fill="#42A0F0"/>
<path d="M173.559 249.716C174.586 250.073 174.899 252.293 174.257 254.677C173.615 257.06 172.261 258.702 171.233 258.346C170.205 257.99 169.892 255.768 170.535 253.385C171.178 251.002 172.53 249.359 173.559 249.716Z" fill="white"/>
<path d="M234.563 220.294C235.194 220.312 241.598 245.542 241.598 255.346C241.598 265.15 238.448 273.099 234.563 273.099C230.678 273.099 227.528 265.151 227.528 255.347C227.528 245.543 233.928 220.277 234.563 220.294Z" fill="#42A0F0"/>
<path d="M233.49 249.716C234.517 250.073 234.83 252.293 234.188 254.677C233.546 257.06 232.192 258.702 231.164 258.346C230.136 257.99 229.823 255.768 230.466 253.385C231.109 251.002 232.461 249.359 233.49 249.716Z" fill="white"/>
<path d="M294.494 217.294C295.125 217.312 301.529 242.542 301.529 252.346C301.529 262.15 298.379 270.099 294.494 270.099C290.609 270.099 287.459 262.151 287.459 252.347C287.459 242.543 293.859 217.277 294.494 217.294Z" fill="#42A0F0"/>
<path d="M293.421 246.716C294.449 247.073 294.761 249.293 294.119 251.677C293.477 254.06 292.123 255.702 291.095 255.346C290.067 254.99 289.754 252.768 290.397 250.385C291.04 248.002 292.392 246.359 293.421 246.716Z" fill="white"/>
<path d="M202.834 287.294C203.465 287.312 209.869 312.542 209.869 322.346C209.869 332.15 206.719 340.099 202.834 340.099C198.949 340.099 195.799 332.151 195.799 322.347C195.799 312.543 202.199 287.277 202.834 287.294Z" fill="#42A0F0"/>
<path d="M201.761 316.716C202.788 317.073 203.101 319.293 202.459 321.677C201.817 324.06 200.463 325.702 199.435 325.346C198.407 324.99 198.094 322.768 198.737 320.385C199.38 318.002 200.732 316.359 201.761 316.716Z" fill="white"/>
<path d="M262.765 287.294C263.396 287.312 269.8 312.542 269.8 322.346C269.8 332.15 266.65 340.099 262.765 340.099C258.88 340.099 255.73 332.151 255.73 322.347C255.73 312.543 262.13 287.277 262.765 287.294Z" fill="#42A0F0"/>
<path d="M261.692 316.716C262.72 317.073 263.032 319.293 262.39 321.677C261.748 324.06 260.394 325.702 259.366 325.346C258.338 324.99 258.025 322.768 258.668 320.385C259.311 318.002 260.663 316.359 261.692 316.716Z" fill="white"/>
<path d="M326.222 287.294C326.853 287.312 333.257 312.542 333.257 322.346C333.257 332.15 330.107 340.099 326.222 340.099C322.337 340.099 319.187 332.151 319.187 322.347C319.187 312.543 325.587 287.277 326.222 287.294Z" fill="#42A0F0"/>
<path d="M325.149 316.716C326.177 317.073 326.489 319.293 325.847 321.677C325.205 324.06 323.851 325.702 322.823 325.346C321.795 324.99 321.482 322.768 322.125 320.385C322.768 318.002 324.12 316.359 325.149 316.716Z" fill="white"/>
<path d="M142.904 290.294C143.535 290.312 149.939 315.542 149.939 325.346C149.939 335.15 146.789 343.099 142.904 343.099C139.019 343.099 135.869 335.151 135.869 325.347C135.869 315.543 142.269 290.277 142.904 290.294Z" fill="#42A0F0"/>
<path d="M141.831 319.716C142.858 320.073 143.171 322.293 142.529 324.677C141.887 327.06 140.533 328.702 139.505 328.346C138.477 327.99 138.164 325.768 138.807 323.385C139.45 321.002 140.802 319.359 141.831 319.716Z" fill="white"/>
<path d="M86.4979 287.294C87.1289 287.312 93.5329 312.542 93.5329 322.346C93.5329 332.15 90.3829 340.099 86.4979 340.099C82.6129 340.099 79.4629 332.151 79.4629 322.347C79.4629 312.543 85.8629 287.277 86.4979 287.294Z" fill="#42A0F0"/>
<path d="M85.425 316.716C86.4525 317.073 86.765 319.293 86.1231 321.677C85.4811 324.06 84.127 325.702 83.0991 325.346C82.0713 324.99 81.7582 322.768 82.4011 320.385C83.0439 318.002 84.3962 316.359 85.425 316.716Z" fill="white"/>
<g filter="url(#filter2_d_7_9507)">
<path d="M293.345 279.937H101.913C83.3426 279.923 65.4976 272.726 52.1137 259.852C38.7298 246.978 30.8447 229.426 30.1092 210.87C29.3737 192.314 35.8448 174.193 48.1677 160.301C60.4906 146.408 77.71 137.821 96.221 136.337C98.8608 117.697 107.278 100.354 120.289 86.7469C133.299 73.1402 150.248 63.9549 168.752 60.4833C187.255 57.0117 206.381 59.4285 223.439 67.3937C240.497 75.3589 254.628 88.4715 263.845 104.887C280.75 99.0351 299.015 98.3512 316.31 102.923C333.605 107.494 349.146 117.113 360.952 130.554C372.757 143.994 380.292 160.647 382.594 178.387C384.896 196.127 381.862 214.151 373.879 230.16C369.194 244.625 360.047 257.233 347.751 266.176C335.455 275.119 320.641 279.937 305.437 279.937H293.345Z" fill="url(#paint0_linear_7_9507)"/>
<path d="M305.437 278.936C313.157 278.936 320.748 277.703 327.998 275.272C335.009 272.921 341.59 269.491 347.56 265.076C353.462 260.711 358.635 255.483 362.936 249.537C367.29 243.516 370.652 236.893 372.928 229.852L372.951 229.779L372.985 229.712C376.011 223.664 378.341 217.267 379.911 210.697C381.526 203.937 382.345 196.952 382.345 189.936C382.345 183.897 381.737 177.862 380.537 171.998C379.368 166.285 377.623 160.664 375.352 155.294C373.121 150.02 370.361 144.934 367.146 140.176C363.962 135.463 360.306 131.031 356.278 127.004C352.25 122.976 347.819 119.319 343.106 116.135C338.348 112.921 333.261 110.16 327.988 107.93C322.617 105.658 316.997 103.913 311.283 102.744C305.42 101.544 299.385 100.936 293.345 100.936C283.346 100.936 273.531 102.582 264.172 105.827L263.383 106.101L262.973 105.373C255.357 91.8308 244.279 80.4582 230.937 72.4844C224.189 68.4518 216.94 65.3356 209.391 63.2223C201.602 61.042 193.512 59.9365 185.345 59.9365C174.361 59.9365 163.638 61.9135 153.475 65.8126C143.657 69.5792 134.65 75.0203 126.705 81.9845C118.806 88.9088 112.251 97.0787 107.221 106.267C102.069 115.682 98.7006 125.844 97.2113 136.471L97.0998 137.267L96.299 137.33C87.3408 138.031 78.7219 140.389 70.6818 144.34C62.8694 148.178 55.8932 153.37 49.947 159.771C37.7289 172.923 31 190.06 31 208.023C31 217.597 32.8748 226.884 36.5723 235.625C38.3495 239.827 40.5491 243.88 43.1102 247.671C45.6472 251.426 48.5607 254.957 51.7699 258.166C54.9791 261.375 58.5104 264.289 62.2655 266.826C66.0565 269.387 70.109 271.587 74.3106 273.364C83.0525 277.061 92.3391 278.936 101.913 278.936H293.345H305.437ZM305.437 279.936H293.345H101.913C62.1966 279.936 30 247.739 30 208.023C30 170.222 59.1646 139.233 96.221 136.333C102.35 92.5939 139.917 58.9365 185.345 58.9365C219.048 58.9365 248.422 77.4597 263.845 104.883C273.087 101.677 283.012 99.936 293.345 99.936C343.051 99.936 383.345 140.231 383.345 189.936C383.345 204.392 379.936 218.055 373.879 230.159C364.544 259.045 337.431 279.936 305.437 279.936Z" fill="white" fill-opacity="0.5"/>
</g>
</g>
<defs>
<filter id="filter0_f_7_9507" x="5.64795" y="12.7627" width="381.697" height="334.336" filterUnits="userSpaceOnUse" color-interpolation-filters="sRGB">
<feFlood flood-opacity="0" result="BackgroundImageFix"/>
<feBlend mode="normal" in="SourceGraphic" in2="BackgroundImageFix" result="shape"/>
<feGaussianBlur stdDeviation="2" result="effect1_foregroundBlur_7_9507"/>
</filter>
<filter id="filter1_f_7_9507" x="0.577637" y="0.302734" width="164.15" height="133.562" filterUnits="userSpaceOnUse" color-interpolation-filters="sRGB">
<feFlood flood-opacity="0" result="BackgroundImageFix"/>
<feBlend mode="normal" in="SourceGraphic" in2="BackgroundImageFix" result="shape"/>
<feGaussianBlur stdDeviation="10" result="effect1_foregroundBlur_7_9507"/>
</filter>
<filter id="filter2_d_7_9507" x="10" y="30.9365" width="413.345" height="281" filterUnits="userSpaceOnUse" color-interpolation-filters="sRGB">
<feFlood flood-opacity="0" result="BackgroundImageFix"/>
<feColorMatrix in="SourceAlpha" type="matrix" values="0 0 0 0 0 0 0 0 0 0 0 0 0 0 0 0 0 0 127 0" result="hardAlpha"/>
<feOffset dx="10" dy="2"/>
<feGaussianBlur stdDeviation="15"/>
<feColorMatrix type="matrix" values="0 0 0 0 0.501961 0 0 0 0 0.501961 0 0 0 0 0.501961 0 0 0 0.302 0"/>
<feBlend mode="normal" in2="BackgroundImageFix" result="effect1_dropShadow_7_9507"/>
<feBlend mode="normal" in="SourceGraphic" in2="effect1_dropShadow_7_9507" result="shape"/>
</filter>
<linearGradient id="paint0_linear_7_9507" x1="206.698" y1="58.9395" x2="309.341" y2="307.103" gradientUnits="userSpaceOnUse">
<stop stop-color="white" stop-opacity="0.604"/>
<stop offset="1" stop-color="white" stop-opacity="0.2"/>
</linearGradient>
</defs>
</svg>
