<svg width="414" height="349" viewBox="0 0 414 349" fill="none" xmlns="http://www.w3.org/2000/svg">
<g filter="url(#filter0_f_7_9144)">
<path d="M116.978 171.357C117.694 171.375 124.96 196.605 124.96 206.409C124.96 216.213 121.386 224.162 116.978 224.162C112.57 224.162 108.996 216.214 108.996 206.41C108.996 196.606 116.262 171.34 116.978 171.357Z" fill="#42A0F0"/>
<path d="M113.121 209.41C114.287 209.767 115.823 208.124 116.552 205.741C117.28 203.358 116.926 201.137 115.759 200.78C114.593 200.424 113.057 202.067 112.329 204.45C111.6 206.833 111.955 209.053 113.121 209.41Z" fill="white"/>
<path d="M172.369 171.357C173.085 171.375 180.351 196.605 180.351 206.409C180.351 216.213 176.777 224.162 172.369 224.162C167.961 224.162 164.387 216.214 164.387 206.41C164.387 196.606 171.653 171.34 172.369 171.357Z" fill="#42A0F0"/>
<path d="M168.512 209.41C169.678 209.767 171.214 208.124 171.943 205.741C172.671 203.358 172.317 201.137 171.151 200.78C169.984 200.424 168.448 202.067 167.72 204.45C166.991 206.833 167.346 209.053 168.512 209.41Z" fill="white"/>
<path d="M231.796 171.357C232.512 171.375 239.778 196.605 239.778 206.409C239.778 216.213 236.204 224.162 231.796 224.162C227.388 224.162 223.814 216.214 223.814 206.41C223.814 196.606 231.08 171.34 231.796 171.357Z" fill="#42A0F0"/>
<path d="M227.939 209.41C229.105 209.767 230.641 208.124 231.37 205.741C232.098 203.358 231.744 201.137 230.577 200.78C229.411 200.424 227.875 202.067 227.147 204.45C226.418 206.833 226.773 209.053 227.939 209.41Z" fill="white"/>
<path d="M286.683 168.357C287.399 168.375 294.665 193.605 294.665 203.409C294.665 213.213 291.091 221.162 286.683 221.162C282.275 221.162 278.701 213.214 278.701 203.41C278.701 193.606 285.967 168.34 286.683 168.357Z" fill="#42A0F0"/>
<path d="M282.826 206.41C283.992 206.767 285.528 205.124 286.257 202.741C286.985 200.358 286.631 198.137 285.465 197.78C284.298 197.424 282.762 199.067 282.034 201.45C281.305 203.833 281.66 206.053 282.826 206.41Z" fill="white"/>
<path d="M200.335 238.357C201.051 238.375 208.317 263.605 208.317 273.409C208.317 283.213 204.743 291.162 200.335 291.162C195.927 291.162 192.353 283.214 192.353 273.41C192.353 263.606 199.619 238.34 200.335 238.357Z" fill="#42A0F0"/>
<path d="M196.478 276.41C197.644 276.767 199.18 275.124 199.909 272.741C200.637 270.358 200.283 268.137 199.116 267.78C197.95 267.424 196.414 269.067 195.686 271.45C194.957 273.833 195.312 276.053 196.478 276.41Z" fill="white"/>
<path d="M259.761 238.357C260.477 238.375 267.743 263.605 267.743 273.409C267.743 283.213 264.169 291.162 259.761 291.162C255.353 291.162 251.779 283.214 251.779 273.41C251.779 263.606 259.045 238.34 259.761 238.357Z" fill="#42A0F0"/>
<path d="M255.904 276.41C257.07 276.767 258.606 275.124 259.335 272.741C260.064 270.358 259.709 268.137 258.543 267.78C257.377 267.424 255.841 269.067 255.112 271.45C254.383 273.833 254.738 276.053 255.904 276.41Z" fill="white"/>
<path d="M322.683 238.357C323.399 238.375 330.665 263.605 330.665 273.409C330.665 283.213 327.091 291.162 322.683 291.162C318.275 291.162 314.701 283.214 314.701 273.41C314.701 263.606 321.967 238.34 322.683 238.357Z" fill="#42A0F0"/>
<path d="M318.826 276.41C319.992 276.767 321.528 275.124 322.257 272.741C322.985 270.358 322.631 268.137 321.465 267.78C320.298 267.424 318.762 269.067 318.034 271.45C317.305 273.833 317.66 276.053 318.826 276.41Z" fill="white"/>
<path d="M140.909 241.357C141.625 241.375 148.891 266.605 148.891 276.409C148.891 286.213 145.317 294.162 140.909 294.162C136.501 294.162 132.927 286.214 132.927 276.41C132.927 266.606 140.193 241.34 140.909 241.357Z" fill="#42A0F0"/>
<path d="M137.052 279.41C138.218 279.767 139.754 278.124 140.483 275.741C141.212 273.358 140.857 271.137 139.691 270.78C138.524 270.424 136.988 272.067 136.26 274.45C135.531 276.833 135.886 279.053 137.052 279.41Z" fill="white"/>
<path d="M84.9781 238.357C85.6941 238.375 92.9601 263.605 92.9601 273.409C92.9601 283.213 89.3861 291.162 84.9781 291.162C80.5701 291.162 76.9961 283.214 76.9961 273.41C76.9961 263.606 84.2621 238.34 84.9781 238.357Z" fill="#42A0F0"/>
<path d="M81.1211 276.41C82.2873 276.767 83.8232 275.124 84.5518 272.741C85.2804 270.358 84.9256 268.137 83.7595 267.78C82.5933 267.424 81.0573 269.067 80.3288 271.45C79.6002 273.833 79.9549 276.053 81.1211 276.41Z" fill="white"/>
<path d="M116.978 291.357C117.694 291.375 124.96 316.605 124.96 326.409C124.96 336.213 121.386 344.162 116.978 344.162C112.57 344.162 108.996 336.214 108.996 326.41C108.996 316.606 116.262 291.34 116.978 291.357Z" fill="#42A0F0"/>
<path d="M113.121 329.41C114.287 329.767 115.823 328.124 116.552 325.741C117.28 323.358 116.926 321.137 115.759 320.78C114.593 320.424 113.057 322.067 112.329 324.45C111.6 326.833 111.955 329.053 113.121 329.41Z" fill="white"/>
<path d="M172.369 291.357C173.085 291.375 180.351 316.605 180.351 326.409C180.351 336.213 176.777 344.162 172.369 344.162C167.961 344.162 164.387 336.214 164.387 326.41C164.387 316.606 171.653 291.34 172.369 291.357Z" fill="#42A0F0"/>
<path d="M168.512 329.41C169.678 329.767 171.214 328.124 171.943 325.741C172.671 323.358 172.317 321.137 171.151 320.78C169.984 320.424 168.448 322.067 167.72 324.45C166.991 326.833 167.346 329.053 168.512 329.41Z" fill="white"/>
<path d="M231.796 291.357C232.512 291.375 239.778 316.605 239.778 326.409C239.778 336.213 236.204 344.162 231.796 344.162C227.388 344.162 223.814 336.214 223.814 326.41C223.814 316.606 231.08 291.34 231.796 291.357Z" fill="#42A0F0"/>
<path d="M227.939 329.41C229.105 329.767 230.641 328.124 231.37 325.741C232.098 323.358 231.744 321.137 230.577 320.78C229.411 320.424 227.875 322.067 227.147 324.45C226.418 326.833 226.773 329.053 227.939 329.41Z" fill="white"/>
<path d="M286.683 291.357C287.399 291.375 294.665 316.605 294.665 326.409C294.665 336.213 291.091 344.162 286.683 344.162C282.275 344.162 278.701 336.214 278.701 326.41C278.701 316.606 285.967 291.34 286.683 291.357Z" fill="#42A0F0"/>
<path d="M282.826 329.41C283.992 329.767 285.528 328.124 286.257 325.741C286.985 323.358 286.631 321.137 285.465 320.78C284.298 320.424 282.762 322.067 282.034 324.45C281.305 326.833 281.66 329.053 282.826 329.41Z" fill="white"/>
<g filter="url(#filter1_d_7_9144)">
<path d="M283.345 249H91.913C73.3426 248.986 55.4976 241.789 42.1137 228.915C28.7298 216.042 20.8447 198.49 20.1092 179.934C19.3737 161.378 25.8448 143.257 38.1677 129.364C50.4906 115.472 67.71 106.884 86.221 105.4C88.8608 86.7604 97.2781 69.4171 110.289 55.8104C123.299 42.2037 140.248 33.0184 158.752 29.5468C177.255 26.0752 196.381 28.492 213.439 36.4572C230.497 44.4223 244.628 57.535 253.845 73.9504C270.75 68.0986 289.015 67.4147 306.31 71.9861C323.605 76.5575 339.146 86.1769 350.952 99.6174C362.757 113.058 370.292 129.71 372.594 147.45C374.896 165.191 371.862 183.215 363.879 199.223C359.194 213.688 350.047 226.297 337.751 235.24C325.455 244.183 310.641 249 295.437 249H283.345Z" fill="url(#paint0_linear_7_9144)"/>
<path d="M295.437 248C303.157 248 310.748 246.767 317.998 244.336C325.009 241.985 331.59 238.554 337.56 234.139C343.462 229.775 348.635 224.547 352.936 218.6C357.29 212.58 360.652 205.957 362.928 198.915L362.951 198.843L362.985 198.775C366.011 192.728 368.341 186.33 369.911 179.761C371.526 173 372.345 166.015 372.345 158.999C372.345 152.96 371.737 146.925 370.537 141.062C369.368 135.348 367.623 129.728 365.352 124.357C363.121 119.084 360.361 113.997 357.146 109.24C353.962 104.527 350.306 100.095 346.278 96.0672C342.25 92.0395 337.819 88.3828 333.106 85.1988C328.348 81.9845 323.261 79.2237 317.988 76.9932C312.617 74.7216 306.997 72.9769 301.283 71.8077C295.42 70.6079 289.385 69.9995 283.345 69.9995C273.346 69.9995 263.531 71.6452 254.172 74.8908L253.383 75.1646L252.973 74.4362C245.357 60.8943 234.279 49.5217 220.937 41.5479C214.189 37.5153 206.94 34.399 199.391 32.2857C191.602 30.1055 183.512 29 175.345 29C164.361 29 153.638 30.977 143.475 34.876C133.657 38.6427 124.65 44.0837 116.705 51.048C108.806 57.9722 102.251 66.1422 97.2213 75.3308C92.0685 84.7451 88.7006 94.9073 87.2113 105.535L87.0998 106.33L86.299 106.393C77.3408 107.094 68.7219 109.453 60.6818 113.403C52.8694 117.242 45.8932 122.434 39.947 128.834C27.7289 141.987 21 159.123 21 177.087C21 186.66 22.8748 195.947 26.5723 204.689C28.3495 208.891 30.5491 212.943 33.1102 216.734C35.6472 220.489 38.5607 224.02 41.7699 227.23C44.9791 230.439 48.5104 233.352 52.2655 235.889C56.0565 238.45 60.109 240.65 64.3106 242.427C73.0525 246.125 82.3391 248 91.9127 248H283.345H295.437ZM295.437 249H283.345H91.9127C52.1966 249 20 216.803 20 177.087C20 139.286 49.1646 108.297 86.221 105.396C92.3504 61.6574 129.917 28 175.345 28C209.048 28 238.422 46.5232 253.845 73.946C263.087 70.7407 273.012 68.9995 283.345 68.9995C333.051 68.9995 373.345 109.294 373.345 158.999C373.345 173.456 369.936 187.118 363.879 199.223C354.544 228.108 327.431 249 295.437 249Z" fill="white" fill-opacity="0.5"/>
</g>
</g>
<defs>
<filter id="filter0_f_7_9144" x="16" y="24" width="361.345" height="324.162" filterUnits="userSpaceOnUse" color-interpolation-filters="sRGB">
<feFlood flood-opacity="0" result="BackgroundImageFix"/>
<feBlend mode="normal" in="SourceGraphic" in2="BackgroundImageFix" result="shape"/>
<feGaussianBlur stdDeviation="2" result="effect1_foregroundBlur_7_9144"/>
</filter>
<filter id="filter1_d_7_9144" x="0" y="0" width="413.345" height="281" filterUnits="userSpaceOnUse" color-interpolation-filters="sRGB">
<feFlood flood-opacity="0" result="BackgroundImageFix"/>
<feColorMatrix in="SourceAlpha" type="matrix" values="0 0 0 0 0 0 0 0 0 0 0 0 0 0 0 0 0 0 127 0" result="hardAlpha"/>
<feOffset dx="10" dy="2"/>
<feGaussianBlur stdDeviation="15"/>
<feColorMatrix type="matrix" values="0 0 0 0 0.501961 0 0 0 0 0.501961 0 0 0 0 0.501961 0 0 0 0.302 0"/>
<feBlend mode="normal" in2="BackgroundImageFix" result="effect1_dropShadow_7_9144"/>
<feBlend mode="normal" in="SourceGraphic" in2="effect1_dropShadow_7_9144" result="shape"/>
</filter>
<linearGradient id="paint0_linear_7_9144" x1="196.698" y1="28.0029" x2="299.341" y2="276.167" gradientUnits="userSpaceOnUse">
<stop stop-color="white" stop-opacity="0.604"/>
<stop offset="1" stop-color="white" stop-opacity="0.2"/>
</linearGradient>
</defs>
</svg>
