<svg width="437" height="368" viewBox="0 0 437 368" fill="none" xmlns="http://www.w3.org/2000/svg">
<g filter="url(#filter0_f_7_9837)">
<path d="M176.613 200.467C180.526 200.511 220.226 262.496 220.226 286.583C220.226 298.15 215.631 309.243 207.452 317.422C199.273 325.601 188.18 330.196 176.613 330.196C165.046 330.196 153.953 325.601 145.774 317.422C137.595 309.243 133 298.15 133 286.583C133 262.496 172.7 200.424 176.613 200.467Z" fill="#42A0F0"/>
<path d="M143.36 302.886C147.718 304.219 153.256 298.738 155.731 290.644C158.205 282.551 156.678 274.91 152.321 273.577C147.963 272.245 142.424 277.726 139.95 285.819C137.475 293.913 139.002 301.554 143.36 302.886Z" fill="white"/>
<path d="M279.359 282.209C281.824 282.238 306.839 321.293 306.839 336.47C306.795 343.73 303.881 350.677 298.732 355.795C293.583 360.913 286.618 363.786 279.358 363.786C272.099 363.786 265.134 360.913 259.985 355.795C254.836 350.677 251.922 343.73 251.878 336.47C251.878 321.293 276.893 282.182 279.359 282.209Z" fill="#42A0F0"/>
<path d="M258.406 346.743C261.152 347.582 264.642 344.129 266.201 339.03C267.76 333.93 266.798 329.116 264.052 328.276C261.306 327.437 257.816 330.89 256.257 335.989C254.698 341.089 255.66 345.903 258.406 346.743Z" fill="white"/>
<path d="M107.268 6.72311C114.278 6.72136 121.27 7.42963 128.137 8.83711C141.39 11.5668 153.974 16.8888 165.164 24.4971C180.667 35.0048 193.053 49.4945 201.021 66.4436C208.989 83.3926 212.244 102.175 210.444 120.817C208.644 139.458 201.856 157.271 190.793 172.383C179.73 187.495 164.801 199.347 147.574 206.695C141.312 209.356 134.8 211.388 128.136 212.76C113.685 215.69 98.7754 215.508 84.4005 212.224C70.0257 208.941 56.5155 202.632 44.77 193.718C33.0244 184.804 23.3132 173.489 16.2832 160.528C9.25319 147.566 5.06578 133.256 3.99992 118.549C15.3314 121.201 27.1023 121.372 38.5059 119.049C48.7389 116.953 58.4592 112.863 67.1119 107.012C79.9742 98.3288 90.0422 86.1017 96.0959 71.8121C98.1414 66.9726 99.7027 61.9424 100.757 56.7951C103.004 45.7664 102.921 34.3898 100.513 23.3951C99.3016 17.8974 97.5102 12.5437 95.1689 7.42412C99.185 6.95677 103.225 6.7227 107.268 6.72311Z" fill="#713FFD"/>
<g filter="url(#filter1_f_7_9837)">
<path d="M177.339 38.8964C154.095 17.9669 123.644 13.8916 109.325 29.7941C95.0067 45.6965 102.243 75.5547 125.487 96.4842C148.732 117.414 179.183 121.489 193.501 105.586C207.82 89.6841 200.584 59.8259 177.339 38.8964Z" fill="#A586FC"/>
</g>
<g filter="url(#filter2_d_7_9837)">
<path d="M306.346 282.002H114.914C96.3436 281.988 78.4986 274.791 65.1147 261.917C51.7308 249.044 43.8457 231.492 43.1102 212.936C42.3747 194.38 48.8457 176.259 61.1687 162.366C73.4916 148.473 90.711 139.886 109.222 138.402C111.862 119.762 120.279 102.419 133.29 88.8123C146.3 75.2056 163.249 66.0204 181.753 62.5488C200.256 59.0772 219.382 61.4939 236.44 69.4591C253.498 77.4243 267.629 90.537 276.846 106.952C293.751 101.101 312.016 100.417 329.311 104.988C346.606 109.559 362.147 119.179 373.953 132.619C385.758 146.06 393.293 162.712 395.595 180.452C397.897 198.193 394.863 216.217 386.88 232.225C382.195 246.69 373.048 259.299 360.752 268.242C348.456 277.185 333.642 282.002 318.438 282.002H306.346Z" fill="url(#paint0_linear_7_9837)"/>
<path d="M318.438 281.002C326.158 281.002 333.749 279.769 340.999 277.338C348.01 274.987 354.591 271.557 360.561 267.142C366.463 262.777 371.636 257.549 375.937 251.603C380.291 245.582 383.653 238.959 385.928 231.918L385.952 231.845L385.986 231.778C389.012 225.73 391.342 219.333 392.912 212.763C394.527 206.003 395.346 199.017 395.346 192.002C395.346 185.963 394.738 179.928 393.538 174.064C392.369 168.351 390.624 162.73 388.353 157.36C386.122 152.086 383.362 147 380.147 142.242C376.963 137.529 373.307 133.097 369.279 129.07C365.251 125.042 360.82 121.385 356.107 118.201C351.349 114.987 346.262 112.226 340.989 109.996C335.618 107.724 329.998 105.979 324.284 104.81C318.421 103.61 312.386 103.002 306.346 103.002C296.347 103.002 286.532 104.648 277.173 107.893L276.384 108.167L275.974 107.439C268.358 93.8968 257.28 82.5241 243.938 74.5503C237.19 70.5177 229.941 67.4015 222.392 65.2882C214.603 63.1079 206.513 62.0024 198.346 62.0024C187.362 62.0024 176.639 63.9794 166.476 67.8785C156.658 71.6451 147.651 77.0862 139.706 84.0504C131.807 90.9747 125.252 99.1446 120.222 108.333C115.069 117.748 111.702 127.91 110.212 138.537L110.101 139.333L109.3 139.396C100.342 140.097 91.7229 142.455 83.6828 146.406C75.8703 150.244 68.8942 155.436 62.948 161.837C50.7298 174.989 44.001 192.126 44.001 210.089C44.001 219.663 45.8757 228.949 49.5732 237.691C51.3504 241.893 53.5501 245.946 56.1112 249.736C58.6482 253.492 61.5617 257.023 64.7709 260.232C67.9801 263.441 71.5113 266.355 75.2665 268.892C79.0574 271.453 83.11 273.653 87.3116 275.43C96.0534 279.127 105.34 281.002 114.914 281.002H306.346H318.438ZM318.438 282.002H306.346H114.914C75.1976 282.002 43.001 249.805 43.001 210.089C43.001 172.288 72.1656 141.299 109.222 138.399C115.351 94.6598 152.918 61.0024 198.346 61.0024C232.048 61.0024 261.423 79.5257 276.846 106.948C286.088 103.743 296.013 102.002 306.346 102.002C356.052 102.002 396.346 142.297 396.346 192.002C396.346 206.458 392.937 220.121 386.88 232.225C377.545 261.111 350.432 282.002 318.438 282.002Z" fill="white" fill-opacity="0.5"/>
</g>
</g>
<defs>
<filter id="filter0_f_7_9837" x="0" y="2.72314" width="400.346" height="365.062" filterUnits="userSpaceOnUse" color-interpolation-filters="sRGB">
<feFlood flood-opacity="0" result="BackgroundImageFix"/>
<feBlend mode="normal" in="SourceGraphic" in2="BackgroundImageFix" result="shape"/>
<feGaussianBlur stdDeviation="2" result="effect1_foregroundBlur_7_9837"/>
</filter>
<filter id="filter1_f_7_9837" x="81.9741" y="0.0932617" width="138.878" height="135.194" filterUnits="userSpaceOnUse" color-interpolation-filters="sRGB">
<feFlood flood-opacity="0" result="BackgroundImageFix"/>
<feBlend mode="normal" in="SourceGraphic" in2="BackgroundImageFix" result="shape"/>
<feGaussianBlur stdDeviation="10" result="effect1_foregroundBlur_7_9837"/>
</filter>
<filter id="filter2_d_7_9837" x="23.001" y="33.0024" width="413.345" height="281" filterUnits="userSpaceOnUse" color-interpolation-filters="sRGB">
<feFlood flood-opacity="0" result="BackgroundImageFix"/>
<feColorMatrix in="SourceAlpha" type="matrix" values="0 0 0 0 0 0 0 0 0 0 0 0 0 0 0 0 0 0 127 0" result="hardAlpha"/>
<feOffset dx="10" dy="2"/>
<feGaussianBlur stdDeviation="15"/>
<feColorMatrix type="matrix" values="0 0 0 0 0.501961 0 0 0 0 0.501961 0 0 0 0 0.501961 0 0 0 0.302 0"/>
<feBlend mode="normal" in2="BackgroundImageFix" result="effect1_dropShadow_7_9837"/>
<feBlend mode="normal" in="SourceGraphic" in2="effect1_dropShadow_7_9837" result="shape"/>
</filter>
<linearGradient id="paint0_linear_7_9837" x1="219.699" y1="61.0049" x2="322.342" y2="309.169" gradientUnits="userSpaceOnUse">
<stop stop-color="white" stop-opacity="0.604"/>
<stop offset="1" stop-color="white" stop-opacity="0.2"/>
</linearGradient>
</defs>
</svg>
