<svg width="437" height="346" viewBox="0 0 437 346" fill="none" xmlns="http://www.w3.org/2000/svg">
<g filter="url(#filter0_f_7_9880)">
<path d="M127.701 218.359C128.332 218.377 134.736 243.607 134.736 253.411C134.736 263.215 131.586 271.164 127.701 271.164C123.816 271.164 120.666 263.216 120.666 253.412C120.666 243.608 127.066 218.342 127.701 218.359Z" fill="#42A0F0"/>
<path d="M126.628 247.781C127.656 248.138 127.968 250.359 127.326 252.742C126.684 255.125 125.33 256.767 124.302 256.411C123.274 256.055 122.961 253.834 123.604 251.45C124.247 249.067 125.599 247.425 126.628 247.781Z" fill="white"/>
<path d="M187.632 218.359C188.263 218.377 194.667 243.607 194.667 253.411C194.667 263.215 191.517 271.164 187.632 271.164C183.747 271.164 180.597 263.216 180.597 253.412C180.597 243.608 186.997 218.342 187.632 218.359Z" fill="#42A0F0"/>
<path d="M186.559 247.781C187.586 248.138 187.899 250.359 187.257 252.742C186.615 255.125 185.261 256.767 184.233 256.411C183.205 256.055 182.892 253.834 183.535 251.45C184.178 249.067 185.53 247.425 186.559 247.781Z" fill="white"/>
<path d="M247.563 218.359C248.194 218.377 254.598 243.607 254.598 253.411C254.598 263.215 251.448 271.164 247.563 271.164C243.678 271.164 240.528 263.216 240.528 253.412C240.528 243.608 246.928 218.342 247.563 218.359Z" fill="#42A0F0"/>
<path d="M246.49 247.781C247.517 248.138 247.83 250.359 247.188 252.742C246.546 255.125 245.192 256.767 244.164 256.411C243.136 256.055 242.823 253.834 243.466 251.45C244.109 249.067 245.461 247.425 246.49 247.781Z" fill="white"/>
<path d="M307.494 215.359C308.125 215.377 314.529 240.607 314.529 250.411C314.529 260.215 311.379 268.164 307.494 268.164C303.609 268.164 300.459 260.216 300.459 250.412C300.459 240.608 306.859 215.342 307.494 215.359Z" fill="#42A0F0"/>
<path d="M306.421 244.781C307.449 245.138 307.761 247.359 307.119 249.742C306.477 252.125 305.123 253.767 304.095 253.411C303.067 253.055 302.754 250.834 303.397 248.45C304.04 246.067 305.392 244.425 306.421 244.781Z" fill="white"/>
<path d="M215.834 285.359C216.465 285.377 222.869 310.607 222.869 320.411C222.869 330.215 219.719 338.164 215.834 338.164C211.949 338.164 208.799 330.216 208.799 320.412C208.799 310.608 215.199 285.342 215.834 285.359Z" fill="#42A0F0"/>
<path d="M214.761 314.781C215.788 315.138 216.101 317.359 215.459 319.742C214.817 322.125 213.463 323.767 212.435 323.411C211.407 323.055 211.094 320.834 211.737 318.45C212.38 316.067 213.732 314.425 214.761 314.781Z" fill="white"/>
<path d="M275.765 285.359C276.396 285.377 282.8 310.607 282.8 320.411C282.8 330.215 279.65 338.164 275.765 338.164C271.88 338.164 268.73 330.216 268.73 320.412C268.73 310.608 275.13 285.342 275.765 285.359Z" fill="#42A0F0"/>
<path d="M274.692 314.781C275.72 315.138 276.032 317.359 275.39 319.742C274.748 322.125 273.394 323.767 272.366 323.411C271.338 323.055 271.025 320.834 271.668 318.45C272.311 316.067 273.663 314.425 274.692 314.781Z" fill="white"/>
<path d="M339.222 285.359C339.853 285.377 346.257 310.607 346.257 320.411C346.257 330.215 343.107 338.164 339.222 338.164C335.337 338.164 332.187 330.216 332.187 320.412C332.187 310.608 338.587 285.342 339.222 285.359Z" fill="#42A0F0"/>
<path d="M338.149 314.781C339.177 315.138 339.489 317.359 338.847 319.742C338.205 322.125 336.851 323.767 335.823 323.411C334.795 323.055 334.482 320.834 335.125 318.45C335.768 316.067 337.12 314.425 338.149 314.781Z" fill="white"/>
<path d="M155.904 288.359C156.535 288.377 162.939 313.607 162.939 323.411C162.939 333.215 159.789 341.164 155.904 341.164C152.019 341.164 148.869 333.216 148.869 323.412C148.869 313.608 155.269 288.342 155.904 288.359Z" fill="#42A0F0"/>
<path d="M154.831 317.781C155.858 318.138 156.171 320.359 155.529 322.742C154.887 325.125 153.533 326.767 152.505 326.411C151.477 326.055 151.164 323.834 151.807 321.45C152.45 319.067 153.802 317.425 154.831 317.781Z" fill="white"/>
<path d="M99.4979 285.359C100.129 285.377 106.533 310.607 106.533 320.411C106.533 330.215 103.383 338.164 99.4979 338.164C95.6129 338.164 92.4629 330.216 92.4629 320.412C92.4629 310.608 98.8629 285.342 99.4979 285.359Z" fill="#42A0F0"/>
<path d="M98.425 314.781C99.4525 315.138 99.765 317.359 99.1231 319.742C98.4811 322.125 97.127 323.767 96.0991 323.411C95.0713 323.055 94.7582 320.834 95.4011 318.45C96.0439 316.067 97.3962 314.425 98.425 314.781Z" fill="white"/>
<path d="M107.268 6.72311C114.278 6.72136 121.27 7.42963 128.137 8.83711C141.39 11.5668 153.974 16.8888 165.164 24.4971C180.667 35.0048 193.053 49.4945 201.021 66.4436C208.989 83.3926 212.244 102.175 210.444 120.817C208.644 139.458 201.856 157.271 190.793 172.383C179.73 187.495 164.801 199.347 147.574 206.695C141.312 209.356 134.8 211.388 128.136 212.76C113.685 215.69 98.7754 215.508 84.4005 212.224C70.0257 208.941 56.5155 202.632 44.77 193.718C33.0244 184.804 23.3132 173.489 16.2832 160.528C9.25319 147.566 5.06578 133.256 3.99992 118.549C15.3314 121.201 27.1023 121.372 38.5059 119.049C48.7389 116.953 58.4592 112.863 67.1119 107.012C79.9742 98.3288 90.0422 86.1017 96.0959 71.8121C98.1414 66.9726 99.7027 61.9424 100.757 56.7951C103.004 45.7664 102.921 34.3898 100.513 23.3951C99.3016 17.8974 97.5102 12.5437 95.1689 7.42412C99.185 6.95677 103.225 6.7227 107.268 6.72311Z" fill="#713FFD"/>
<g filter="url(#filter1_f_7_9880)">
<path d="M177.339 38.8959C154.095 17.9664 123.644 13.8911 109.325 29.7936C95.0067 45.696 102.243 75.5542 125.487 96.4837C148.732 117.413 179.183 121.488 193.501 105.586C207.82 89.6836 200.584 59.8254 177.339 38.8959Z" fill="#A586FC"/>
</g>
<g filter="url(#filter2_d_7_9880)">
<path d="M306.345 278.002H114.913C96.3426 277.988 78.4976 270.791 65.1137 257.917C51.7298 245.044 43.8447 227.492 43.1092 208.936C42.3737 190.38 48.8448 172.259 61.1677 158.366C73.4906 144.473 90.71 135.886 109.221 134.402C111.861 115.762 120.278 98.419 133.289 84.8123C146.299 71.2056 163.248 62.0204 181.752 58.5488C200.255 55.0772 219.381 57.4939 236.439 65.4591C253.497 73.4243 267.628 86.537 276.845 102.952C293.75 97.1005 312.015 96.4167 329.31 100.988C346.605 105.559 362.146 115.179 373.952 128.619C385.757 142.06 393.292 158.712 395.594 176.452C397.896 194.193 394.862 212.217 386.879 228.225C382.194 242.69 373.047 255.299 360.751 264.242C348.455 273.185 333.641 278.002 318.437 278.002H306.345Z" fill="url(#paint0_linear_7_9880)"/>
<path d="M318.437 277.001C326.157 277.001 333.748 275.769 340.998 273.338C348.009 270.987 354.59 267.556 360.56 263.141C366.462 258.777 371.635 253.549 375.936 247.602C380.29 241.582 383.652 234.959 385.928 227.917L385.951 227.845L385.985 227.777C389.011 221.73 391.341 215.332 392.911 208.763C394.526 202.002 395.345 195.017 395.345 188.001C395.345 181.962 394.737 175.927 393.537 170.064C392.368 164.35 390.623 158.73 388.352 153.359C386.121 148.086 383.361 142.999 380.146 138.242C376.962 133.529 373.306 129.097 369.278 125.069C365.25 121.041 360.819 117.385 356.106 114.201C351.348 110.986 346.261 108.226 340.988 105.995C335.617 103.724 329.997 101.979 324.283 100.81C318.42 99.6098 312.385 99.0015 306.345 99.0015C296.346 99.0015 286.531 100.647 277.172 103.893L276.383 104.167L275.973 103.438C268.357 89.8963 257.279 78.5236 243.937 70.5498C237.189 66.5172 229.94 63.401 222.391 61.2877C214.602 59.1074 206.512 58.002 198.345 58.002C187.361 58.002 176.638 59.979 166.475 63.878C156.657 67.6446 147.65 73.0857 139.705 80.05C131.806 86.9742 125.251 95.1441 120.221 104.333C115.069 113.747 111.701 123.909 110.211 134.537L110.1 135.332L109.299 135.395C100.341 136.096 91.7219 138.455 83.6818 142.405C75.8694 146.244 68.8932 151.435 62.947 157.836C50.7289 170.989 44 188.125 44 206.089C44 215.662 45.8748 224.949 49.5723 233.691C51.3495 237.892 53.5491 241.945 56.1102 245.736C58.6472 249.491 61.5607 253.022 64.7699 256.232C67.9791 259.441 71.5104 262.354 75.2655 264.891C79.0565 267.452 83.109 269.652 87.3106 271.429C96.0525 275.127 105.339 277.001 114.913 277.001H306.345H318.437ZM318.437 278.001H306.345H114.913C75.1966 278.001 43 245.805 43 206.089C43 168.288 72.1646 137.299 109.221 134.398C115.35 90.6593 152.917 57.002 198.345 57.002C232.048 57.002 261.422 75.5252 276.845 102.948C286.087 99.7426 296.012 98.0015 306.345 98.0015C356.051 98.0015 396.345 138.296 396.345 188.001C396.345 202.458 392.936 216.12 386.879 228.225C377.544 257.11 350.431 278.001 318.437 278.001Z" fill="white" fill-opacity="0.5"/>
</g>
</g>
<defs>
<filter id="filter0_f_7_9880" x="0" y="2.72266" width="400.345" height="342.441" filterUnits="userSpaceOnUse" color-interpolation-filters="sRGB">
<feFlood flood-opacity="0" result="BackgroundImageFix"/>
<feBlend mode="normal" in="SourceGraphic" in2="BackgroundImageFix" result="shape"/>
<feGaussianBlur stdDeviation="2" result="effect1_foregroundBlur_7_9880"/>
</filter>
<filter id="filter1_f_7_9880" x="81.9741" y="0.0927734" width="138.878" height="135.193" filterUnits="userSpaceOnUse" color-interpolation-filters="sRGB">
<feFlood flood-opacity="0" result="BackgroundImageFix"/>
<feBlend mode="normal" in="SourceGraphic" in2="BackgroundImageFix" result="shape"/>
<feGaussianBlur stdDeviation="10" result="effect1_foregroundBlur_7_9880"/>
</filter>
<filter id="filter2_d_7_9880" x="23" y="29.002" width="413.345" height="281" filterUnits="userSpaceOnUse" color-interpolation-filters="sRGB">
<feFlood flood-opacity="0" result="BackgroundImageFix"/>
<feColorMatrix in="SourceAlpha" type="matrix" values="0 0 0 0 0 0 0 0 0 0 0 0 0 0 0 0 0 0 127 0" result="hardAlpha"/>
<feOffset dx="10" dy="2"/>
<feGaussianBlur stdDeviation="15"/>
<feColorMatrix type="matrix" values="0 0 0 0 0.501961 0 0 0 0 0.501961 0 0 0 0 0.501961 0 0 0 0.302 0"/>
<feBlend mode="normal" in2="BackgroundImageFix" result="effect1_dropShadow_7_9880"/>
<feBlend mode="normal" in="SourceGraphic" in2="effect1_dropShadow_7_9880" result="shape"/>
</filter>
<linearGradient id="paint0_linear_7_9880" x1="219.698" y1="57.0049" x2="322.341" y2="305.169" gradientUnits="userSpaceOnUse">
<stop stop-color="white" stop-opacity="0.604"/>
<stop offset="1" stop-color="white" stop-opacity="0.2"/>
</linearGradient>
</defs>
</svg>
