<svg width="424" height="368" viewBox="0 0 424 368" fill="none" xmlns="http://www.w3.org/2000/svg">
<g filter="url(#filter0_f_7_9267)">
<path d="M137.044 225.536L203.727 332.228" stroke="#42A0F0" stroke-width="9" stroke-linecap="round"/>
<path d="M153.132 251.75L159.652 221.297" stroke="#42A0F0" stroke-width="9" stroke-linecap="round"/>
<path d="M153.132 251.75L122.309 244.637" stroke="#42A0F0" stroke-width="9" stroke-linecap="round"/>
<path d="M188.696 308.652L218.926 316.136" stroke="#42A0F0" stroke-width="9" stroke-linecap="round"/>
<path d="M188.696 308.652L181.583 339.475" stroke="#42A0F0" stroke-width="9" stroke-linecap="round"/>
<path d="M199.936 223.935L140.879 335.03" stroke="#42A0F0" stroke-width="9" stroke-linecap="round"/>
<path d="M185.278 250.974L214.91 241.395" stroke="#42A0F0" stroke-width="9" stroke-linecap="round"/>
<path d="M185.278 250.974L176.026 220.724" stroke="#42A0F0" stroke-width="9" stroke-linecap="round"/>
<path d="M153.781 310.225L162.415 340.147" stroke="#42A0F0" stroke-width="9" stroke-linecap="round"/>
<path d="M153.781 310.225L123.53 319.476" stroke="#42A0F0" stroke-width="9" stroke-linecap="round"/>
<path d="M232.768 277.6L107.028 282.002" stroke="#42A0F0" stroke-width="9" stroke-linecap="round"/>
<path d="M202.022 278.425L225.135 299.298" stroke="#42A0F0" stroke-width="9" stroke-linecap="round"/>
<path d="M202.022 278.425L223.594 255.288" stroke="#42A0F0" stroke-width="9" stroke-linecap="round"/>
<path d="M134.961 280.773L113.365 303.212" stroke="#42A0F0" stroke-width="9" stroke-linecap="round"/>
<path d="M134.961 280.773L111.824 259.202" stroke="#42A0F0" stroke-width="9" stroke-linecap="round"/>
<path d="M303.38 292.949L278.007 349.928" stroke="#42A0F0" stroke-width="6.00313" stroke-linecap="round"/>
<path d="M297.063 306.827L311.387 301.066" stroke="#42A0F0" stroke-width="6.00313" stroke-linecap="round"/>
<path d="M297.063 306.827L291.444 292.186" stroke="#42A0F0" stroke-width="6.00313" stroke-linecap="round"/>
<path d="M283.531 337.215L288.833 351.715" stroke="#42A0F0" stroke-width="6.00313" stroke-linecap="round"/>
<path d="M283.531 337.215L268.891 342.834" stroke="#42A0F0" stroke-width="6.00313" stroke-linecap="round"/>
<path d="M321.468 318.356L259.437 324.872" stroke="#42A0F0" stroke-width="6.00313" stroke-linecap="round"/>
<path d="M306.291 319.825L318.441 329.349" stroke="#42A0F0" stroke-width="6.00313" stroke-linecap="round"/>
<path d="M306.291 319.825L316.161 307.638" stroke="#42A0F0" stroke-width="6.00313" stroke-linecap="round"/>
<path d="M273.208 323.3L263.302 335.142" stroke="#42A0F0" stroke-width="6.00313" stroke-linecap="round"/>
<path d="M273.208 323.3L261.021 313.43" stroke="#42A0F0" stroke-width="6.00313" stroke-linecap="round"/>
<path d="M308.509 346.724L271.85 296.262" stroke="#42A0F0" stroke-width="6.00313" stroke-linecap="round"/>
<path d="M299.649 334.315L297.476 349.599" stroke="#42A0F0" stroke-width="6.00313" stroke-linecap="round"/>
<path d="M299.649 334.315L315.138 336.769" stroke="#42A0F0" stroke-width="6.00313" stroke-linecap="round"/>
<path d="M280.098 307.401L264.89 304.743" stroke="#42A0F0" stroke-width="6.00313" stroke-linecap="round"/>
<path d="M280.098 307.402L282.552 291.913" stroke="#42A0F0" stroke-width="6.00313" stroke-linecap="round"/>
<path d="M108.148 214.763C162.548 214.763 206.648 170.439 206.648 115.763C206.648 61.087 162.548 16.7632 108.148 16.7632C53.7479 16.7632 9.64795 61.087 9.64795 115.763C9.64795 170.439 53.7479 214.763 108.148 214.763Z" fill="#FA9E42"/>
<g filter="url(#filter1_f_7_9267)">
<path d="M101.03 101.684C133.767 84.2962 152.077 54.7094 141.928 35.6002C131.778 16.4909 97.0115 15.0954 64.2749 32.4833C31.5383 49.8712 13.228 79.4579 23.3778 98.5672C33.5275 117.676 68.2938 119.072 101.03 101.684Z" fill="#F8E36F"/>
</g>
<g filter="url(#filter2_d_7_9267)">
<path d="M293.345 285.763H101.913C83.3426 285.749 65.4976 278.552 52.1137 265.678C38.7298 252.804 30.8447 235.252 30.1092 216.696C29.3737 198.141 35.8448 180.02 48.1677 166.127C60.4906 152.234 77.71 143.647 96.221 142.163C98.8608 123.523 107.278 106.18 120.289 92.5731C133.299 78.9664 150.248 69.7811 168.752 66.3095C187.255 62.8379 206.381 65.2547 223.439 73.2199C240.497 81.185 254.628 94.2977 263.845 110.713C280.75 104.861 299.015 104.177 316.31 108.749C333.605 113.32 349.146 122.94 360.952 136.38C372.757 149.821 380.292 166.473 382.594 184.213C384.896 201.953 381.862 219.977 373.879 235.986C369.194 250.451 360.047 263.059 347.751 272.002C335.455 280.945 320.641 285.763 305.437 285.763H293.345Z" fill="url(#paint0_linear_7_9267)"/>
<path d="M305.437 284.763C313.157 284.763 320.748 283.53 327.998 281.099C335.009 278.748 341.59 275.317 347.56 270.902C353.462 266.538 358.635 261.31 362.936 255.363C367.29 249.343 370.652 242.72 372.928 235.678L372.951 235.606L372.985 235.538C376.011 229.491 378.341 223.094 379.911 216.524C381.526 209.763 382.345 202.778 382.345 195.763C382.345 189.724 381.737 183.688 380.537 177.825C379.368 172.111 377.623 166.491 375.352 161.12C373.121 155.847 370.361 150.761 367.146 146.003C363.962 141.29 360.306 136.858 356.278 132.83C352.25 128.803 347.819 125.146 343.106 121.962C338.348 118.748 333.261 115.987 327.988 113.756C322.617 111.485 316.997 109.74 311.283 108.571C305.42 107.371 299.385 106.763 293.345 106.763C283.346 106.763 273.531 108.408 264.172 111.654L263.383 111.928L262.973 111.199C255.357 97.6575 244.279 86.2849 230.937 78.311C224.189 74.2785 216.94 71.1622 209.391 69.0489C201.602 66.8686 193.512 65.7632 185.345 65.7632C174.361 65.7632 163.638 67.7402 153.475 71.6392C143.657 75.4059 134.65 80.8469 126.705 87.8112C118.806 94.7354 112.251 102.905 107.221 112.094C102.069 121.508 98.7006 131.67 97.2113 142.298L97.0998 143.094L96.299 143.156C87.3408 143.857 78.7219 146.216 70.6818 150.166C62.8694 154.005 55.8932 159.197 49.947 165.598C37.7289 178.75 31 195.886 31 213.85C31 223.424 32.8748 232.71 36.5723 241.452C38.3495 245.654 40.5491 249.706 43.1102 253.497C45.6472 257.252 48.5607 260.784 51.7699 263.993C54.9791 267.202 58.5104 270.116 62.2655 272.652C66.0565 275.214 70.109 277.413 74.3106 279.19C83.0525 282.888 92.3391 284.763 101.913 284.763H293.345H305.437ZM305.437 285.763H293.345H101.913C62.1966 285.763 30 253.566 30 213.85C30 176.049 59.1646 145.06 96.221 142.159C102.35 98.4205 139.917 64.7632 185.345 64.7632C219.048 64.7632 248.422 83.2864 263.845 110.709C273.087 107.504 283.012 105.763 293.345 105.763C343.051 105.763 383.345 146.058 383.345 195.763C383.345 210.219 379.936 223.882 373.879 235.986C364.544 264.871 337.431 285.763 305.437 285.763Z" fill="white" fill-opacity="0.5"/>
</g>
</g>
<defs>
<filter id="filter0_f_7_9267" x="5.64795" y="12.7632" width="381.698" height="345.954" filterUnits="userSpaceOnUse" color-interpolation-filters="sRGB">
<feFlood flood-opacity="0" result="BackgroundImageFix"/>
<feBlend mode="normal" in="SourceGraphic" in2="BackgroundImageFix" result="shape"/>
<feGaussianBlur stdDeviation="2" result="effect1_foregroundBlur_7_9267"/>
</filter>
<filter id="filter1_f_7_9267" x="0.577637" y="0.303223" width="164.15" height="133.561" filterUnits="userSpaceOnUse" color-interpolation-filters="sRGB">
<feFlood flood-opacity="0" result="BackgroundImageFix"/>
<feBlend mode="normal" in="SourceGraphic" in2="BackgroundImageFix" result="shape"/>
<feGaussianBlur stdDeviation="10" result="effect1_foregroundBlur_7_9267"/>
</filter>
<filter id="filter2_d_7_9267" x="10" y="36.7632" width="413.345" height="281" filterUnits="userSpaceOnUse" color-interpolation-filters="sRGB">
<feFlood flood-opacity="0" result="BackgroundImageFix"/>
<feColorMatrix in="SourceAlpha" type="matrix" values="0 0 0 0 0 0 0 0 0 0 0 0 0 0 0 0 0 0 127 0" result="hardAlpha"/>
<feOffset dx="10" dy="2"/>
<feGaussianBlur stdDeviation="15"/>
<feColorMatrix type="matrix" values="0 0 0 0 0.501961 0 0 0 0 0.501961 0 0 0 0 0.501961 0 0 0 0.302 0"/>
<feBlend mode="normal" in2="BackgroundImageFix" result="effect1_dropShadow_7_9267"/>
<feBlend mode="normal" in="SourceGraphic" in2="effect1_dropShadow_7_9267" result="shape"/>
</filter>
<linearGradient id="paint0_linear_7_9267" x1="206.698" y1="64.7656" x2="309.341" y2="312.929" gradientUnits="userSpaceOnUse">
<stop stop-color="white" stop-opacity="0.604"/>
<stop offset="1" stop-color="white" stop-opacity="0.2"/>
</linearGradient>
</defs>
</svg>
