<svg width="437" height="354" viewBox="0 0 437 354" fill="none" xmlns="http://www.w3.org/2000/svg">
<g filter="url(#filter0_f_7_9701)">
<path d="M313.173 294.882V347.5" stroke="#42A0F0" stroke-width="4" stroke-linecap="round"/>
<path d="M313.067 307.744L322.129 298.39" stroke="#42A0F0" stroke-width="4" stroke-linecap="round"/>
<path d="M313.067 307.744L303.713 298.39" stroke="#42A0F0" stroke-width="4" stroke-linecap="round"/>
<path d="M313.067 335.807L322.129 345.161" stroke="#42A0F0" stroke-width="4" stroke-linecap="round"/>
<path d="M313.067 335.807L303.713 345.161" stroke="#42A0F0" stroke-width="4" stroke-linecap="round"/>
<path d="M335.832 308.254L290.264 334.563" stroke="#42A0F0" stroke-width="4" stroke-linecap="round"/>
<path d="M324.64 314.593L337.272 317.764" stroke="#42A0F0" stroke-width="4" stroke-linecap="round"/>
<path d="M324.64 314.593L328.064 301.815" stroke="#42A0F0" stroke-width="4" stroke-linecap="round"/>
<path d="M300.337 328.625L296.767 341.15" stroke="#42A0F0" stroke-width="4" stroke-linecap="round"/>
<path d="M300.337 328.625L287.559 325.201" stroke="#42A0F0" stroke-width="4" stroke-linecap="round"/>
<path d="M335.58 334.563L290.012 308.254" stroke="#42A0F0" stroke-width="4" stroke-linecap="round"/>
<path d="M324.494 328.041L328.064 340.566" stroke="#42A0F0" stroke-width="4" stroke-linecap="round"/>
<path d="M324.494 328.041L337.272 324.617" stroke="#42A0F0" stroke-width="4" stroke-linecap="round"/>
<path d="M300.191 314.009L287.559 317.18" stroke="#42A0F0" stroke-width="4" stroke-linecap="round"/>
<path d="M300.191 314.009L296.767 301.231" stroke="#42A0F0" stroke-width="4" stroke-linecap="round"/>
<path d="M220.008 294.882V347.5" stroke="#42A0F0" stroke-width="4" stroke-linecap="round"/>
<path d="M219.902 307.744L228.964 298.39" stroke="#42A0F0" stroke-width="4" stroke-linecap="round"/>
<path d="M219.902 307.744L210.548 298.39" stroke="#42A0F0" stroke-width="4" stroke-linecap="round"/>
<path d="M219.902 335.807L228.964 345.161" stroke="#42A0F0" stroke-width="4" stroke-linecap="round"/>
<path d="M219.902 335.807L210.548 345.161" stroke="#42A0F0" stroke-width="4" stroke-linecap="round"/>
<path d="M242.667 308.254L197.098 334.563" stroke="#42A0F0" stroke-width="4" stroke-linecap="round"/>
<path d="M231.475 314.593L244.107 317.764" stroke="#42A0F0" stroke-width="4" stroke-linecap="round"/>
<path d="M231.475 314.593L234.899 301.815" stroke="#42A0F0" stroke-width="4" stroke-linecap="round"/>
<path d="M207.172 328.625L203.602 341.15" stroke="#42A0F0" stroke-width="4" stroke-linecap="round"/>
<path d="M207.172 328.625L194.394 325.201" stroke="#42A0F0" stroke-width="4" stroke-linecap="round"/>
<path d="M242.415 334.563L196.847 308.254" stroke="#42A0F0" stroke-width="4" stroke-linecap="round"/>
<path d="M231.329 328.041L234.899 340.566" stroke="#42A0F0" stroke-width="4" stroke-linecap="round"/>
<path d="M231.329 328.041L244.107 324.617" stroke="#42A0F0" stroke-width="4" stroke-linecap="round"/>
<path d="M207.026 314.009L194.394 317.18" stroke="#42A0F0" stroke-width="4" stroke-linecap="round"/>
<path d="M207.026 314.009L203.602 301.231" stroke="#42A0F0" stroke-width="4" stroke-linecap="round"/>
<path d="M127.008 294.882V347.5" stroke="#42A0F0" stroke-width="4" stroke-linecap="round"/>
<path d="M126.902 307.744L135.964 298.39" stroke="#42A0F0" stroke-width="4" stroke-linecap="round"/>
<path d="M126.902 307.744L117.548 298.39" stroke="#42A0F0" stroke-width="4" stroke-linecap="round"/>
<path d="M126.902 335.807L135.964 345.161" stroke="#42A0F0" stroke-width="4" stroke-linecap="round"/>
<path d="M126.902 335.807L117.548 345.161" stroke="#42A0F0" stroke-width="4" stroke-linecap="round"/>
<path d="M149.667 308.254L104.098 334.563" stroke="#42A0F0" stroke-width="4" stroke-linecap="round"/>
<path d="M138.475 314.593L151.107 317.764" stroke="#42A0F0" stroke-width="4" stroke-linecap="round"/>
<path d="M138.475 314.593L141.899 301.815" stroke="#42A0F0" stroke-width="4" stroke-linecap="round"/>
<path d="M114.172 328.625L110.602 341.15" stroke="#42A0F0" stroke-width="4" stroke-linecap="round"/>
<path d="M114.172 328.625L101.394 325.201" stroke="#42A0F0" stroke-width="4" stroke-linecap="round"/>
<path d="M149.415 334.563L103.847 308.254" stroke="#42A0F0" stroke-width="4" stroke-linecap="round"/>
<path d="M138.329 328.041L141.899 340.566" stroke="#42A0F0" stroke-width="4" stroke-linecap="round"/>
<path d="M138.329 328.041L151.107 324.617" stroke="#42A0F0" stroke-width="4" stroke-linecap="round"/>
<path d="M114.026 314.009L101.394 317.18" stroke="#42A0F0" stroke-width="4" stroke-linecap="round"/>
<path d="M114.026 314.009L110.602 301.231" stroke="#42A0F0" stroke-width="4" stroke-linecap="round"/>
<path d="M172.008 215.882V268.5" stroke="#42A0F0" stroke-width="4" stroke-linecap="round"/>
<path d="M171.902 228.744L180.964 219.39" stroke="#42A0F0" stroke-width="4" stroke-linecap="round"/>
<path d="M171.902 228.744L162.548 219.39" stroke="#42A0F0" stroke-width="4" stroke-linecap="round"/>
<path d="M171.902 256.807L180.964 266.161" stroke="#42A0F0" stroke-width="4" stroke-linecap="round"/>
<path d="M171.902 256.807L162.548 266.161" stroke="#42A0F0" stroke-width="4" stroke-linecap="round"/>
<path d="M194.667 229.254L149.098 255.563" stroke="#42A0F0" stroke-width="4" stroke-linecap="round"/>
<path d="M183.475 235.593L196.107 238.764" stroke="#42A0F0" stroke-width="4" stroke-linecap="round"/>
<path d="M183.475 235.593L186.899 222.815" stroke="#42A0F0" stroke-width="4" stroke-linecap="round"/>
<path d="M159.172 249.625L155.602 262.15" stroke="#42A0F0" stroke-width="4" stroke-linecap="round"/>
<path d="M159.172 249.625L146.394 246.201" stroke="#42A0F0" stroke-width="4" stroke-linecap="round"/>
<path d="M194.415 255.563L148.847 229.254" stroke="#42A0F0" stroke-width="4" stroke-linecap="round"/>
<path d="M183.329 249.041L186.899 261.566" stroke="#42A0F0" stroke-width="4" stroke-linecap="round"/>
<path d="M183.329 249.041L196.107 245.617" stroke="#42A0F0" stroke-width="4" stroke-linecap="round"/>
<path d="M159.026 235.009L146.394 238.18" stroke="#42A0F0" stroke-width="4" stroke-linecap="round"/>
<path d="M159.026 235.009L155.602 222.231" stroke="#42A0F0" stroke-width="4" stroke-linecap="round"/>
<path d="M275.008 215.882V268.5" stroke="#42A0F0" stroke-width="4" stroke-linecap="round"/>
<path d="M274.902 228.744L283.964 219.39" stroke="#42A0F0" stroke-width="4" stroke-linecap="round"/>
<path d="M274.902 228.744L265.548 219.39" stroke="#42A0F0" stroke-width="4" stroke-linecap="round"/>
<path d="M274.902 256.807L283.964 266.161" stroke="#42A0F0" stroke-width="4" stroke-linecap="round"/>
<path d="M274.902 256.807L265.548 266.161" stroke="#42A0F0" stroke-width="4" stroke-linecap="round"/>
<path d="M297.667 229.254L252.098 255.563" stroke="#42A0F0" stroke-width="4" stroke-linecap="round"/>
<path d="M286.475 235.593L299.107 238.764" stroke="#42A0F0" stroke-width="4" stroke-linecap="round"/>
<path d="M286.475 235.593L289.899 222.815" stroke="#42A0F0" stroke-width="4" stroke-linecap="round"/>
<path d="M262.172 249.625L258.602 262.15" stroke="#42A0F0" stroke-width="4" stroke-linecap="round"/>
<path d="M262.172 249.625L249.394 246.201" stroke="#42A0F0" stroke-width="4" stroke-linecap="round"/>
<path d="M297.415 255.563L251.847 229.254" stroke="#42A0F0" stroke-width="4" stroke-linecap="round"/>
<path d="M286.329 249.041L289.899 261.566" stroke="#42A0F0" stroke-width="4" stroke-linecap="round"/>
<path d="M286.329 249.041L299.107 245.617" stroke="#42A0F0" stroke-width="4" stroke-linecap="round"/>
<path d="M262.026 235.009L249.394 238.18" stroke="#42A0F0" stroke-width="4" stroke-linecap="round"/>
<path d="M262.026 235.009L258.602 222.231" stroke="#42A0F0" stroke-width="4" stroke-linecap="round"/>
<path d="M107.268 6.72311C114.278 6.72136 121.27 7.42963 128.137 8.83711C141.39 11.5668 153.974 16.8888 165.164 24.4971C180.667 35.0048 193.053 49.4945 201.021 66.4436C208.989 83.3926 212.244 102.175 210.444 120.817C208.644 139.458 201.856 157.271 190.793 172.383C179.73 187.495 164.801 199.347 147.574 206.695C141.312 209.356 134.8 211.388 128.136 212.76C113.685 215.69 98.7754 215.508 84.4005 212.224C70.0257 208.941 56.5155 202.632 44.77 193.718C33.0244 184.804 23.3132 173.489 16.2832 160.528C9.25319 147.566 5.06578 133.256 3.99992 118.549C15.3314 121.201 27.1023 121.372 38.5059 119.049C48.7389 116.953 58.4592 112.863 67.1119 107.012C79.9742 98.3288 90.0422 86.1017 96.0959 71.8121C98.1414 66.9726 99.7027 61.9424 100.757 56.7951C103.004 45.7664 102.921 34.3898 100.513 23.3951C99.3016 17.8974 97.5102 12.5437 95.1689 7.42412C99.185 6.95677 103.225 6.7227 107.268 6.72311Z" fill="#713FFD"/>
<g filter="url(#filter1_f_7_9701)">
<path d="M177.339 38.8959C154.095 17.9664 123.644 13.8911 109.325 29.7936C95.0065 45.696 102.242 75.5542 125.487 96.4837C148.732 117.413 179.182 121.488 193.501 105.586C207.82 89.6836 200.584 59.8254 177.339 38.8959Z" fill="#A586FC"/>
</g>
<g filter="url(#filter2_d_7_9701)">
<path d="M306.345 282.002H114.913C96.3426 281.988 78.4976 274.791 65.1137 261.917C51.7298 249.044 43.8447 231.492 43.1092 212.936C42.3737 194.38 48.8448 176.259 61.1677 162.366C73.4906 148.473 90.71 139.886 109.221 138.402C111.861 119.762 120.278 102.419 133.289 88.8123C146.299 75.2056 163.248 66.0204 181.752 62.5488C200.255 59.0772 219.381 61.4939 236.439 69.4591C253.497 77.4243 267.628 90.537 276.845 106.952C293.75 101.101 312.015 100.417 329.31 104.988C346.605 109.559 362.146 119.179 373.952 132.619C385.757 146.06 393.292 162.712 395.594 180.452C397.896 198.193 394.862 216.217 386.879 232.225C382.194 246.69 373.047 259.299 360.751 268.242C348.455 277.185 333.641 282.002 318.437 282.002H306.345Z" fill="url(#paint0_linear_7_9701)"/>
<path d="M318.437 281.002C326.157 281.002 333.748 279.769 340.998 277.338C348.009 274.987 354.59 271.557 360.56 267.142C366.462 262.777 371.635 257.549 375.936 251.603C380.29 245.582 383.652 238.959 385.928 231.918L385.951 231.845L385.985 231.778C389.011 225.73 391.341 219.333 392.911 212.763C394.526 206.003 395.345 199.017 395.345 192.002C395.345 185.963 394.737 179.928 393.537 174.064C392.368 168.351 390.623 162.73 388.352 157.36C386.121 152.086 383.361 147 380.146 142.242C376.962 137.529 373.306 133.097 369.278 129.07C365.25 125.042 360.819 121.385 356.106 118.201C351.348 114.987 346.261 112.226 340.988 109.996C335.617 107.724 329.997 105.979 324.283 104.81C318.42 103.61 312.385 103.002 306.345 103.002C296.346 103.002 286.531 104.648 277.172 107.893L276.383 108.167L275.973 107.439C268.357 93.8968 257.279 82.5241 243.937 74.5503C237.189 70.5177 229.94 67.4015 222.391 65.2882C214.602 63.1079 206.512 62.0024 198.345 62.0024C187.361 62.0024 176.638 63.9794 166.475 67.8785C156.657 71.6451 147.65 77.0862 139.705 84.0504C131.806 90.9747 125.251 99.1446 120.221 108.333C115.069 117.748 111.701 127.91 110.211 138.537L110.1 139.333L109.299 139.396C100.341 140.097 91.7219 142.455 83.6818 146.406C75.8694 150.244 68.8932 155.436 62.947 161.837C50.7289 174.989 44 192.126 44 210.089C44 219.663 45.8748 228.949 49.5723 237.691C51.3495 241.893 53.5491 245.946 56.1102 249.736C58.6472 253.492 61.5607 257.023 64.7699 260.232C67.9791 263.441 71.5104 266.355 75.2655 268.892C79.0565 271.453 83.109 273.653 87.3106 275.43C96.0525 279.127 105.339 281.002 114.913 281.002H306.345H318.437ZM318.437 282.002H306.345H114.913C75.1966 282.002 43 249.805 43 210.089C43 172.288 72.1646 141.299 109.221 138.399C115.35 94.6598 152.917 61.0024 198.345 61.0024C232.048 61.0024 261.422 79.5257 276.845 106.948C286.087 103.743 296.012 102.002 306.345 102.002C356.051 102.002 396.345 142.297 396.345 192.002C396.345 206.458 392.936 220.121 386.879 232.225C377.544 261.111 350.431 282.002 318.437 282.002Z" fill="white" fill-opacity="0.5"/>
</g>
</g>
<defs>
<filter id="filter0_f_7_9701" x="0" y="2.72314" width="400.345" height="350.777" filterUnits="userSpaceOnUse" color-interpolation-filters="sRGB">
<feFlood flood-opacity="0" result="BackgroundImageFix"/>
<feBlend mode="normal" in="SourceGraphic" in2="BackgroundImageFix" result="shape"/>
<feGaussianBlur stdDeviation="2" result="effect1_foregroundBlur_7_9701"/>
</filter>
<filter id="filter1_f_7_9701" x="81.9736" y="0.0927734" width="138.879" height="135.194" filterUnits="userSpaceOnUse" color-interpolation-filters="sRGB">
<feFlood flood-opacity="0" result="BackgroundImageFix"/>
<feBlend mode="normal" in="SourceGraphic" in2="BackgroundImageFix" result="shape"/>
<feGaussianBlur stdDeviation="10" result="effect1_foregroundBlur_7_9701"/>
</filter>
<filter id="filter2_d_7_9701" x="23" y="33.0024" width="413.345" height="281" filterUnits="userSpaceOnUse" color-interpolation-filters="sRGB">
<feFlood flood-opacity="0" result="BackgroundImageFix"/>
<feColorMatrix in="SourceAlpha" type="matrix" values="0 0 0 0 0 0 0 0 0 0 0 0 0 0 0 0 0 0 127 0" result="hardAlpha"/>
<feOffset dx="10" dy="2"/>
<feGaussianBlur stdDeviation="15"/>
<feColorMatrix type="matrix" values="0 0 0 0 0.501961 0 0 0 0 0.501961 0 0 0 0 0.501961 0 0 0 0.302 0"/>
<feBlend mode="normal" in2="BackgroundImageFix" result="effect1_dropShadow_7_9701"/>
<feBlend mode="normal" in="SourceGraphic" in2="effect1_dropShadow_7_9701" result="shape"/>
</filter>
<linearGradient id="paint0_linear_7_9701" x1="219.698" y1="61.0049" x2="322.341" y2="309.169" gradientUnits="userSpaceOnUse">
<stop stop-color="white" stop-opacity="0.604"/>
<stop offset="1" stop-color="white" stop-opacity="0.2"/>
</linearGradient>
</defs>
</svg>
