<svg width="424" height="354" viewBox="0 0 424 354" fill="none" xmlns="http://www.w3.org/2000/svg">
<g filter="url(#filter0_f_7_9328)">
<path d="M108.148 214.763C162.548 214.763 206.648 170.439 206.648 115.763C206.648 61.087 162.548 16.7632 108.148 16.7632C53.7479 16.7632 9.64795 61.087 9.64795 115.763C9.64795 170.439 53.7479 214.763 108.148 214.763Z" fill="#FA9E42"/>
<g filter="url(#filter1_f_7_9328)">
<path d="M101.03 101.684C133.767 84.2962 152.077 54.7094 141.928 35.6002C131.778 16.4909 97.0115 15.0954 64.2749 32.4833C31.5383 49.8712 13.228 79.4579 23.3778 98.5672C33.5275 117.676 68.2938 119.072 101.03 101.684Z" fill="#F8E36F"/>
</g>
<path d="M300.173 294.818V347.436" stroke="#42A0F0" stroke-width="4" stroke-linecap="round"/>
<path d="M300.067 307.68L309.129 298.326" stroke="#42A0F0" stroke-width="4" stroke-linecap="round"/>
<path d="M300.067 307.68L290.713 298.326" stroke="#42A0F0" stroke-width="4" stroke-linecap="round"/>
<path d="M300.067 335.743L309.129 345.097" stroke="#42A0F0" stroke-width="4" stroke-linecap="round"/>
<path d="M300.067 335.743L290.713 345.097" stroke="#42A0F0" stroke-width="4" stroke-linecap="round"/>
<path d="M322.832 308.19L277.264 334.499" stroke="#42A0F0" stroke-width="4" stroke-linecap="round"/>
<path d="M311.64 314.53L324.272 317.7" stroke="#42A0F0" stroke-width="4" stroke-linecap="round"/>
<path d="M311.64 314.53L315.064 301.752" stroke="#42A0F0" stroke-width="4" stroke-linecap="round"/>
<path d="M287.337 328.562L283.767 341.086" stroke="#42A0F0" stroke-width="4" stroke-linecap="round"/>
<path d="M287.337 328.562L274.559 325.138" stroke="#42A0F0" stroke-width="4" stroke-linecap="round"/>
<path d="M322.58 334.5L277.012 308.191" stroke="#42A0F0" stroke-width="4" stroke-linecap="round"/>
<path d="M311.494 327.977L315.064 340.502" stroke="#42A0F0" stroke-width="4" stroke-linecap="round"/>
<path d="M311.494 327.978L324.272 324.554" stroke="#42A0F0" stroke-width="4" stroke-linecap="round"/>
<path d="M287.191 313.945L274.559 317.116" stroke="#42A0F0" stroke-width="4" stroke-linecap="round"/>
<path d="M287.191 313.946L283.767 301.168" stroke="#42A0F0" stroke-width="4" stroke-linecap="round"/>
<path d="M207.008 294.818V347.436" stroke="#42A0F0" stroke-width="4" stroke-linecap="round"/>
<path d="M206.902 307.68L215.964 298.326" stroke="#42A0F0" stroke-width="4" stroke-linecap="round"/>
<path d="M206.902 307.68L197.548 298.326" stroke="#42A0F0" stroke-width="4" stroke-linecap="round"/>
<path d="M206.902 335.743L215.964 345.097" stroke="#42A0F0" stroke-width="4" stroke-linecap="round"/>
<path d="M206.902 335.743L197.548 345.097" stroke="#42A0F0" stroke-width="4" stroke-linecap="round"/>
<path d="M229.667 308.19L184.098 334.499" stroke="#42A0F0" stroke-width="4" stroke-linecap="round"/>
<path d="M218.475 314.53L231.107 317.7" stroke="#42A0F0" stroke-width="4" stroke-linecap="round"/>
<path d="M218.475 314.53L221.899 301.752" stroke="#42A0F0" stroke-width="4" stroke-linecap="round"/>
<path d="M194.172 328.562L190.602 341.086" stroke="#42A0F0" stroke-width="4" stroke-linecap="round"/>
<path d="M194.172 328.562L181.394 325.138" stroke="#42A0F0" stroke-width="4" stroke-linecap="round"/>
<path d="M229.415 334.5L183.847 308.191" stroke="#42A0F0" stroke-width="4" stroke-linecap="round"/>
<path d="M218.329 327.977L221.899 340.502" stroke="#42A0F0" stroke-width="4" stroke-linecap="round"/>
<path d="M218.329 327.978L231.107 324.554" stroke="#42A0F0" stroke-width="4" stroke-linecap="round"/>
<path d="M194.026 313.945L181.394 317.116" stroke="#42A0F0" stroke-width="4" stroke-linecap="round"/>
<path d="M194.026 313.946L190.602 301.168" stroke="#42A0F0" stroke-width="4" stroke-linecap="round"/>
<path d="M114.008 294.818V347.436" stroke="#42A0F0" stroke-width="4" stroke-linecap="round"/>
<path d="M113.902 307.68L122.964 298.326" stroke="#42A0F0" stroke-width="4" stroke-linecap="round"/>
<path d="M113.902 307.68L104.548 298.326" stroke="#42A0F0" stroke-width="4" stroke-linecap="round"/>
<path d="M113.902 335.743L122.964 345.097" stroke="#42A0F0" stroke-width="4" stroke-linecap="round"/>
<path d="M113.902 335.743L104.548 345.097" stroke="#42A0F0" stroke-width="4" stroke-linecap="round"/>
<path d="M136.667 308.19L91.0985 334.499" stroke="#42A0F0" stroke-width="4" stroke-linecap="round"/>
<path d="M125.475 314.53L138.107 317.7" stroke="#42A0F0" stroke-width="4" stroke-linecap="round"/>
<path d="M125.475 314.53L128.899 301.752" stroke="#42A0F0" stroke-width="4" stroke-linecap="round"/>
<path d="M101.172 328.562L97.6021 341.086" stroke="#42A0F0" stroke-width="4" stroke-linecap="round"/>
<path d="M101.172 328.562L88.3941 325.138" stroke="#42A0F0" stroke-width="4" stroke-linecap="round"/>
<path d="M136.415 334.5L90.8465 308.191" stroke="#42A0F0" stroke-width="4" stroke-linecap="round"/>
<path d="M125.329 327.977L128.899 340.502" stroke="#42A0F0" stroke-width="4" stroke-linecap="round"/>
<path d="M125.329 327.978L138.107 324.554" stroke="#42A0F0" stroke-width="4" stroke-linecap="round"/>
<path d="M101.026 313.945L88.3941 317.116" stroke="#42A0F0" stroke-width="4" stroke-linecap="round"/>
<path d="M101.026 313.946L97.6021 301.168" stroke="#42A0F0" stroke-width="4" stroke-linecap="round"/>
<path d="M159.008 215.818V268.436" stroke="#42A0F0" stroke-width="4" stroke-linecap="round"/>
<path d="M158.902 228.68L167.964 219.326" stroke="#42A0F0" stroke-width="4" stroke-linecap="round"/>
<path d="M158.902 228.68L149.548 219.326" stroke="#42A0F0" stroke-width="4" stroke-linecap="round"/>
<path d="M158.902 256.743L167.964 266.097" stroke="#42A0F0" stroke-width="4" stroke-linecap="round"/>
<path d="M158.902 256.743L149.548 266.097" stroke="#42A0F0" stroke-width="4" stroke-linecap="round"/>
<path d="M181.667 229.19L136.098 255.499" stroke="#42A0F0" stroke-width="4" stroke-linecap="round"/>
<path d="M170.475 235.53L183.107 238.7" stroke="#42A0F0" stroke-width="4" stroke-linecap="round"/>
<path d="M170.475 235.53L173.899 222.752" stroke="#42A0F0" stroke-width="4" stroke-linecap="round"/>
<path d="M146.172 249.562L142.602 262.086" stroke="#42A0F0" stroke-width="4" stroke-linecap="round"/>
<path d="M146.172 249.562L133.394 246.138" stroke="#42A0F0" stroke-width="4" stroke-linecap="round"/>
<path d="M181.415 255.5L135.847 229.191" stroke="#42A0F0" stroke-width="4" stroke-linecap="round"/>
<path d="M170.329 248.977L173.899 261.502" stroke="#42A0F0" stroke-width="4" stroke-linecap="round"/>
<path d="M170.329 248.978L183.107 245.554" stroke="#42A0F0" stroke-width="4" stroke-linecap="round"/>
<path d="M146.026 234.945L133.394 238.116" stroke="#42A0F0" stroke-width="4" stroke-linecap="round"/>
<path d="M146.026 234.946L142.602 222.168" stroke="#42A0F0" stroke-width="4" stroke-linecap="round"/>
<path d="M262.008 215.818V268.436" stroke="#42A0F0" stroke-width="4" stroke-linecap="round"/>
<path d="M261.902 228.68L270.964 219.326" stroke="#42A0F0" stroke-width="4" stroke-linecap="round"/>
<path d="M261.902 228.68L252.548 219.326" stroke="#42A0F0" stroke-width="4" stroke-linecap="round"/>
<path d="M261.902 256.743L270.964 266.097" stroke="#42A0F0" stroke-width="4" stroke-linecap="round"/>
<path d="M261.902 256.743L252.548 266.097" stroke="#42A0F0" stroke-width="4" stroke-linecap="round"/>
<path d="M284.667 229.19L239.098 255.499" stroke="#42A0F0" stroke-width="4" stroke-linecap="round"/>
<path d="M273.475 235.53L286.107 238.7" stroke="#42A0F0" stroke-width="4" stroke-linecap="round"/>
<path d="M273.475 235.53L276.899 222.752" stroke="#42A0F0" stroke-width="4" stroke-linecap="round"/>
<path d="M249.172 249.562L245.602 262.086" stroke="#42A0F0" stroke-width="4" stroke-linecap="round"/>
<path d="M249.172 249.562L236.394 246.138" stroke="#42A0F0" stroke-width="4" stroke-linecap="round"/>
<path d="M284.415 255.5L238.847 229.191" stroke="#42A0F0" stroke-width="4" stroke-linecap="round"/>
<path d="M273.329 248.977L276.899 261.502" stroke="#42A0F0" stroke-width="4" stroke-linecap="round"/>
<path d="M273.329 248.978L286.107 245.554" stroke="#42A0F0" stroke-width="4" stroke-linecap="round"/>
<path d="M249.026 234.945L236.394 238.116" stroke="#42A0F0" stroke-width="4" stroke-linecap="round"/>
<path d="M249.026 234.946L245.602 222.168" stroke="#42A0F0" stroke-width="4" stroke-linecap="round"/>
<g filter="url(#filter2_d_7_9328)">
<path d="M293.345 281.937H101.913C83.3426 281.923 65.4976 274.726 52.1137 261.852C38.7298 248.978 30.8447 231.426 30.1092 212.87C29.3737 194.314 35.8448 176.193 48.1677 162.301C60.4906 148.408 77.71 139.821 96.221 138.337C98.8608 119.697 107.278 102.354 120.289 88.7469C133.299 75.1402 150.248 65.9549 168.752 62.4833C187.255 59.0117 206.381 61.4285 223.439 69.3937C240.497 77.3589 254.628 90.4715 263.845 106.887C280.75 101.035 299.015 100.351 316.31 104.923C333.605 109.494 349.146 119.113 360.952 132.554C372.757 145.994 380.292 162.647 382.594 180.387C384.896 198.127 381.862 216.151 373.879 232.16C369.194 246.625 360.047 259.233 347.751 268.176C335.455 277.119 320.641 281.937 305.437 281.937H293.345Z" fill="url(#paint0_linear_7_9328)"/>
<path d="M305.437 280.937C313.157 280.937 320.748 279.704 327.998 277.273C335.009 274.922 341.59 271.491 347.56 267.076C353.462 262.712 358.635 257.484 362.936 251.537C367.29 245.517 370.652 238.894 372.928 231.852L372.951 231.78L372.985 231.712C376.011 225.665 378.341 219.267 379.911 212.698C381.526 205.937 382.345 198.952 382.345 191.937C382.345 185.897 381.737 179.862 380.537 173.999C379.368 168.285 377.623 162.665 375.352 157.294C373.121 152.021 370.361 146.935 367.146 142.177C363.962 137.464 360.306 133.032 356.278 129.004C352.25 124.976 347.819 121.32 343.106 118.136C338.348 114.921 333.261 112.161 327.988 109.93C322.617 107.659 316.997 105.914 311.283 104.745C305.42 103.545 299.385 102.937 293.345 102.937C283.346 102.937 273.531 104.582 264.172 107.828L263.383 108.102L262.973 107.373C255.357 93.8313 244.279 82.4587 230.937 74.4849C224.189 70.4523 216.94 67.3361 209.391 65.2227C201.602 63.0425 193.512 61.937 185.345 61.937C174.361 61.937 163.638 63.914 153.475 67.8131C143.657 71.5797 134.65 77.0207 126.705 83.985C118.806 90.9092 112.251 99.0792 107.221 108.268C102.069 117.682 98.7006 127.844 97.2113 138.472L97.0998 139.267L96.299 139.33C87.3408 140.031 78.7219 142.39 70.6818 146.34C62.8694 150.179 55.8932 155.371 49.947 161.771C37.7289 174.924 31 192.06 31 210.024C31 219.597 32.8748 228.884 36.5723 237.626C38.3495 241.828 40.5491 245.88 43.1102 249.671C45.6472 253.426 48.5607 256.957 51.7699 260.167C54.9791 263.376 58.5104 266.289 62.2655 268.826C66.0565 271.387 70.109 273.587 74.3106 275.364C83.0525 279.062 92.3391 280.937 101.913 280.937H293.345H305.437ZM305.437 281.937H293.345H101.913C62.1966 281.937 30 249.74 30 210.024C30 172.223 59.1646 141.234 96.221 138.333C102.35 94.5944 139.917 60.937 185.345 60.937C219.048 60.937 248.422 79.4602 263.845 106.883C273.087 103.678 283.012 101.937 293.345 101.937C343.051 101.937 383.345 142.231 383.345 191.937C383.345 206.393 379.936 220.055 373.879 232.16C364.544 261.045 337.431 281.937 305.437 281.937Z" fill="white" fill-opacity="0.5"/>
</g>
</g>
<defs>
<filter id="filter0_f_7_9328" x="5.64795" y="12.7632" width="381.698" height="340.673" filterUnits="userSpaceOnUse" color-interpolation-filters="sRGB">
<feFlood flood-opacity="0" result="BackgroundImageFix"/>
<feBlend mode="normal" in="SourceGraphic" in2="BackgroundImageFix" result="shape"/>
<feGaussianBlur stdDeviation="2" result="effect1_foregroundBlur_7_9328"/>
</filter>
<filter id="filter1_f_7_9328" x="0.577637" y="0.303223" width="164.15" height="133.561" filterUnits="userSpaceOnUse" color-interpolation-filters="sRGB">
<feFlood flood-opacity="0" result="BackgroundImageFix"/>
<feBlend mode="normal" in="SourceGraphic" in2="BackgroundImageFix" result="shape"/>
<feGaussianBlur stdDeviation="10" result="effect1_foregroundBlur_7_9328"/>
</filter>
<filter id="filter2_d_7_9328" x="10" y="32.937" width="413.345" height="281" filterUnits="userSpaceOnUse" color-interpolation-filters="sRGB">
<feFlood flood-opacity="0" result="BackgroundImageFix"/>
<feColorMatrix in="SourceAlpha" type="matrix" values="0 0 0 0 0 0 0 0 0 0 0 0 0 0 0 0 0 0 127 0" result="hardAlpha"/>
<feOffset dx="10" dy="2"/>
<feGaussianBlur stdDeviation="15"/>
<feColorMatrix type="matrix" values="0 0 0 0 0.501961 0 0 0 0 0.501961 0 0 0 0 0.501961 0 0 0 0.302 0"/>
<feBlend mode="normal" in2="BackgroundImageFix" result="effect1_dropShadow_7_9328"/>
<feBlend mode="normal" in="SourceGraphic" in2="effect1_dropShadow_7_9328" result="shape"/>
</filter>
<linearGradient id="paint0_linear_7_9328" x1="206.698" y1="60.9395" x2="309.341" y2="309.103" gradientUnits="userSpaceOnUse">
<stop stop-color="white" stop-opacity="0.604"/>
<stop offset="1" stop-color="white" stop-opacity="0.2"/>
</linearGradient>
</defs>
</svg>
