<svg width="436" height="370" viewBox="0 0 436 370" fill="none" xmlns="http://www.w3.org/2000/svg">
<g filter="url(#filter0_f_7_10204)">
<path d="M186.37 192.299C187.086 192.317 194.352 217.547 194.352 227.351C194.352 237.155 190.778 245.104 186.37 245.104C181.962 245.104 178.388 237.156 178.388 227.352C178.388 217.548 185.654 192.282 186.37 192.299Z" fill="#42A0F0"/>
<path d="M182.513 230.351C183.679 230.708 185.215 229.065 185.944 226.682C186.672 224.299 186.318 222.078 185.152 221.722C183.985 221.365 182.449 223.008 181.721 225.391C180.992 227.774 181.347 229.995 182.513 230.351Z" fill="white"/>
<path d="M245.795 192.299C246.511 192.317 253.777 217.547 253.777 227.351C253.777 237.155 250.203 245.104 245.795 245.104C241.387 245.104 237.813 237.156 237.813 227.352C237.813 217.548 245.079 192.282 245.795 192.299Z" fill="#42A0F0"/>
<path d="M241.939 230.351C243.105 230.708 244.641 229.065 245.37 226.682C246.098 224.299 245.744 222.078 244.577 221.722C243.411 221.365 241.875 223.008 241.147 225.391C240.418 227.774 240.773 229.995 241.939 230.351Z" fill="white"/>
<path d="M300.683 189.299C301.399 189.317 308.665 214.547 308.665 224.351C308.665 234.155 305.091 242.104 300.683 242.104C296.275 242.104 292.701 234.156 292.701 224.352C292.701 214.548 299.967 189.282 300.683 189.299Z" fill="#42A0F0"/>
<path d="M296.827 227.351C297.993 227.708 299.529 226.065 300.257 223.682C300.986 221.299 300.631 219.078 299.465 218.722C298.299 218.365 296.763 220.008 296.034 222.391C295.306 224.774 295.661 226.995 296.827 227.351Z" fill="white"/>
<path d="M214.335 259.299C215.051 259.317 222.317 284.547 222.317 294.351C222.317 304.155 218.743 312.104 214.335 312.104C209.927 312.104 206.353 304.156 206.353 294.352C206.353 284.548 213.619 259.282 214.335 259.299Z" fill="#42A0F0"/>
<path d="M210.478 297.351C211.644 297.708 213.18 296.065 213.909 293.682C214.637 291.299 214.283 289.078 213.116 288.722C211.95 288.365 210.414 290.008 209.686 292.391C208.957 294.774 209.312 296.995 210.478 297.351Z" fill="white"/>
<path d="M273.76 259.299C274.476 259.317 281.742 284.547 281.742 294.351C281.742 304.155 278.168 312.104 273.76 312.104C269.352 312.104 265.778 304.156 265.778 294.352C265.778 284.548 273.044 259.282 273.76 259.299Z" fill="#42A0F0"/>
<path d="M269.904 297.351C271.07 297.708 272.606 296.065 273.335 293.682C274.063 291.299 273.708 289.078 272.542 288.722C271.376 288.365 269.84 290.008 269.111 292.391C268.383 294.774 268.738 296.995 269.904 297.351Z" fill="white"/>
<path d="M336.683 259.299C337.399 259.317 344.665 284.547 344.665 294.351C344.665 304.155 341.091 312.104 336.683 312.104C332.275 312.104 328.701 304.156 328.701 294.352C328.701 284.548 335.967 259.282 336.683 259.299Z" fill="#42A0F0"/>
<path d="M332.827 297.351C333.993 297.708 335.529 296.065 336.257 293.682C336.986 291.299 336.631 289.078 335.465 288.722C334.299 288.365 332.763 290.008 332.034 292.391C331.306 294.774 331.661 296.995 332.827 297.351Z" fill="white"/>
<path d="M186.37 312.299C187.086 312.317 194.352 337.547 194.352 347.351C194.352 357.155 190.778 365.104 186.37 365.104C181.962 365.104 178.388 357.156 178.388 347.352C178.388 337.548 185.654 312.282 186.37 312.299Z" fill="#42A0F0"/>
<path d="M182.513 350.351C183.679 350.708 185.215 349.065 185.944 346.682C186.672 344.299 186.318 342.078 185.152 341.722C183.985 341.365 182.449 343.008 181.721 345.391C180.992 347.774 181.347 349.995 182.513 350.351Z" fill="white"/>
<path d="M245.795 312.299C246.511 312.317 253.777 337.547 253.777 347.351C253.777 357.155 250.203 365.104 245.795 365.104C241.387 365.104 237.813 357.156 237.813 347.352C237.813 337.548 245.079 312.282 245.795 312.299Z" fill="#42A0F0"/>
<path d="M241.939 350.351C243.105 350.708 244.641 349.065 245.37 346.682C246.098 344.299 245.744 342.078 244.577 341.722C243.411 341.365 241.875 343.008 241.147 345.391C240.418 347.774 240.773 349.995 241.939 350.351Z" fill="white"/>
<path d="M300.683 312.299C301.399 312.317 308.665 337.547 308.665 347.351C308.665 357.155 305.091 365.104 300.683 365.104C296.275 365.104 292.701 357.156 292.701 347.352C292.701 337.548 299.967 312.282 300.683 312.299Z" fill="#42A0F0"/>
<path d="M296.827 350.351C297.993 350.708 299.529 349.065 300.257 346.682C300.986 344.299 300.631 342.078 299.465 341.722C298.299 341.365 296.763 343.008 296.034 345.391C295.306 347.774 295.661 349.995 296.827 350.351Z" fill="white"/>
<path d="M100.698 199.252C150.641 199.252 191.129 158.559 191.129 108.362C191.129 58.1645 150.641 17.4717 100.698 17.4717C50.7539 17.4717 10.2666 58.1645 10.2666 108.362C10.2666 158.559 50.7539 199.252 100.698 199.252Z" fill="#FA9E42"/>
<g filter="url(#filter1_f_7_10204)">
<path d="M94.1638 95.436C124.219 79.4725 141.029 52.3094 131.711 34.7656C122.393 17.2217 90.4742 15.9406 60.4193 31.9041C30.3643 47.8676 13.554 75.0307 22.8723 92.5745C32.1906 110.118 64.1089 111.399 94.1638 95.436Z" fill="#F8E36F"/>
</g>
<path d="M114.53 227.424H161.176L134.361 266.802L165.714 267.396L99.9062 345.284L115.851 285.9H86.6602L114.53 227.424Z" fill="url(#paint0_linear_7_10204)"/>
<g filter="url(#filter2_d_7_10204)">
<path d="M305.345 253.943H113.913C95.3426 253.929 77.4976 246.731 64.1137 233.858C50.7298 220.984 42.8447 203.432 42.1092 184.876C41.3737 166.32 47.8448 148.199 60.1677 134.307C72.4906 120.414 89.71 111.827 108.221 110.343C110.861 91.7028 119.278 74.3595 132.289 60.7528C145.299 47.1461 162.248 37.9608 180.752 34.4892C199.255 31.0176 218.381 33.4344 235.439 41.3995C252.497 49.3647 266.628 62.4774 275.845 78.8928C292.75 73.041 311.015 72.3571 328.31 76.9285C345.605 81.4999 361.146 91.1193 372.952 104.56C384.757 118 392.292 134.653 394.594 152.393C396.896 170.133 393.862 188.157 385.879 204.166C381.194 218.631 372.047 231.239 359.751 240.182C347.455 249.125 332.641 253.942 317.437 253.943H305.345Z" fill="url(#paint1_linear_7_10204)"/>
<path d="M317.437 252.942C325.157 252.942 332.748 251.709 339.998 249.278C347.009 246.927 353.59 243.497 359.56 239.082C365.462 234.717 370.635 229.489 374.936 223.543C379.29 217.522 382.652 210.899 384.928 203.858L384.951 203.785L384.985 203.718C388.011 197.67 390.341 191.273 391.911 184.703C393.526 177.942 394.345 170.957 394.345 163.942C394.345 157.903 393.737 151.868 392.537 146.004C391.368 140.291 389.623 134.67 387.352 129.3C385.121 124.026 382.361 118.94 379.146 114.182C375.962 109.469 372.306 105.037 368.278 101.01C364.25 96.9818 359.819 93.3252 355.106 90.1412C350.348 86.9268 345.261 84.1661 339.988 81.9356C334.617 79.664 328.997 77.9193 323.283 76.7501C317.42 75.5502 311.385 74.9419 305.345 74.9419C295.346 74.9419 285.531 76.5876 276.172 79.8332L275.383 80.107L274.973 79.3786C267.357 65.8367 256.279 54.4641 242.937 46.4902C236.189 42.4577 228.94 39.3414 221.391 37.2281C213.602 35.0478 205.512 33.9424 197.345 33.9424C186.361 33.9424 175.638 35.9194 165.475 39.8184C155.657 43.5851 146.65 49.0261 138.705 55.9904C130.806 62.9146 124.251 71.0846 119.221 80.2732C114.069 89.6875 110.701 99.8497 109.211 110.477L109.1 111.273L108.299 111.335C99.3408 112.037 90.7219 114.395 82.6818 118.346C74.8694 122.184 67.8932 127.376 61.947 133.777C49.7289 146.929 43 164.066 43 182.029C43 191.603 44.8748 200.889 48.5723 209.631C50.3495 213.833 52.5491 217.885 55.1102 221.676C57.6472 225.432 60.5607 228.963 63.7699 232.172C66.9791 235.381 70.5104 238.295 74.2655 240.832C78.0565 243.393 82.109 245.592 86.3106 247.37C95.0525 251.067 104.339 252.942 113.913 252.942H305.345H317.437ZM317.437 253.942H305.345H113.913C74.1966 253.942 42 221.745 42 182.029C42 144.228 71.1646 113.239 108.221 110.339C114.35 66.5997 151.917 32.9424 197.345 32.9424C231.048 32.9424 260.422 51.4656 275.845 78.8884C285.087 75.6831 295.012 73.9419 305.345 73.9419C355.051 73.9419 395.345 114.237 395.345 163.942C395.345 178.398 391.936 192.061 385.879 204.165C376.544 233.051 349.431 253.942 317.437 253.942Z" fill="white" fill-opacity="0.5"/>
</g>
</g>
<defs>
<filter id="filter0_f_7_10204" x="6.2666" y="13.4717" width="393.079" height="355.632" filterUnits="userSpaceOnUse" color-interpolation-filters="sRGB">
<feFlood flood-opacity="0" result="BackgroundImageFix"/>
<feBlend mode="normal" in="SourceGraphic" in2="BackgroundImageFix" result="shape"/>
<feGaussianBlur stdDeviation="2" result="effect1_foregroundBlur_7_10204"/>
</filter>
<filter id="filter1_f_7_10204" x="0.301758" y="0.72168" width="153.979" height="125.896" filterUnits="userSpaceOnUse" color-interpolation-filters="sRGB">
<feFlood flood-opacity="0" result="BackgroundImageFix"/>
<feBlend mode="normal" in="SourceGraphic" in2="BackgroundImageFix" result="shape"/>
<feGaussianBlur stdDeviation="10" result="effect1_foregroundBlur_7_10204"/>
</filter>
<filter id="filter2_d_7_10204" x="22" y="4.94238" width="413.346" height="281" filterUnits="userSpaceOnUse" color-interpolation-filters="sRGB">
<feFlood flood-opacity="0" result="BackgroundImageFix"/>
<feColorMatrix in="SourceAlpha" type="matrix" values="0 0 0 0 0 0 0 0 0 0 0 0 0 0 0 0 0 0 127 0" result="hardAlpha"/>
<feOffset dx="10" dy="2"/>
<feGaussianBlur stdDeviation="15"/>
<feColorMatrix type="matrix" values="0 0 0 0 0.501961 0 0 0 0 0.501961 0 0 0 0 0.501961 0 0 0 0.302 0"/>
<feBlend mode="normal" in2="BackgroundImageFix" result="effect1_dropShadow_7_10204"/>
<feBlend mode="normal" in="SourceGraphic" in2="effect1_dropShadow_7_10204" result="shape"/>
</filter>
<linearGradient id="paint0_linear_7_10204" x1="118.914" y1="286.354" x2="81.9877" y2="272.816" gradientUnits="userSpaceOnUse">
<stop stop-color="#FFD100"/>
<stop offset="1" stop-color="#FFF0AA"/>
</linearGradient>
<linearGradient id="paint1_linear_7_10204" x1="218.698" y1="32.9453" x2="321.341" y2="281.109" gradientUnits="userSpaceOnUse">
<stop stop-color="white" stop-opacity="0.604"/>
<stop offset="1" stop-color="white" stop-opacity="0.2"/>
</linearGradient>
</defs>
</svg>
