<svg width="432" height="342" viewBox="0 0 432 342" fill="none" xmlns="http://www.w3.org/2000/svg">
<g filter="url(#filter0_f_7_10173)">
<path d="M178.632 208.299C179.263 208.317 185.667 233.547 185.667 243.351C185.667 253.155 182.517 261.104 178.632 261.104C174.747 261.104 171.597 253.156 171.597 243.352C171.597 233.548 177.997 208.282 178.632 208.299Z" fill="#42A0F0"/>
<path d="M177.559 237.721C178.587 238.078 178.899 240.298 178.257 242.681C177.615 245.065 176.261 246.707 175.233 246.351C174.206 245.995 173.892 243.773 174.535 241.39C175.178 239.007 176.53 237.364 177.559 237.721Z" fill="white"/>
<path d="M238.562 208.299C239.193 208.317 245.597 233.547 245.597 243.351C245.597 253.155 242.447 261.104 238.562 261.104C234.677 261.104 231.527 253.156 231.527 243.352C231.527 233.548 237.927 208.282 238.562 208.299Z" fill="#42A0F0"/>
<path d="M237.49 237.721C238.517 238.078 238.83 240.298 238.188 242.681C237.546 245.065 236.192 246.707 235.164 246.351C234.136 245.995 233.823 243.773 234.466 241.39C235.109 239.007 236.461 237.364 237.49 237.721Z" fill="white"/>
<path d="M298.494 205.299C299.125 205.317 305.529 230.547 305.529 240.351C305.529 250.155 302.379 258.104 298.494 258.104C294.609 258.104 291.459 250.156 291.459 240.352C291.459 230.548 297.859 205.282 298.494 205.299Z" fill="#42A0F0"/>
<path d="M297.422 234.721C298.449 235.078 298.762 237.298 298.12 239.681C297.478 242.065 296.124 243.707 295.096 243.351C294.068 242.995 293.755 240.773 294.398 238.39C295.041 236.007 296.393 234.364 297.422 234.721Z" fill="white"/>
<path d="M206.835 275.299C207.466 275.317 213.87 300.547 213.87 310.351C213.87 320.155 210.72 328.104 206.835 328.104C202.95 328.104 199.8 320.156 199.8 310.352C199.8 300.548 206.2 275.282 206.835 275.299Z" fill="#42A0F0"/>
<path d="M205.762 304.721C206.79 305.078 207.102 307.298 206.46 309.681C205.819 312.065 204.464 313.707 203.437 313.351C202.409 312.995 202.096 310.773 202.738 308.39C203.381 306.007 204.734 304.364 205.762 304.721Z" fill="white"/>
<path d="M266.765 275.299C267.396 275.317 273.8 300.547 273.8 310.351C273.8 320.155 270.65 328.104 266.765 328.104C262.88 328.104 259.73 320.156 259.73 310.352C259.73 300.548 266.13 275.282 266.765 275.299Z" fill="#42A0F0"/>
<path d="M265.693 304.721C266.721 305.078 267.033 307.298 266.391 309.681C265.749 312.065 264.395 313.707 263.367 313.351C262.339 312.995 262.026 310.773 262.669 308.39C263.312 306.007 264.664 304.364 265.693 304.721Z" fill="white"/>
<path d="M330.222 275.299C330.853 275.317 337.257 300.547 337.257 310.351C337.257 320.155 334.107 328.104 330.222 328.104C326.337 328.104 323.187 320.156 323.187 310.352C323.187 300.548 329.587 275.282 330.222 275.299Z" fill="#42A0F0"/>
<path d="M329.149 304.721C330.177 305.078 330.489 307.298 329.847 309.681C329.205 312.065 327.851 313.707 326.823 313.351C325.795 312.995 325.482 310.773 326.125 308.39C326.768 306.007 328.12 304.364 329.149 304.721Z" fill="white"/>
<path d="M106.8 235.424H147.211L123.982 269.535L151.142 270.049L94.1342 337.524L107.947 286.08H82.6602L106.8 235.424Z" fill="url(#paint0_linear_7_10173)"/>
<path d="M100.698 199.252C150.641 199.252 191.129 158.559 191.129 108.362C191.129 58.1645 150.641 17.4717 100.698 17.4717C50.7539 17.4717 10.2666 58.1645 10.2666 108.362C10.2666 158.559 50.7539 199.252 100.698 199.252Z" fill="#FA9E42"/>
<g filter="url(#filter1_f_7_10173)">
<path d="M94.1638 95.436C124.219 79.4725 141.029 52.3094 131.711 34.7656C122.393 17.2217 90.4742 15.9406 60.4193 31.9041C30.3643 47.8676 13.554 75.0307 22.8723 92.5745C32.1906 110.118 64.1089 111.399 94.1638 95.436Z" fill="#F8E36F"/>
</g>
<g filter="url(#filter2_d_7_10173)">
<path d="M301.345 266.943H109.913C91.3426 266.929 73.4976 259.731 60.1137 246.858C46.7298 233.984 38.8447 216.432 38.1092 197.876C37.3737 179.32 43.8448 161.199 56.1677 147.307C68.4906 133.414 85.71 124.827 104.221 123.343C106.861 104.703 115.278 87.3595 128.289 73.7528C141.299 60.1461 158.248 50.9608 176.752 47.4892C195.255 44.0176 214.381 46.4344 231.439 54.3995C248.497 62.3647 262.628 75.4774 271.845 91.8928C288.75 86.041 307.015 85.3571 324.31 89.9285C341.605 94.4999 357.146 104.119 368.952 117.56C380.757 131 388.292 147.653 390.594 165.393C392.896 183.133 389.862 201.157 381.879 217.166C377.194 231.631 368.047 244.239 355.751 253.182C343.455 262.125 328.641 266.942 313.437 266.943H301.345Z" fill="url(#paint1_linear_7_10173)"/>
<path d="M313.437 265.942C321.157 265.942 328.748 264.709 335.998 262.278C343.009 259.927 349.59 256.497 355.56 252.082C361.462 247.717 366.635 242.489 370.936 236.543C375.29 230.522 378.652 223.899 380.928 216.858L380.951 216.785L380.985 216.718C384.011 210.67 386.341 204.273 387.911 197.703C389.526 190.942 390.345 183.957 390.345 176.942C390.345 170.903 389.737 164.868 388.537 159.004C387.368 153.291 385.623 147.67 383.352 142.3C381.121 137.026 378.361 131.94 375.146 127.182C371.962 122.469 368.306 118.037 364.278 114.01C360.25 109.982 355.819 106.325 351.106 103.141C346.348 99.9268 341.261 97.1661 335.988 94.9356C330.617 92.664 324.997 90.9193 319.283 89.7501C313.42 88.5502 307.385 87.9419 301.345 87.9419C291.346 87.9419 281.531 89.5876 272.172 92.8332L271.383 93.107L270.973 92.3786C263.357 78.8367 252.279 67.4641 238.937 59.4902C232.189 55.4577 224.94 52.3414 217.391 50.2281C209.602 48.0478 201.512 46.9424 193.345 46.9424C182.361 46.9424 171.638 48.9194 161.475 52.8184C151.657 56.5851 142.65 62.0261 134.705 68.9904C126.806 75.9146 120.251 84.0846 115.221 93.2732C110.069 102.688 106.701 112.85 105.211 123.477L105.1 124.273L104.299 124.335C95.3408 125.037 86.7219 127.395 78.6818 131.346C70.8694 135.184 63.8932 140.376 57.947 146.777C45.7289 159.929 39 177.066 39 195.029C39 204.603 40.8748 213.889 44.5723 222.631C46.3495 226.833 48.5491 230.885 51.1102 234.676C53.6472 238.432 56.5607 241.963 59.7699 245.172C62.9791 248.381 66.5104 251.295 70.2655 253.832C74.0565 256.393 78.109 258.592 82.3106 260.37C91.0525 264.067 100.339 265.942 109.913 265.942H301.345H313.437ZM313.437 266.942H301.345H109.913C70.1966 266.942 38 234.745 38 195.029C38 157.228 67.1646 126.239 104.221 123.339C110.35 79.5997 147.917 45.9424 193.345 45.9424C227.048 45.9424 256.422 64.4656 271.845 91.8884C281.087 88.6831 291.012 86.9419 301.345 86.9419C351.051 86.9419 391.345 127.237 391.345 176.942C391.345 191.398 387.936 205.061 381.879 217.165C372.544 246.051 345.431 266.942 313.437 266.942Z" fill="white" fill-opacity="0.5"/>
</g>
</g>
<defs>
<filter id="filter0_f_7_10173" x="6.2666" y="13.4717" width="389.079" height="328.052" filterUnits="userSpaceOnUse" color-interpolation-filters="sRGB">
<feFlood flood-opacity="0" result="BackgroundImageFix"/>
<feBlend mode="normal" in="SourceGraphic" in2="BackgroundImageFix" result="shape"/>
<feGaussianBlur stdDeviation="2" result="effect1_foregroundBlur_7_10173"/>
</filter>
<filter id="filter1_f_7_10173" x="0.301758" y="0.72168" width="153.979" height="125.896" filterUnits="userSpaceOnUse" color-interpolation-filters="sRGB">
<feFlood flood-opacity="0" result="BackgroundImageFix"/>
<feBlend mode="normal" in="SourceGraphic" in2="BackgroundImageFix" result="shape"/>
<feGaussianBlur stdDeviation="10" result="effect1_foregroundBlur_7_10173"/>
</filter>
<filter id="filter2_d_7_10173" x="18" y="17.9424" width="413.346" height="281" filterUnits="userSpaceOnUse" color-interpolation-filters="sRGB">
<feFlood flood-opacity="0" result="BackgroundImageFix"/>
<feColorMatrix in="SourceAlpha" type="matrix" values="0 0 0 0 0 0 0 0 0 0 0 0 0 0 0 0 0 0 127 0" result="hardAlpha"/>
<feOffset dx="10" dy="2"/>
<feGaussianBlur stdDeviation="15"/>
<feColorMatrix type="matrix" values="0 0 0 0 0.501961 0 0 0 0 0.501961 0 0 0 0 0.501961 0 0 0 0.302 0"/>
<feBlend mode="normal" in2="BackgroundImageFix" result="effect1_dropShadow_7_10173"/>
<feBlend mode="normal" in="SourceGraphic" in2="effect1_dropShadow_7_10173" result="shape"/>
</filter>
<linearGradient id="paint0_linear_7_10173" x1="110.601" y1="286.474" x2="78.6124" y2="274.747" gradientUnits="userSpaceOnUse">
<stop stop-color="#FFD100"/>
<stop offset="1" stop-color="#FFF0AA"/>
</linearGradient>
<linearGradient id="paint1_linear_7_10173" x1="214.698" y1="45.9453" x2="317.341" y2="294.109" gradientUnits="userSpaceOnUse">
<stop stop-color="white" stop-opacity="0.604"/>
<stop offset="1" stop-color="white" stop-opacity="0.2"/>
</linearGradient>
</defs>
</svg>
