<svg width="429" height="377" viewBox="0 0 429 377" fill="none" xmlns="http://www.w3.org/2000/svg">
<path d="M179.09 203.426C179.806 203.444 187.072 228.674 187.072 238.478C187.072 248.282 183.498 256.231 179.09 256.231C174.682 256.231 171.108 248.283 171.108 238.479C171.108 228.675 178.374 203.409 179.09 203.426Z" fill="#42A0F0"/>
<path d="M175.233 241.478C176.399 241.835 177.935 240.192 178.664 237.809C179.392 235.426 179.037 233.205 177.871 232.849C176.705 232.492 175.169 234.135 174.441 236.518C173.712 238.901 174.067 241.122 175.233 241.478Z" fill="white"/>
<path d="M238.516 203.426C239.232 203.444 246.498 228.674 246.498 238.478C246.498 248.282 242.924 256.231 238.516 256.231C234.108 256.231 230.534 248.283 230.534 238.479C230.534 228.675 237.8 203.409 238.516 203.426Z" fill="#42A0F0"/>
<path d="M234.659 241.478C235.825 241.835 237.361 240.192 238.089 237.809C238.818 235.426 238.463 233.205 237.297 232.849C236.131 232.492 234.595 234.135 233.866 236.518C233.138 238.901 233.493 241.122 234.659 241.478Z" fill="white"/>
<path d="M293.403 200.426C294.119 200.444 301.385 225.674 301.385 235.478C301.385 245.282 297.811 253.231 293.403 253.231C288.995 253.231 285.421 245.283 285.421 235.479C285.421 225.675 292.687 200.409 293.403 200.426Z" fill="#42A0F0"/>
<path d="M289.546 238.478C290.712 238.835 292.248 237.192 292.977 234.809C293.705 232.426 293.35 230.205 292.184 229.849C291.018 229.492 289.482 231.135 288.754 233.518C288.025 235.901 288.38 238.122 289.546 238.478Z" fill="white"/>
<path d="M207.055 270.426C207.771 270.444 215.037 295.674 215.037 305.478C215.037 315.282 211.463 323.231 207.055 323.231C202.647 323.231 199.073 315.283 199.073 305.479C199.073 295.675 206.339 270.409 207.055 270.426Z" fill="#42A0F0"/>
<path d="M203.198 308.478C204.364 308.835 205.9 307.192 206.628 304.809C207.357 302.426 207.002 300.205 205.836 299.849C204.67 299.492 203.134 301.135 202.405 303.518C201.677 305.901 202.032 308.122 203.198 308.478Z" fill="white"/>
<path d="M266.481 270.426C267.197 270.444 274.463 295.674 274.463 305.478C274.463 315.282 270.889 323.231 266.481 323.231C262.073 323.231 258.499 315.283 258.499 305.479C258.499 295.675 265.765 270.409 266.481 270.426Z" fill="#42A0F0"/>
<path d="M262.624 308.478C263.79 308.835 265.326 307.192 266.055 304.809C266.783 302.426 266.429 300.205 265.262 299.849C264.096 299.492 262.56 301.135 261.832 303.518C261.103 305.901 261.458 308.122 262.624 308.478Z" fill="white"/>
<path d="M329.403 270.426C330.119 270.444 337.385 295.674 337.385 305.478C337.385 315.282 333.811 323.231 329.403 323.231C324.995 323.231 321.421 315.283 321.421 305.479C321.421 295.675 328.687 270.409 329.403 270.426Z" fill="#42A0F0"/>
<path d="M325.546 308.478C326.712 308.835 328.248 307.192 328.977 304.809C329.705 302.426 329.35 300.205 328.184 299.849C327.018 299.492 325.482 301.135 324.754 303.518C324.025 305.901 324.38 308.122 325.546 308.478Z" fill="white"/>
<path d="M179.09 323.426C179.806 323.444 187.072 348.674 187.072 358.478C187.072 368.282 183.498 376.231 179.09 376.231C174.682 376.231 171.108 368.283 171.108 358.479C171.108 348.675 178.374 323.409 179.09 323.426Z" fill="#42A0F0"/>
<path d="M175.233 361.478C176.399 361.835 177.935 360.192 178.664 357.809C179.392 355.426 179.037 353.205 177.871 352.849C176.705 352.492 175.169 354.135 174.441 356.518C173.712 358.901 174.067 361.122 175.233 361.478Z" fill="white"/>
<path d="M238.516 323.426C239.232 323.444 246.498 348.674 246.498 358.478C246.498 368.282 242.924 376.231 238.516 376.231C234.108 376.231 230.534 368.283 230.534 358.479C230.534 348.675 237.8 323.409 238.516 323.426Z" fill="#42A0F0"/>
<path d="M234.659 361.478C235.825 361.835 237.361 360.192 238.089 357.809C238.818 355.426 238.463 353.205 237.297 352.849C236.131 352.492 234.595 354.135 233.866 356.518C233.138 358.901 233.493 361.122 234.659 361.478Z" fill="white"/>
<path d="M293.403 323.426C294.119 323.444 301.385 348.674 301.385 358.478C301.385 368.282 297.811 376.231 293.403 376.231C288.995 376.231 285.421 368.283 285.421 358.479C285.421 348.675 292.687 323.409 293.403 323.426Z" fill="#42A0F0"/>
<path d="M289.546 361.478C290.712 361.835 292.248 360.192 292.977 357.809C293.705 355.426 293.35 353.205 292.184 352.849C291.018 352.492 289.482 354.135 288.754 356.518C288.025 358.901 288.38 361.122 289.546 361.478Z" fill="white"/>
<path d="M107.25 238.551H153.896L127.081 277.929L158.434 278.523L92.6259 356.411L108.571 297.027H79.3799L107.25 238.551Z" fill="url(#paint0_linear_7_10296)"/>
<path d="M96.5442 5.34885C103.097 5.34746 109.634 6.00983 116.053 7.32584C128.443 9.87785 140.207 14.8532 150.668 21.9658C165.161 31.7891 176.741 45.3352 184.189 61.1803C191.638 77.0253 194.681 94.5843 192.998 112.012C191.315 129.439 184.969 146.092 174.626 160.219C164.283 174.346 150.326 185.426 134.221 192.295C128.367 194.782 122.279 196.681 116.049 197.964C102.54 200.704 88.601 200.534 75.1622 197.465C61.7233 194.396 49.0929 188.498 38.1122 180.165C27.1316 171.831 18.053 161.254 11.4813 149.136C4.90956 137.019 0.995621 123.64 0.000213623 109.891C5.63342 111.211 11.4003 111.877 17.1862 111.875C32.0885 111.899 46.655 107.449 59.0002 99.1018C71.025 90.9866 80.4385 79.5584 86.1002 66.2018C89.9978 56.9924 91.9967 47.0911 91.9772 37.0908C91.978 31.6601 91.3909 26.2452 90.2262 20.9408C89.0925 15.801 87.4164 10.7959 85.2262 6.00984C88.9829 5.57077 92.7619 5.35007 96.5442 5.34885Z" fill="#713FFD"/>
<path d="M162.048 35.4269C140.318 15.8611 111.85 12.0515 98.4646 26.918C85.0787 41.7845 91.8431 69.6975 113.573 89.2633C135.303 108.829 163.77 112.639 177.156 97.7722C190.542 82.9057 183.778 54.9928 162.048 35.4269Z" fill="#A586FC"/>
<g filter="url(#filter0_d_7_10296)">
<path d="M298.065 265.069H106.633C88.0624 265.055 70.2173 257.857 56.8334 244.984C43.4495 232.11 35.5645 214.558 34.8289 196.002C34.0934 177.446 40.5645 159.325 52.8874 145.433C65.2103 131.54 82.4297 122.953 100.941 121.469C103.581 102.829 111.998 85.4854 125.008 71.8787C138.019 58.272 154.968 49.0868 173.471 45.6152C191.974 42.1436 211.1 44.5604 228.158 52.5255C245.216 60.4907 259.348 73.6034 268.565 90.0188C285.47 84.1669 303.734 83.4831 321.029 88.0545C338.324 92.6258 353.866 102.245 365.671 115.686C377.477 129.126 385.011 145.779 387.314 163.519C389.616 181.259 386.582 199.283 378.599 215.292C373.914 229.757 364.767 242.365 352.471 251.308C340.175 260.251 325.361 265.068 310.157 265.069H298.065Z" fill="url(#paint1_linear_7_10296)"/>
<path d="M310.157 264.068C317.877 264.068 325.467 262.835 332.717 260.404C339.728 258.053 346.31 254.623 352.28 250.207C358.181 245.843 363.354 240.615 367.655 234.669C372.01 228.648 375.372 222.025 377.647 214.983L377.671 214.911L377.705 214.843C380.731 208.796 383.061 202.399 384.631 195.829C386.246 189.068 387.065 182.083 387.065 175.068C387.065 169.029 386.457 162.994 385.257 157.13C384.088 151.416 382.343 145.796 380.072 140.426C377.841 135.152 375.08 130.066 371.866 125.308C368.682 120.595 365.025 116.163 360.998 112.136C356.97 108.108 352.538 104.451 347.825 101.267C343.067 98.0528 337.981 95.292 332.708 93.0616C327.337 90.7899 321.717 89.0453 316.003 87.876C310.139 86.6762 304.104 86.0679 298.065 86.0679C288.066 86.0679 278.25 87.7135 268.892 90.9591L268.102 91.233L267.693 90.5045C260.077 76.9627 248.999 65.59 235.657 57.6162C228.909 53.5836 221.66 50.4674 214.11 48.3541C206.322 46.1738 198.232 45.0684 190.065 45.0684C179.08 45.0684 168.357 47.0454 158.194 50.9444C148.376 54.711 139.37 60.1521 131.425 67.1164C123.526 74.0406 116.97 82.2105 111.941 91.3992C106.788 100.813 103.42 110.976 101.931 121.603L101.82 122.399L101.019 122.461C92.0605 123.163 83.4416 125.521 75.4015 129.472C67.5891 133.31 60.6129 138.502 54.6667 144.903C42.4486 158.055 35.7197 175.192 35.7197 193.155C35.7197 202.729 37.5945 212.015 41.292 220.757C43.0692 224.959 45.2689 229.011 47.83 232.802C50.3669 236.558 53.2805 240.089 56.4896 243.298C59.6988 246.507 63.2301 249.421 66.9852 251.958C70.7762 254.519 74.8287 256.718 79.0304 258.496C87.7722 262.193 97.0589 264.068 106.632 264.068H298.065H310.157ZM310.157 265.068H298.065H106.632C66.9163 265.068 34.7197 232.871 34.7197 193.155C34.7197 155.354 63.8844 124.365 100.941 121.464C107.07 77.7257 144.637 44.0684 190.065 44.0684C223.767 44.0684 253.142 62.5916 268.564 90.0144C277.807 86.809 287.732 85.0679 298.065 85.0679C347.771 85.0679 388.065 125.363 388.065 175.068C388.065 189.524 384.656 203.187 378.599 215.291C369.264 244.176 342.15 265.068 310.157 265.068Z" fill="white" fill-opacity="0.5"/>
</g>
<defs>
<filter id="filter0_d_7_10296" x="14.7197" y="16.0684" width="413.345" height="281" filterUnits="userSpaceOnUse" color-interpolation-filters="sRGB">
<feFlood flood-opacity="0" result="BackgroundImageFix"/>
<feColorMatrix in="SourceAlpha" type="matrix" values="0 0 0 0 0 0 0 0 0 0 0 0 0 0 0 0 0 0 127 0" result="hardAlpha"/>
<feOffset dx="10" dy="2"/>
<feGaussianBlur stdDeviation="15"/>
<feColorMatrix type="matrix" values="0 0 0 0 0.501961 0 0 0 0 0.501961 0 0 0 0 0.501961 0 0 0 0.302 0"/>
<feBlend mode="normal" in2="BackgroundImageFix" result="effect1_dropShadow_7_10296"/>
<feBlend mode="normal" in="SourceGraphic" in2="effect1_dropShadow_7_10296" result="shape"/>
</filter>
<linearGradient id="paint0_linear_7_10296" x1="111.634" y1="297.481" x2="74.7074" y2="283.943" gradientUnits="userSpaceOnUse">
<stop stop-color="#FFD100"/>
<stop offset="1" stop-color="#FFF0AA"/>
</linearGradient>
<linearGradient id="paint1_linear_7_10296" x1="211.418" y1="44.0713" x2="314.06" y2="292.235" gradientUnits="userSpaceOnUse">
<stop stop-color="white" stop-opacity="0.604"/>
<stop offset="1" stop-color="white" stop-opacity="0.2"/>
</linearGradient>
</defs>
</svg>
