<svg width="420" height="354" viewBox="0 0 420 354" fill="none" xmlns="http://www.w3.org/2000/svg">
<g filter="url(#filter0_f_7_10265)">
<path d="M166.352 220.426C166.983 220.444 173.387 245.674 173.387 255.478C173.387 265.282 170.237 273.231 166.352 273.231C162.467 273.231 159.317 265.283 159.317 255.479C159.317 245.675 165.717 220.409 166.352 220.426Z" fill="#42A0F0"/>
<path d="M165.279 249.848C166.306 250.205 166.619 252.425 165.977 254.808C165.335 257.192 163.981 258.834 162.953 258.478C161.925 258.122 161.612 255.9 162.255 253.517C162.898 251.134 164.25 249.491 165.279 249.848Z" fill="white"/>
<path d="M226.283 220.426C226.914 220.444 233.318 245.674 233.318 255.478C233.318 265.282 230.168 273.231 226.283 273.231C222.398 273.231 219.248 265.283 219.248 255.479C219.248 245.675 225.648 220.409 226.283 220.426Z" fill="#42A0F0"/>
<path d="M225.21 249.848C226.238 250.205 226.55 252.425 225.908 254.808C225.266 257.192 223.912 258.834 222.884 258.478C221.856 258.122 221.543 255.9 222.186 253.517C222.829 251.134 224.181 249.491 225.21 249.848Z" fill="white"/>
<path d="M286.214 217.426C286.845 217.444 293.249 242.674 293.249 252.478C293.249 262.282 290.099 270.231 286.214 270.231C282.329 270.231 279.179 262.283 279.179 252.479C279.179 242.675 285.579 217.409 286.214 217.426Z" fill="#42A0F0"/>
<path d="M285.141 246.848C286.168 247.205 286.481 249.425 285.839 251.808C285.197 254.192 283.843 255.834 282.815 255.478C281.787 255.122 281.474 252.9 282.117 250.517C282.76 248.134 284.112 246.491 285.141 246.848Z" fill="white"/>
<path d="M194.555 287.426C195.186 287.444 201.59 312.674 201.59 322.478C201.59 332.282 198.44 340.231 194.555 340.231C190.67 340.231 187.52 332.283 187.52 322.479C187.52 312.675 193.92 287.409 194.555 287.426Z" fill="#42A0F0"/>
<path d="M193.482 316.848C194.51 317.205 194.822 319.425 194.18 321.808C193.538 324.192 192.184 325.834 191.156 325.478C190.128 325.122 189.815 322.9 190.458 320.517C191.101 318.134 192.453 316.491 193.482 316.848Z" fill="white"/>
<path d="M254.486 287.426C255.117 287.444 261.521 312.674 261.521 322.478C261.521 332.282 258.371 340.231 254.486 340.231C250.601 340.231 247.451 332.283 247.451 322.479C247.451 312.675 253.851 287.409 254.486 287.426Z" fill="#42A0F0"/>
<path d="M253.413 316.848C254.44 317.205 254.753 319.425 254.111 321.808C253.469 324.192 252.115 325.834 251.087 325.478C250.059 325.122 249.746 322.9 250.389 320.517C251.032 318.134 252.384 316.491 253.413 316.848Z" fill="white"/>
<path d="M317.942 287.426C318.573 287.444 324.977 312.674 324.977 322.478C324.977 332.282 321.827 340.231 317.942 340.231C314.057 340.231 310.907 332.283 310.907 322.479C310.907 312.675 317.307 287.409 317.942 287.426Z" fill="#42A0F0"/>
<path d="M316.869 316.848C317.896 317.205 318.209 319.425 317.567 321.808C316.925 324.192 315.571 325.834 314.543 325.478C313.515 325.122 313.202 322.9 313.845 320.517C314.488 318.134 315.84 316.491 316.869 316.848Z" fill="white"/>
<path d="M100.544 8.34885C107.097 8.34746 113.634 9.00983 120.053 10.3258C132.443 12.8779 144.207 17.8532 154.668 24.9658C169.161 34.7891 180.741 48.3352 188.189 64.1803C195.638 80.0253 198.681 97.5843 196.998 115.012C195.315 132.439 188.969 149.092 178.626 163.219C168.283 177.346 154.326 188.426 138.221 195.295C132.367 197.782 126.279 199.681 120.049 200.964C106.54 203.704 92.601 203.534 79.1622 200.465C65.7233 197.396 53.0929 191.498 42.1122 183.165C31.1316 174.831 22.053 164.254 15.4813 152.136C8.90956 140.019 4.99562 126.64 4.00021 112.891C9.63342 114.211 15.4003 114.877 21.1862 114.875C36.0885 114.899 50.655 110.449 63.0002 102.102C75.025 93.9866 84.4385 82.5584 90.1002 69.2018C93.9978 59.9924 95.9967 50.0911 95.9772 40.0908C95.978 34.6601 95.3909 29.2452 94.2262 23.9408C93.0925 18.801 91.4164 13.7959 89.2262 9.00984C92.9829 8.57077 96.7619 8.35007 100.544 8.34885Z" fill="#713FFD"/>
<g filter="url(#filter1_f_7_10265)">
<path d="M166.048 38.4269C144.318 18.8611 115.85 15.0515 102.465 29.918C89.0787 44.7845 95.8431 72.6975 117.573 92.2633C139.303 111.829 167.77 115.639 181.156 100.772C194.542 85.9057 187.778 57.9928 166.048 38.4269Z" fill="#A586FC"/>
</g>
<path d="M94.5209 247.551H134.932L111.703 281.662L138.863 282.176L81.8549 349.651L95.6679 298.207H70.3809L94.5209 247.551Z" fill="url(#paint0_linear_7_10265)"/>
<g filter="url(#filter2_d_7_10265)">
<path d="M289.066 279.069H97.6338C79.0633 279.055 61.2183 271.857 47.8344 258.984C34.4505 246.11 26.5654 228.558 25.8299 210.002C25.0944 191.446 31.5655 173.325 43.8884 159.433C56.2113 145.54 73.4307 136.953 91.9417 135.469C94.5815 116.829 102.999 99.4854 116.009 85.8787C129.02 72.272 145.969 63.0868 164.472 59.6152C182.975 56.1436 202.101 58.5604 219.159 66.5255C236.217 74.4907 250.349 87.6034 259.566 104.019C276.471 98.1669 294.735 97.4831 312.03 102.054C329.325 106.626 344.867 116.245 356.672 129.686C368.478 143.126 376.012 159.779 378.315 177.519C380.617 195.259 377.583 213.283 369.6 229.292C364.915 243.757 355.768 256.365 343.472 265.308C331.176 274.251 316.362 279.068 301.158 279.069H289.066Z" fill="url(#paint1_linear_7_10265)"/>
<path d="M301.158 278.068C308.878 278.068 316.468 276.835 323.718 274.404C330.729 272.053 337.311 268.623 343.281 264.207C349.182 259.843 354.355 254.615 358.656 248.669C363.011 242.648 366.373 236.025 368.648 228.983L368.672 228.911L368.706 228.843C371.732 222.796 374.062 216.399 375.632 209.829C377.247 203.068 378.066 196.083 378.066 189.068C378.066 183.029 377.458 176.994 376.258 171.13C375.089 165.416 373.344 159.796 371.073 154.426C368.842 149.152 366.081 144.066 362.867 139.308C359.683 134.595 356.026 130.163 351.999 126.136C347.971 122.108 343.539 118.451 338.826 115.267C334.068 112.053 328.982 109.292 323.709 107.062C318.338 104.79 312.718 103.045 307.004 101.876C301.14 100.676 295.105 100.068 289.066 100.068C279.067 100.068 269.251 101.714 259.893 104.959L259.103 105.233L258.694 104.505C251.078 90.9627 240 79.59 226.658 71.6162C219.91 67.5836 212.661 64.4674 205.111 62.3541C197.323 60.1738 189.233 59.0684 181.066 59.0684C170.081 59.0684 159.358 61.0454 149.195 64.9444C139.377 68.711 130.371 74.1521 122.426 81.1164C114.527 88.0406 107.971 96.2105 102.942 105.399C97.7892 114.813 94.4213 124.976 92.932 135.603L92.8205 136.399L92.0197 136.461C83.0615 137.163 74.4426 139.521 66.4025 143.472C58.5901 147.31 51.6139 152.502 45.6677 158.903C33.4496 172.055 26.7207 189.192 26.7207 207.155C26.7207 216.729 28.5955 226.015 32.293 234.757C34.0702 238.959 36.2698 243.011 38.8309 246.802C41.3679 250.558 44.2814 254.089 47.4906 257.298C50.6998 260.507 54.2311 263.421 57.9862 265.958C61.7772 268.519 65.8297 270.718 70.0313 272.496C78.7732 276.193 88.0598 278.068 97.6334 278.068H289.066H301.158ZM301.158 279.068H289.066H97.6334C57.9173 279.068 25.7207 246.871 25.7207 207.155C25.7207 169.354 54.8853 138.365 91.9417 135.464C98.0711 91.7257 135.638 58.0684 181.066 58.0684C214.768 58.0684 244.143 76.5916 259.565 104.014C268.807 100.809 278.733 99.0679 289.066 99.0679C338.772 99.0679 379.066 139.363 379.066 189.068C379.066 203.524 375.656 217.187 369.6 229.291C360.265 258.176 333.151 279.068 301.158 279.068Z" fill="white" fill-opacity="0.5"/>
</g>
</g>
<defs>
<filter id="filter0_f_7_10265" x="0" y="4.34863" width="383.066" height="349.302" filterUnits="userSpaceOnUse" color-interpolation-filters="sRGB">
<feFlood flood-opacity="0" result="BackgroundImageFix"/>
<feBlend mode="normal" in="SourceGraphic" in2="BackgroundImageFix" result="shape"/>
<feGaussianBlur stdDeviation="2" result="effect1_foregroundBlur_7_10265"/>
</filter>
<filter id="filter1_f_7_10265" x="75.5918" y="0.849609" width="132.437" height="128.991" filterUnits="userSpaceOnUse" color-interpolation-filters="sRGB">
<feFlood flood-opacity="0" result="BackgroundImageFix"/>
<feBlend mode="normal" in="SourceGraphic" in2="BackgroundImageFix" result="shape"/>
<feGaussianBlur stdDeviation="10" result="effect1_foregroundBlur_7_10265"/>
</filter>
<filter id="filter2_d_7_10265" x="5.7207" y="30.0684" width="413.345" height="281" filterUnits="userSpaceOnUse" color-interpolation-filters="sRGB">
<feFlood flood-opacity="0" result="BackgroundImageFix"/>
<feColorMatrix in="SourceAlpha" type="matrix" values="0 0 0 0 0 0 0 0 0 0 0 0 0 0 0 0 0 0 127 0" result="hardAlpha"/>
<feOffset dx="10" dy="2"/>
<feGaussianBlur stdDeviation="15"/>
<feColorMatrix type="matrix" values="0 0 0 0 0.501961 0 0 0 0 0.501961 0 0 0 0 0.501961 0 0 0 0.302 0"/>
<feBlend mode="normal" in2="BackgroundImageFix" result="effect1_dropShadow_7_10265"/>
<feBlend mode="normal" in="SourceGraphic" in2="effect1_dropShadow_7_10265" result="shape"/>
</filter>
<linearGradient id="paint0_linear_7_10265" x1="98.3215" y1="298.601" x2="66.3331" y2="286.874" gradientUnits="userSpaceOnUse">
<stop stop-color="#FFD100"/>
<stop offset="1" stop-color="#FFF0AA"/>
</linearGradient>
<linearGradient id="paint1_linear_7_10265" x1="202.419" y1="58.0713" x2="305.061" y2="306.235" gradientUnits="userSpaceOnUse">
<stop stop-color="white" stop-opacity="0.604"/>
<stop offset="1" stop-color="white" stop-opacity="0.2"/>
</linearGradient>
</defs>
</svg>
