<svg width="414" height="365" viewBox="0 0 414 365" fill="none" xmlns="http://www.w3.org/2000/svg">
<g filter="url(#filter0_f_7_10010)">
<path d="M164.37 187.357C165.086 187.375 172.352 212.605 172.352 222.409C172.352 232.213 168.778 240.162 164.37 240.162C159.962 240.162 156.388 232.214 156.388 222.41C156.388 212.606 163.654 187.34 164.37 187.357Z" fill="#42A0F0"/>
<path d="M160.513 225.41C161.679 225.767 163.215 224.124 163.944 221.741C164.672 219.358 164.318 217.137 163.152 216.78C161.985 216.424 160.449 218.067 159.721 220.45C158.992 222.833 159.347 225.053 160.513 225.41Z" fill="white"/>
<path d="M223.795 187.357C224.511 187.375 231.777 212.605 231.777 222.409C231.777 232.213 228.203 240.162 223.795 240.162C219.387 240.162 215.813 232.214 215.813 222.41C215.813 212.606 223.079 187.34 223.795 187.357Z" fill="#42A0F0"/>
<path d="M219.939 225.41C221.105 225.767 222.641 224.124 223.37 221.741C224.098 219.358 223.744 217.137 222.577 216.78C221.411 216.424 219.875 218.067 219.147 220.45C218.418 222.833 218.773 225.053 219.939 225.41Z" fill="white"/>
<path d="M278.683 184.357C279.399 184.375 286.665 209.605 286.665 219.409C286.665 229.213 283.091 237.162 278.683 237.162C274.275 237.162 270.701 229.214 270.701 219.41C270.701 209.606 277.967 184.34 278.683 184.357Z" fill="#42A0F0"/>
<path d="M274.827 222.41C275.993 222.767 277.529 221.124 278.257 218.741C278.986 216.358 278.631 214.137 277.465 213.78C276.299 213.424 274.763 215.067 274.034 217.45C273.306 219.833 273.661 222.053 274.827 222.41Z" fill="white"/>
<path d="M192.335 254.357C193.051 254.375 200.317 279.605 200.317 289.409C200.317 299.213 196.743 307.162 192.335 307.162C187.927 307.162 184.353 299.214 184.353 289.41C184.353 279.606 191.619 254.34 192.335 254.357Z" fill="#42A0F0"/>
<path d="M188.478 292.41C189.644 292.767 191.18 291.124 191.909 288.741C192.637 286.358 192.283 284.137 191.116 283.78C189.95 283.424 188.414 285.067 187.686 287.45C186.957 289.833 187.312 292.053 188.478 292.41Z" fill="white"/>
<path d="M251.76 254.357C252.476 254.375 259.742 279.605 259.742 289.409C259.742 299.213 256.168 307.162 251.76 307.162C247.352 307.162 243.778 299.214 243.778 289.41C243.778 279.606 251.044 254.34 251.76 254.357Z" fill="#42A0F0"/>
<path d="M247.904 292.41C249.07 292.767 250.606 291.124 251.335 288.741C252.063 286.358 251.708 284.137 250.542 283.78C249.376 283.424 247.84 285.067 247.111 287.45C246.383 289.833 246.738 292.053 247.904 292.41Z" fill="white"/>
<path d="M314.683 254.357C315.399 254.375 322.665 279.605 322.665 289.409C322.665 299.213 319.091 307.162 314.683 307.162C310.275 307.162 306.701 299.214 306.701 289.41C306.701 279.606 313.967 254.34 314.683 254.357Z" fill="#42A0F0"/>
<path d="M310.827 292.41C311.993 292.767 313.529 291.124 314.257 288.741C314.986 286.358 314.631 284.137 313.465 283.78C312.299 283.424 310.763 285.067 310.034 287.45C309.306 289.833 309.661 292.053 310.827 292.41Z" fill="white"/>
<path d="M164.37 307.357C165.086 307.375 172.352 332.605 172.352 342.409C172.352 352.213 168.778 360.162 164.37 360.162C159.962 360.162 156.388 352.214 156.388 342.41C156.388 332.606 163.654 307.34 164.37 307.357Z" fill="#42A0F0"/>
<path d="M160.513 345.41C161.679 345.767 163.215 344.124 163.944 341.741C164.672 339.358 164.318 337.137 163.152 336.78C161.985 336.424 160.449 338.067 159.721 340.45C158.992 342.833 159.347 345.053 160.513 345.41Z" fill="white"/>
<path d="M223.795 307.357C224.511 307.375 231.777 332.605 231.777 342.409C231.777 352.213 228.203 360.162 223.795 360.162C219.387 360.162 215.813 352.214 215.813 342.41C215.813 332.606 223.079 307.34 223.795 307.357Z" fill="#42A0F0"/>
<path d="M219.939 345.41C221.105 345.767 222.641 344.124 223.37 341.741C224.098 339.358 223.744 337.137 222.577 336.78C221.411 336.424 219.875 338.067 219.147 340.45C218.418 342.833 218.773 345.053 219.939 345.41Z" fill="white"/>
<path d="M278.683 307.357C279.399 307.375 286.665 332.605 286.665 342.409C286.665 352.213 283.091 360.162 278.683 360.162C274.275 360.162 270.701 352.214 270.701 342.41C270.701 332.606 277.967 307.34 278.683 307.357Z" fill="#42A0F0"/>
<path d="M274.827 345.41C275.993 345.767 277.529 344.124 278.257 341.741C278.986 339.358 278.631 337.137 277.465 336.78C276.299 336.424 274.763 338.067 274.034 340.45C273.306 342.833 273.661 345.053 274.827 345.41Z" fill="white"/>
<path d="M92.5302 222.482H139.176L112.361 261.86L143.714 262.454L77.9062 340.342L93.8512 280.958H64.6602L92.5302 222.482Z" fill="url(#paint0_linear_7_10010)"/>
<g filter="url(#filter1_d_7_10010)">
<path d="M283.345 249H91.913C73.3426 248.986 55.4976 241.789 42.1137 228.915C28.7298 216.042 20.8447 198.49 20.1092 179.934C19.3737 161.378 25.8448 143.257 38.1677 129.364C50.4906 115.472 67.71 106.884 86.221 105.4C88.8608 86.7604 97.2781 69.4171 110.289 55.8104C123.299 42.2037 140.248 33.0184 158.752 29.5468C177.255 26.0752 196.381 28.492 213.439 36.4572C230.497 44.4223 244.628 57.535 253.845 73.9504C270.75 68.0986 289.015 67.4147 306.31 71.9861C323.605 76.5575 339.146 86.1769 350.952 99.6174C362.757 113.058 370.292 129.71 372.594 147.45C374.896 165.191 371.862 183.215 363.879 199.223C359.194 213.688 350.047 226.297 337.751 235.24C325.455 244.183 310.641 249 295.437 249H283.345Z" fill="url(#paint1_linear_7_10010)"/>
<path d="M295.437 248C303.157 248 310.748 246.767 317.998 244.336C325.009 241.985 331.59 238.554 337.56 234.139C343.462 229.775 348.635 224.547 352.936 218.6C357.29 212.58 360.652 205.957 362.928 198.915L362.951 198.843L362.985 198.775C366.011 192.728 368.341 186.33 369.911 179.761C371.526 173 372.345 166.015 372.345 158.999C372.345 152.96 371.737 146.925 370.537 141.062C369.368 135.348 367.623 129.728 365.352 124.357C363.121 119.084 360.361 113.997 357.146 109.24C353.962 104.527 350.306 100.095 346.278 96.0672C342.25 92.0395 337.819 88.3828 333.106 85.1988C328.348 81.9845 323.261 79.2237 317.988 76.9932C312.617 74.7216 306.997 72.9769 301.283 71.8077C295.42 70.6079 289.385 69.9995 283.345 69.9995C273.346 69.9995 263.531 71.6452 254.172 74.8908L253.383 75.1646L252.973 74.4362C245.357 60.8943 234.279 49.5217 220.937 41.5479C214.189 37.5153 206.94 34.399 199.391 32.2857C191.602 30.1055 183.512 29 175.345 29C164.361 29 153.638 30.977 143.475 34.876C133.657 38.6427 124.65 44.0837 116.705 51.048C108.806 57.9722 102.251 66.1422 97.2213 75.3308C92.0685 84.7451 88.7006 94.9073 87.2113 105.535L87.0998 106.33L86.299 106.393C77.3408 107.094 68.7219 109.453 60.6818 113.403C52.8694 117.242 45.8932 122.434 39.947 128.834C27.7289 141.987 21 159.123 21 177.087C21 186.66 22.8748 195.947 26.5723 204.689C28.3495 208.891 30.5491 212.943 33.1102 216.734C35.6472 220.489 38.5607 224.02 41.7699 227.23C44.9791 230.439 48.5104 233.352 52.2655 235.889C56.0565 238.45 60.109 240.65 64.3106 242.427C73.0525 246.125 82.3391 248 91.9127 248H283.345H295.437ZM295.437 249H283.345H91.9127C52.1966 249 20 216.803 20 177.087C20 139.286 49.1646 108.297 86.221 105.396C92.3504 61.6574 129.917 28 175.345 28C209.048 28 238.422 46.5232 253.845 73.946C263.087 70.7407 273.012 68.9995 283.345 68.9995C333.051 68.9995 373.345 109.294 373.345 158.999C373.345 173.456 369.936 187.118 363.879 199.223C354.544 228.108 327.431 249 295.437 249Z" fill="white" fill-opacity="0.5"/>
</g>
</g>
<defs>
<filter id="filter0_f_7_10010" x="16" y="24" width="361.346" height="340.162" filterUnits="userSpaceOnUse" color-interpolation-filters="sRGB">
<feFlood flood-opacity="0" result="BackgroundImageFix"/>
<feBlend mode="normal" in="SourceGraphic" in2="BackgroundImageFix" result="shape"/>
<feGaussianBlur stdDeviation="2" result="effect1_foregroundBlur_7_10010"/>
</filter>
<filter id="filter1_d_7_10010" x="0" y="0" width="413.346" height="281" filterUnits="userSpaceOnUse" color-interpolation-filters="sRGB">
<feFlood flood-opacity="0" result="BackgroundImageFix"/>
<feColorMatrix in="SourceAlpha" type="matrix" values="0 0 0 0 0 0 0 0 0 0 0 0 0 0 0 0 0 0 127 0" result="hardAlpha"/>
<feOffset dx="10" dy="2"/>
<feGaussianBlur stdDeviation="15"/>
<feColorMatrix type="matrix" values="0 0 0 0 0.501961 0 0 0 0 0.501961 0 0 0 0 0.501961 0 0 0 0.302 0"/>
<feBlend mode="normal" in2="BackgroundImageFix" result="effect1_dropShadow_7_10010"/>
<feBlend mode="normal" in="SourceGraphic" in2="effect1_dropShadow_7_10010" result="shape"/>
</filter>
<linearGradient id="paint0_linear_7_10010" x1="96.9142" y1="281.412" x2="59.9877" y2="267.875" gradientUnits="userSpaceOnUse">
<stop stop-color="#FFD100"/>
<stop offset="1" stop-color="#FFF0AA"/>
</linearGradient>
<linearGradient id="paint1_linear_7_10010" x1="196.698" y1="28.0029" x2="299.341" y2="276.167" gradientUnits="userSpaceOnUse">
<stop stop-color="white" stop-opacity="0.604"/>
<stop offset="1" stop-color="white" stop-opacity="0.2"/>
</linearGradient>
</defs>
</svg>
