<svg width="13" height="21" viewBox="0 0 13 21" fill="none" xmlns="http://www.w3.org/2000/svg">
<path d="M0.80127 10.8916C0.8125 10.5098 0.947266 10.1841 1.25049 9.89209L10.0103 1.32324C10.2461 1.07617 10.5605 0.952637 10.9199 0.952637C11.6499 0.952637 12.2227 1.51416 12.2227 2.24414C12.2227 2.60352 12.0767 2.9292 11.8296 3.1875L3.93457 10.8916L11.8296 18.5957C12.0767 18.8428 12.2227 19.1685 12.2227 19.5278C12.2227 20.269 11.6499 20.8306 10.9199 20.8306C10.5605 20.8306 10.2461 20.707 10.0103 20.46L1.25049 11.8911C0.947266 11.5991 0.80127 11.2734 0.80127 10.8916Z" fill="#EBEBF5" fill-opacity="0.6"/>
</svg>
