<svg width="8" height="8" viewBox="0 0 8 8" fill="none" xmlns="http://www.w3.org/2000/svg">
    <path fill-rule="evenodd" clip-rule="evenodd" d="M0.463692 7.14521C0.277728 7.34047 0.277729 7.65706 0.463692 7.85232C0.649656 8.04758 0.951163 8.04758 1.13713 7.85232L3.99923 4.84711L6.86132 7.85232C7.04729 8.04758 7.3488 8.04758 7.53476 7.85232C7.72072 7.65706 7.72072 7.34047 7.53476 7.14521L4.67266 4.14001L7.53476 1.1348C7.72072 0.939541 7.72072 0.622959 7.53476 0.427697C7.3488 0.232434 7.04729 0.232434 6.86132 0.427697L3.99923 3.4329L1.13713 0.427697C0.951163 0.232435 0.649656 0.232435 0.463692 0.427697C0.277728 0.622959 0.277728 0.939542 0.463692 1.1348L3.32579 4.14001L0.463692 7.14521Z" fill="white"/>
</svg>
